<svg width="85" height="43" viewBox="0 0 85 43" fill="none" xmlns="http://www.w3.org/2000/svg">
<g id="Frame 1261153293">
<g clip-path="url(#clip0_3248_4865)">
<g id="Group 1244830901">
<path id="Vector" d="M75.1157 0.0491943H0C5.44777 5.35085 11.0584 10.4799 17.2128 15.2118C24.1341 20.5325 31.8266 25.1076 39.7613 29.0505C43.7493 31.032 49.0839 34.2717 53.8387 33.794C53.7901 31.0828 51.7569 27.8252 54.558 26.6411C59.4579 24.5696 72.5526 35.0628 76.1968 37.2445C78.8424 38.8288 81.5769 40.4809 84.4012 42.024V0.0491943H75.1157Z" fill="#253A79"/>
<path id="Vector_2" d="M73.9522 20.0294C70.9712 16.2316 57.7305 4.75036 53.4136 10.1812C53.4083 10.1886 53.403 10.1961 53.3977 10.2035C53.0793 10.8972 52.8593 11.5951 52.6096 12.222C52.287 14.4175 52.9333 16.883 50.3205 17.8107C45.5487 19.5031 36.7117 12.0028 33.59 9.76396C29.2678 6.66515 25.2269 3.3577 21.1184 0.0491943H0.00219727C5.44996 5.35085 11.0606 10.4799 17.215 15.2118C24.1363 20.5325 31.8288 25.1076 39.7635 29.0505C43.7515 31.032 49.086 34.2717 53.8409 33.794C53.7923 31.0828 51.7591 27.8252 54.5602 26.6411C59.46 24.5696 72.5548 35.0628 76.1979 37.2445C78.8435 38.8288 81.578 40.4809 84.4024 42.024V36.8971C83.5921 35.73 82.8156 34.5439 82.0783 33.3376C79.4846 29.095 76.9987 23.9088 73.9532 20.0294H73.9522ZM80.6482 35.5531C73.0626 32.18 59.5933 14.4683 51.3233 30.4675C51.1329 30.6582 51.5328 31.3084 51.0367 30.7641C50.3173 29.9751 50.4591 28.647 50.6431 27.3041C49.9302 28.199 48.8396 28.8292 47.1238 29.0219C39.882 29.8353 31.2533 22.6337 26.4212 18.5372C22.1973 14.9565 11.158 9.1963 11.1876 3.21155C21.6864 1.18239 25.5295 4.49301 33.7995 10.6705C38.2423 13.9896 41.8093 17.8319 46.6414 20.7369C48.3456 21.7621 49.8318 22.1804 50.6368 24.0126C51.0102 24.863 50.8103 26.0894 50.6442 27.3041C51.9844 25.6223 51.9897 23.0065 52.2859 20.5971C52.7831 16.5525 53.6325 11.6311 59.2496 11.5442C66.6532 11.4309 71.2949 20.2942 74.7688 25.0028C76.9744 27.9925 81.4606 31.8157 80.6492 35.5521L80.6482 35.5531Z" fill="#283371"/>
<path id="Vector_3" d="M69.4813 0.0491548H30.4795C30.5863 0.132821 30.6964 0.214368 30.8032 0.299093C36.3007 4.7069 44.1042 12.2601 51.583 13.6655C52.9402 10.7287 50.4797 7.52824 53.3368 5.5478C55.6926 3.91472 59.6912 5.04368 62.0638 6.15676C71.6561 10.6578 77.5429 19.7074 84.4018 27.5561V16.7823C83.6581 15.8948 82.9346 15.0338 82.2068 14.2257C78.5341 10.1452 72.5352 4.93566 69.4813 0.0480957V0.0491548Z" fill="#027849"/>
<path id="Vector_4" d="M62.0632 6.15777C59.6905 5.0447 55.692 3.91468 53.3362 5.54881C50.4801 7.52926 52.9406 10.7297 51.5823 13.6665C44.1035 12.2601 36.3 4.70792 30.8025 0.300109C30.6968 0.215384 30.5857 0.133837 30.4788 0.0501709H21.1161C25.2247 3.35868 29.2655 6.66506 33.5878 9.76493C36.7094 12.0038 45.5464 19.5041 50.3182 17.8117C52.9321 16.8839 52.2847 14.4184 52.6073 12.223C52.7142 11.4986 52.9268 10.8039 53.3954 10.2044C53.4007 10.197 53.406 10.1896 53.4113 10.1822C57.7283 4.75134 70.969 16.2326 73.9499 20.0304C76.9953 23.9097 79.4812 29.096 82.075 33.3386C82.8123 34.5448 83.5887 35.732 84.399 36.8981V27.5582C77.5401 19.7106 71.6523 10.6598 62.0611 6.15883L62.0632 6.15777Z" fill="#F7F4F3"/>
<path id="Vector_5" d="M75.1152 0.0491943C76.6279 2.00952 77.7619 4.44747 79.1424 6.05407C80.728 7.90001 82.5147 9.6697 84.4008 11.4034V0.0491943H75.1152Z" fill="#040305"/>
<path id="Vector_6" d="M79.1426 6.05407C77.7621 4.44747 76.6282 2.00952 75.1155 0.0491943H69.4805C72.5344 4.93782 78.5333 10.1463 82.206 14.2268C82.9328 15.0349 83.6574 15.8959 84.401 16.7834V11.4044C82.516 9.67076 80.7283 7.90107 79.1426 6.05513V6.05407Z" fill="#F6BC2E"/>
<path id="Vector_7" d="M59.2494 11.5452C53.6324 11.631 52.7829 16.5535 52.2857 20.598C51.9896 23.0074 51.9843 25.6233 50.644 27.3051C50.4599 28.6479 50.3182 29.975 51.0375 30.765C51.5337 31.3094 51.1338 30.6591 51.3242 30.4685C59.5942 14.4703 73.0634 32.181 80.649 35.5541C81.4604 31.8177 76.9742 27.9945 74.7686 25.0048C71.2947 20.2962 66.6541 11.4329 59.2494 11.5462V11.5452Z" fill="#253A79"/>
</g>
</g>
</g>
<defs>
<clipPath id="clip0_3248_4865">
<path d="M0 0.0480957H76.4023C80.8206 0.0480957 84.4023 3.62982 84.4023 8.0481V42.024H0V0.0480957Z" fill="white"/>
</clipPath>
</defs>
</svg>
