<svg width="13" height="13" viewBox="0 0 13 13" fill="none" xmlns="http://www.w3.org/2000/svg">
<path d="M8.8916 7.2V8.7C8.8916 10.7 8.0916 11.5 6.0916 11.5H4.1916C2.1916 11.5 1.3916 10.7 1.3916 8.7V6.8C1.3916 4.8 2.1916 4 4.1916 4H5.6916" stroke="#8E42D1" stroke-linecap="round" stroke-linejoin="round"/>
<path d="M8.89141 7.2H7.29141C6.09141 7.2 5.69141 6.8 5.69141 5.6V4L8.89141 7.2Z" stroke="#8E42D1" stroke-linecap="round" stroke-linejoin="round"/>
<path d="M6.19141 1.5H8.19141" stroke="#8E42D1" stroke-linecap="round" stroke-linejoin="round"/>
<path d="M3.8916 3C3.8916 2.17 4.5616 1.5 5.3916 1.5H6.7016" stroke="#8E42D1" stroke-linecap="round" stroke-linejoin="round"/>
<path d="M11.3913 4.5V7.595C11.3913 8.37 10.7613 9 9.98633 9" stroke="#8E42D1" stroke-linecap="round" stroke-linejoin="round"/>
<path d="M11.3916 4.5H9.8916C8.7666 4.5 8.3916 4.125 8.3916 3V1.5L11.3916 4.5Z" stroke="#8E42D1" stroke-linecap="round" stroke-linejoin="round"/>
</svg>
