<svg width="12" height="13" viewBox="0 0 12 13" fill="none" xmlns="http://www.w3.org/2000/svg">
<g id="vuesax/linear/document-copy">
<path id="Vector" d="M8.5 7.2V8.7C8.5 10.7 7.7 11.5 5.7 11.5H3.8C1.8 11.5 1 10.7 1 8.7V6.8C1 4.8 1.8 4 3.8 4H5.3" stroke="#03F982" stroke-linecap="round" stroke-linejoin="round"/>
<path id="Vector_2" d="M8.4998 7.2H6.8998C5.6998 7.2 5.2998 6.8 5.2998 5.6V4L8.4998 7.2Z" stroke="#03F982" stroke-linecap="round" stroke-linejoin="round"/>
<path id="Vector_3" d="M5.7998 1.5H7.7998" stroke="#03F982" stroke-linecap="round" stroke-linejoin="round"/>
<path id="Vector_4" d="M3.5 3C3.5 2.17 4.17 1.5 5 1.5H6.31" stroke="#03F982" stroke-linecap="round" stroke-linejoin="round"/>
<path id="Vector_5" d="M10.9997 4.5V7.595C10.9997 8.37 10.3697 9 9.59473 9" stroke="#03F982" stroke-linecap="round" stroke-linejoin="round"/>
<path id="Vector_6" d="M11 4.5H9.5C8.375 4.5 8 4.125 8 3V1.5L11 4.5Z" stroke="#03F982" stroke-linecap="round" stroke-linejoin="round"/>
</g>
</svg>
