<svg width="13" height="12" viewBox="0 0 13 12" fill="none" xmlns="http://www.w3.org/2000/svg">
<path id="Vector" d="M10.5527 0.75H12.2891L8.6765 4.6044C8.37208 4.92592 8.00565 5.18239 7.59934 5.35832C7.19302 5.53425 6.75526 5.62599 6.3125 5.628C5.86969 5.62591 5.43191 5.53408 5.02559 5.35804C4.61928 5.18201 4.25287 4.92542 3.9485 4.6038L0.3299 0.75H2.0723L4.8143 3.702C5.6171 4.554 7.0079 4.554 7.8113 3.702L10.5527 0.75ZM2.0489 11.244H0.3125L3.9485 7.4016C4.25331 7.07985 4.62013 6.82317 5.02683 6.64705C5.43354 6.47092 5.8717 6.37899 6.3149 6.3768C6.7582 6.37891 7.19648 6.4708 7.60329 6.64693C8.01011 6.82306 8.37702 7.07978 8.6819 7.4016L12.3125 11.25H10.5755L7.8167 8.3094C7.0139 7.458 5.6231 7.458 4.8197 8.3094L2.0489 11.244Z" fill="white"/>
</svg>
