<svg width="12" height="12" viewBox="0 0 12 12" fill="none" xmlns="http://www.w3.org/2000/svg">
<path id="Vector" d="M10.2402 0.75H11.9766L8.364 4.6044C8.05958 4.92592 7.69315 5.18239 7.28684 5.35832C6.88052 5.53425 6.44276 5.62599 6 5.628C5.55719 5.62591 5.11941 5.53408 4.71309 5.35804C4.30678 5.18201 3.94037 4.92542 3.636 4.6038L0.0174 0.75H1.7598L4.5018 3.702C5.3046 4.554 6.6954 4.554 7.4988 3.702L10.2402 0.75ZM1.7364 11.244H0L3.636 7.4016C3.94081 7.07985 4.30763 6.82317 4.71433 6.64705C5.12104 6.47092 5.5592 6.37899 6.0024 6.3768C6.4457 6.37891 6.88398 6.4708 7.29079 6.64693C7.69761 6.82306 8.06452 7.07978 8.3694 7.4016L12 11.25H10.263L7.5042 8.3094C6.7014 7.458 5.3106 7.458 4.5072 8.3094L1.7364 11.244Z" fill="#1A1A1A"/>
</svg>
