<svg width="70" height="86" viewBox="0 0 70 86" fill="none" xmlns="http://www.w3.org/2000/svg">
<path d="M69.2213 85.9333H0.778809V12.1676C4.00473 12.1639 7.09749 10.8808 9.37856 8.59978C11.6596 6.3187 12.9427 3.22592 12.9464 0H57.0537C57.0503 1.59805 57.3638 3.18088 57.9762 4.65696C58.5885 6.13304 59.4875 7.47304 60.6211 8.5994C61.7474 9.73334 63.0875 10.6326 64.5637 11.2451C66.04 11.8576 67.623 12.1711 69.2213 12.1676V85.9333Z" fill="white"/>
<path d="M35.0001 49.4304C45.08 49.4304 53.2514 41.259 53.2514 31.1791C53.2514 21.0991 45.08 12.9277 35.0001 12.9277C24.9202 12.9277 16.7488 21.0991 16.7488 31.1791C16.7488 41.259 24.9202 49.4304 35.0001 49.4304Z" fill="url(#paint0_linear_2780_343)"/>
<path d="M41.4528 39.7834L35 33.3306L28.5472 39.7834L26.3962 37.6324L32.8491 31.1796L26.3962 24.7268L28.5472 22.5759L35 29.0287L41.4528 22.5759L43.6038 24.7268L37.1509 31.1796L43.6038 37.6324L41.4528 39.7834Z" fill="white"/>
<path d="M44.8862 53.9941H25.1139C23.8539 53.9941 22.8325 55.0156 22.8325 56.2756C22.8325 57.5355 23.8539 58.557 25.1139 58.557H44.8862C46.1462 58.557 47.1676 57.5355 47.1676 56.2756C47.1676 55.0156 46.1462 53.9941 44.8862 53.9941Z" fill="#DFEAFB"/>
<path d="M51.7305 63.1191H18.2697C17.0097 63.1191 15.9883 64.1406 15.9883 65.4006C15.9883 66.6605 17.0097 67.682 18.2697 67.682H51.7305C52.9905 67.682 54.0119 66.6605 54.0119 65.4006C54.0119 64.1406 52.9905 63.1191 51.7305 63.1191Z" fill="#DFEAFB"/>
<defs>
<linearGradient id="paint0_linear_2780_343" x1="13.8461" y1="31.0231" x2="58.8978" y2="31.0231" gradientUnits="userSpaceOnUse">
<stop stop-color="#03F982"/>
<stop offset="0.228829" stop-color="#37C3A6"/>
<stop offset="0.560256" stop-color="#8572DB"/>
<stop offset="1" stop-color="#AF45EE"/>
</linearGradient>
</defs>
</svg>
