<svg width="33" height="33" viewBox="0 0 33 33" fill="none" xmlns="http://www.w3.org/2000/svg">
<g id="Group 1244830881">
<path id="Vector" d="M16.3916 32.5C25.2282 32.5 32.3916 25.3366 32.3916 16.5C32.3916 7.66344 25.2282 0.5 16.3916 0.5C7.55505 0.5 0.391602 7.66344 0.391602 16.5C0.391602 25.3366 7.55505 32.5 16.3916 32.5Z" fill="#FF0000" fill-opacity="0.13"/>
<g id="vuesax/linear/3dcube">
<g id="vuesax/linear/close-circle">
<g id="close-circle">
<path id="Vector_2" d="M16.3918 23.1667C20.0584 23.1667 23.0584 20.1667 23.0584 16.5C23.0584 12.8333 20.0584 9.83334 16.3918 9.83334C12.7251 9.83334 9.7251 12.8333 9.7251 16.5C9.7251 20.1667 12.7251 23.1667 16.3918 23.1667Z" stroke="#1A1A1A" stroke-width="1.5" stroke-linecap="round" stroke-linejoin="round"/>
<path id="Vector_3" d="M14.5049 18.3867L18.2782 14.6133" stroke="#1A1A1A" stroke-width="1.5" stroke-linecap="round" stroke-linejoin="round"/>
<path id="Vector_4" d="M18.2782 18.3867L14.5049 14.6133" stroke="#1A1A1A" stroke-width="1.5" stroke-linecap="round" stroke-linejoin="round"/>
</g>
</g>
</g>
</g>
</svg>
