<svg width="34" height="33" viewBox="0 0 34 33" fill="none" xmlns="http://www.w3.org/2000/svg">
<g id="Group 1244830881">
<path id="Vector" d="M16.783 32.5C25.8358 32.5 33.1745 25.3366 33.1745 16.5C33.1745 7.66344 25.8358 0.5 16.783 0.5C7.7303 0.5 0.391602 7.66344 0.391602 16.5C0.391602 25.3366 7.7303 32.5 16.783 32.5Z" fill="#AF45EE" fill-opacity="0.1"/>
<g id="vuesax/linear/3dcube">
<g id="3dcube">
<path id="Vector_2" d="M17.4899 16.6718L22.4919 19.2649C23.0758 19.5678 23.0758 20.4322 22.4919 20.7351L17.4899 23.3282C17.0443 23.5573 16.5218 23.5573 16.0761 23.3282L11.0742 20.7351C10.4902 20.4322 10.4902 19.5678 11.0742 19.2649L16.0761 16.6718C16.5218 16.4427 17.0443 16.4427 17.4899 16.6718Z" stroke="#1A1A1A" stroke-width="1.5" stroke-linecap="round" stroke-linejoin="round"/>
<path id="Vector_3" d="M17.4899 9.67177L22.4919 12.2649C23.0758 12.5678 23.0758 13.4322 22.4919 13.7351L17.4899 16.3282C17.0443 16.5573 16.5218 16.5573 16.0761 16.3282L11.0742 13.7351C10.4902 13.4322 10.4902 12.5678 11.0742 12.2649L16.0761 9.67177C16.5218 9.44274 17.0443 9.44274 17.4899 9.67177Z" stroke="#1A1A1A" stroke-width="1.5" stroke-linecap="round" stroke-linejoin="round"/>
<path id="Vector_4" d="M17.4899 12.6963L22.4919 15.6599C23.0758 16.0061 23.0758 16.9939 22.4919 17.3401L17.4899 20.3037C17.0443 20.5654 16.5218 20.5654 16.0761 20.3037L11.0742 17.3401C10.4902 16.9939 10.4902 16.0061 11.0742 15.6599L16.0761 12.6963C16.5218 12.4346 17.0443 12.4346 17.4899 12.6963Z" stroke="#1A1A1A" stroke-width="1.5" stroke-linecap="round" stroke-linejoin="round"/>
</g>
</g>
</g>
</svg>
