<svg width="32" height="32" viewBox="0 0 32 32" fill="none" xmlns="http://www.w3.org/2000/svg">
<g id="Group 1244830881">
<path id="Vector" d="M16 32C24.8366 32 32 24.8366 32 16C32 7.16344 24.8366 0 16 0C7.16344 0 0 7.16344 0 16C0 24.8366 7.16344 32 16 32Z" fill="#AF45EE" fill-opacity="0.1"/>
<g id="vuesax/linear/3dcube">
<g id="3dcube">
<path id="Vector_2" d="M16.69 16.1718L21.5725 18.7649C22.1425 19.0678 22.1425 19.9322 21.5725 20.2351L16.69 22.8282C16.255 23.0573 15.745 23.0573 15.31 22.8282L10.4275 20.2351C9.8575 19.9322 9.8575 19.0678 10.4275 18.7649L15.31 16.1718C15.745 15.9427 16.255 15.9427 16.69 16.1718Z" stroke="white" stroke-width="1.5" stroke-linecap="round" stroke-linejoin="round"/>
<path id="Vector_3" d="M16.69 9.17177L21.5725 11.7649C22.1425 12.0678 22.1425 12.9322 21.5725 13.2351L16.69 15.8282C16.255 16.0573 15.745 16.0573 15.31 15.8282L10.4275 13.2351C9.8575 12.9322 9.8575 12.0678 10.4275 11.7649L15.31 9.17177C15.745 8.94274 16.255 8.94274 16.69 9.17177Z" stroke="white" stroke-width="1.5" stroke-linecap="round" stroke-linejoin="round"/>
<path id="Vector_4" d="M16.69 12.1963L21.5725 15.1599C22.1425 15.5061 22.1425 16.4939 21.5725 16.8401L16.69 19.8037C16.255 20.0654 15.745 20.0654 15.31 19.8037L10.4275 16.8401C9.8575 16.4939 9.8575 15.5061 10.4275 15.1599L15.31 12.1963C15.745 11.9346 16.255 11.9346 16.69 12.1963Z" stroke="white" stroke-width="1.5" stroke-linecap="round" stroke-linejoin="round"/>
</g>
</g>
</g>
</svg>
