<svg width="154" height="151" viewBox="0 0 154 151" fill="none" xmlns="http://www.w3.org/2000/svg">
<g clip-path="url(#clip0_2383_816)">
<path opacity="0.11" d="M75.4132 162.053C97.3815 162.053 115.19 147.773 115.19 130.158C115.19 112.543 97.3815 98.2632 75.4132 98.2632C53.4448 98.2632 35.636 112.543 35.636 130.158C35.636 147.773 53.4448 162.053 75.4132 162.053Z" fill="url(#paint0_linear_2383_816)"/>
<path opacity="0.42" d="M75.4132 156.22C93.3175 156.22 107.832 145.178 107.832 131.557C107.832 117.936 93.3175 106.894 75.4132 106.894C57.5089 106.894 42.9946 117.936 42.9946 131.557C42.9946 145.178 57.5089 156.22 75.4132 156.22Z" fill="url(#paint1_linear_2383_816)"/>
<path d="M132.022 81.2625C132.022 83.475 130.233 85.2646 128.021 85.2646C125.81 85.2646 124.021 83.475 124.021 81.2625C124.021 79.0499 125.81 77.2604 128.021 77.2604C130.233 77.2604 132.022 79.0499 132.022 81.2625Z" fill="url(#paint2_linear_2383_816)"/>
<path d="M33.9449 94.3994C33.9449 95.5707 32.9935 96.5224 31.8226 96.5224C30.6518 96.5224 29.7004 95.5707 29.7004 94.3994C29.7004 93.228 30.6518 92.2763 31.8226 92.2763C32.9935 92.2763 33.9449 93.228 33.9449 94.3994Z" fill="url(#paint3_linear_2383_816)"/>
<path d="M70.2094 106.601C71.8518 106.601 73.1853 107.935 73.1853 109.578C73.1853 111.221 71.8518 112.555 70.2094 112.555C68.5669 112.555 67.2334 111.221 67.2334 109.578C67.2334 107.935 68.5669 106.601 70.2094 106.601Z" fill="url(#paint4_radial_2383_816)"/>
<path d="M26.57 48.0581C26.57 48.6845 26.0659 49.1888 25.4398 49.1888C24.8137 49.1888 24.3096 48.6845 24.3096 48.0581C24.3096 47.4318 24.8137 46.9275 25.4398 46.9275C26.0659 46.9275 26.57 47.4318 26.57 48.0581Z" fill="url(#paint5_radial_2383_816)"/>
<g style="mix-blend-mode:overlay">
<path d="M117.247 89.5432C125.785 94.3587 134.266 99.28 142.462 104.665C144.503 106.023 146.519 107.431 148.463 108.927C149.43 109.684 150.39 110.457 151.276 111.327C151.723 111.758 152.146 112.222 152.487 112.791C152.561 112.946 152.65 113.092 152.674 113.287C152.715 113.466 152.699 113.718 152.561 113.906C152.252 114.272 151.87 114.263 151.552 114.304C150.251 114.32 149.064 113.995 147.869 113.686C146.682 113.361 145.503 112.994 144.34 112.596C142.015 111.807 139.722 110.936 137.437 110.025C128.33 106.381 119.41 102.29 110.556 98.0924C101.701 93.8788 92.9274 89.5025 84.219 85.0124C75.5269 80.4816 66.8999 75.8287 58.346 71.0295C49.8002 66.2221 41.3195 61.3008 33.0258 56.0623C28.8871 53.4268 24.7728 50.7587 20.878 47.749C19.9104 46.9925 18.9591 46.2116 18.0728 45.3413C17.6337 44.8939 17.1946 44.4546 16.8694 43.8771C16.7881 43.7307 16.7149 43.5761 16.6743 43.389C16.6255 43.2182 16.6336 42.966 16.7637 42.7871C17.0564 42.421 17.4467 42.3966 17.7557 42.3722C19.0567 42.3478 20.2438 42.6895 21.4391 42.9904C22.6262 43.3158 23.7971 43.69 24.9598 44.0967C29.5945 45.7236 34.1073 47.6351 38.6037 49.5955C43.0921 51.564 47.5398 53.6139 51.9712 55.7125C47.5154 53.6789 43.0352 51.686 38.5224 49.7745C34.0097 47.8792 29.4644 46.0327 24.8297 44.4709C23.667 44.0804 22.5042 43.7063 21.3334 43.3972C20.1625 43.1043 18.951 42.779 17.7882 42.8115C17.5036 42.8115 17.219 42.901 17.1296 43.0393C17.0239 43.1531 17.1215 43.4378 17.2516 43.6737C17.5362 44.1618 17.9671 44.6092 18.3899 45.0322C19.2518 45.8781 20.2032 46.6428 21.1707 47.3911C25.0493 50.3601 29.1798 53.0119 33.3186 55.6149C41.6204 60.8046 50.1255 65.6852 58.6794 70.4438C67.2414 75.2024 75.8928 79.8064 84.5931 84.3047C93.277 88.8355 102.026 93.2443 110.848 97.4986C119.679 101.737 128.566 105.861 137.64 109.546C139.909 110.457 142.194 111.335 144.503 112.132C145.657 112.531 146.82 112.905 147.991 113.23C149.162 113.531 150.365 113.857 151.528 113.849C151.796 113.832 152.113 113.775 152.195 113.637C152.292 113.531 152.219 113.263 152.089 113.027C151.804 112.539 151.398 112.083 150.967 111.669C150.113 110.814 149.162 110.05 148.202 109.293C146.275 107.797 144.267 106.398 142.242 105.015C134.136 99.524 125.712 94.497 117.247 89.5676V89.5432Z" fill="white"/>
</g>
<g style="mix-blend-mode:overlay">
<path d="M52.0933 89.5432C43.5556 94.3587 35.0749 99.28 26.8788 104.665C24.8379 106.023 22.8214 107.431 20.8781 108.927C19.9105 109.684 18.951 110.457 18.0647 111.327C17.6175 111.758 17.1947 112.222 16.8532 112.791C16.78 112.946 16.6906 113.092 16.6662 113.287C16.6255 113.466 16.6418 113.718 16.78 113.906C17.089 114.272 17.4712 114.263 17.7883 114.304C19.0893 114.32 20.2764 113.995 21.4717 113.686C22.6588 113.361 23.8378 112.994 25.0005 112.596C27.326 111.807 29.619 110.936 31.9038 110.025C41.0106 106.381 49.9304 102.29 58.7851 98.0924C67.6399 93.8788 76.4133 89.5025 85.1217 85.0124C93.8138 80.4816 102.441 75.8287 110.995 71.0295C119.54 66.2221 128.021 61.3008 136.315 56.0623C140.454 53.4268 144.568 50.7587 148.463 47.749C149.43 46.9925 150.382 46.2116 151.268 45.3413C151.707 44.8939 152.146 44.4546 152.471 43.8771C152.553 43.7307 152.626 43.5761 152.666 43.389C152.715 43.2182 152.707 42.966 152.577 42.7871C152.284 42.421 151.894 42.3966 151.585 42.3722C150.284 42.3478 149.097 42.6895 147.902 42.9904C146.715 43.3158 145.544 43.69 144.381 44.0967C139.746 45.7236 135.233 47.6351 130.737 49.5955C126.249 51.564 121.801 53.6139 117.369 55.7125C121.825 53.6789 126.306 51.686 130.818 49.7745C135.331 47.8792 139.876 46.0327 144.511 44.4709C145.674 44.0804 146.836 43.7063 148.007 43.3972C149.178 43.1043 150.39 42.779 151.552 42.8115C151.837 42.8115 152.122 42.901 152.211 43.0393C152.317 43.1531 152.219 43.4378 152.089 43.6737C151.805 44.1618 151.374 44.6092 150.951 45.0322C150.089 45.8781 149.138 46.6428 148.17 47.3911C144.291 50.3601 140.161 53.0119 136.022 55.6149C127.72 60.8046 119.223 65.6852 110.661 70.4438C102.099 75.2024 93.4479 79.8064 84.7476 84.3047C76.0637 88.8355 67.3146 93.2443 58.4924 97.4986C49.6621 101.737 40.7748 105.861 31.7005 109.546C29.432 110.457 27.1471 111.335 24.8379 112.132C23.6833 112.531 22.5206 112.905 21.3497 113.23C20.1788 113.531 18.9754 113.857 17.8127 113.849C17.5444 113.832 17.2272 113.775 17.1459 113.637C17.0484 113.531 17.1215 113.263 17.2516 113.027C17.5362 112.539 17.9428 112.083 18.3737 111.669C19.2275 110.814 20.1788 110.05 21.1383 109.293C23.0653 107.797 25.0737 106.398 27.0984 105.015C35.205 99.524 43.6288 94.497 52.0933 89.5676V89.5432Z" fill="white"/>
</g>
<path d="M98.4566 5.77588H52.0851C48.3205 5.77588 45.2632 8.82625 45.2632 12.6006C45.2632 16.3749 48.3123 19.4253 52.0851 19.4253H71.9737L75.2668 22.7197L78.5599 19.4253H98.4485C102.213 19.4253 105.27 16.3749 105.27 12.6006C105.27 8.82625 102.221 5.77588 98.4485 5.77588H98.4566Z" fill="url(#paint6_linear_2383_816)"/>
<path d="M90.5288 14.7725H60.0129C59.59 14.7725 59.2485 14.4308 59.2485 14.0078C59.2485 13.5848 59.59 13.2432 60.0129 13.2432H90.5288C90.9516 13.2432 91.2931 13.5848 91.2931 14.0078C91.2931 14.4308 90.9516 14.7725 90.5288 14.7725Z" fill="white"/>
<path d="M90.5288 11.3723H60.0129C59.59 11.3723 59.2485 11.0307 59.2485 10.6077C59.2485 10.1847 59.59 9.84305 60.0129 9.84305H90.5288C90.9516 9.84305 91.2931 10.1847 91.2931 10.6077C91.2931 11.0307 90.9516 11.3723 90.5288 11.3723Z" fill="white"/>
<path d="M118.671 19.4253C120.313 19.4253 121.647 20.7593 121.647 22.4025C121.647 24.0456 120.313 25.3796 118.671 25.3796C117.028 25.3796 115.695 24.0456 115.695 22.4025C115.695 20.7593 117.028 19.4253 118.671 19.4253Z" fill="url(#paint7_radial_2383_816)"/>
<path d="M113.296 54.2728C113.377 52.6866 113.418 51.0028 113.418 49.262C113.418 39.5415 112.084 31.6593 110.434 31.6593C108.783 31.6593 107.45 39.5415 107.45 49.262C107.45 51.0028 107.49 52.6866 107.572 54.2728H113.288H113.296Z" fill="url(#paint8_linear_2383_816)"/>
<path d="M110.572 37.7275C112.966 37.7275 114.906 35.7864 114.906 33.3919C114.906 30.9974 112.966 29.0563 110.572 29.0563C108.179 29.0563 106.238 30.9974 106.238 33.3919C106.238 35.7864 108.179 37.7275 110.572 37.7275Z" fill="url(#paint9_linear_2383_816)"/>
<path d="M42.149 54.2728C42.2303 52.6866 42.2709 51.0028 42.2709 49.262C42.2709 39.5415 40.9374 31.6593 39.2868 31.6593C37.6362 31.6593 36.3027 39.5415 36.3027 49.262C36.3027 51.0028 36.3434 52.6866 36.4247 54.2728H42.1408H42.149Z" fill="url(#paint10_linear_2383_816)"/>
<path d="M39.4252 37.7275C41.8187 37.7275 43.759 35.7864 43.759 33.3919C43.759 30.9974 41.8187 29.0563 39.4252 29.0563C37.0316 29.0563 35.0913 30.9974 35.0913 33.3919C35.0913 35.7864 37.0316 37.7275 39.4252 37.7275Z" fill="url(#paint11_linear_2383_816)"/>
<path d="M116.231 53.7278H112.377C110.859 53.7278 109.629 54.9587 109.629 56.4772V70.9156C109.629 72.434 110.859 73.665 112.377 73.665H116.231C117.749 73.665 118.98 72.434 118.98 70.9156V56.4772C118.98 54.9587 117.749 53.7278 116.231 53.7278Z" fill="url(#paint12_linear_2383_816)"/>
<path d="M116.817 61.3171H111.792C110.597 61.3171 109.629 62.2858 109.629 63.4808V71.4931C109.629 72.6881 110.597 73.6569 111.792 73.6569H116.817C118.011 73.6569 118.98 72.6881 118.98 71.4931V63.4808C118.98 62.2858 118.011 61.3171 116.817 61.3171Z" fill="url(#paint13_linear_2383_816)"/>
<path d="M37.4738 53.7278H33.6196C32.1018 53.7278 30.8713 54.9587 30.8713 56.4772V70.9156C30.8713 72.434 32.1018 73.665 33.6196 73.665H37.4738C38.9916 73.665 40.2221 72.434 40.2221 70.9156V56.4772C40.2221 54.9587 38.9916 53.7278 37.4738 53.7278Z" fill="url(#paint14_linear_2383_816)"/>
<path d="M38.0592 61.3171H33.0342C31.8397 61.3171 30.8713 62.2858 30.8713 63.4808V71.4931C30.8713 72.6881 31.8397 73.6569 33.0342 73.6569H38.0592C39.2537 73.6569 40.2221 72.6881 40.2221 71.4931V63.4808C40.2221 62.2858 39.2537 61.3171 38.0592 61.3171Z" fill="url(#paint15_linear_2383_816)"/>
<path d="M75.3238 94.5783C97.2921 94.5783 115.101 80.2986 115.101 62.6836C115.101 45.0687 97.2921 30.7889 75.3238 30.7889C53.3555 30.7889 35.5466 45.0687 35.5466 62.6836C35.5466 80.2986 53.3555 94.5783 75.3238 94.5783Z" fill="url(#paint16_linear_2383_816)"/>
<path d="M75.3238 85.956C93.2281 85.956 107.742 74.9138 107.742 61.2927C107.742 47.6715 93.2281 36.6294 75.3238 36.6294C57.4196 36.6294 42.9053 47.6715 42.9053 61.2927C42.9053 74.9138 57.4196 85.956 75.3238 85.956Z" fill="url(#paint17_linear_2383_816)"/>
<path d="M75.324 83.6295C92.2942 83.6295 106.051 73.425 106.051 60.8372C106.051 48.2493 92.2942 38.0448 75.324 38.0448C58.3538 38.0448 44.5967 48.2493 44.5967 60.8372C44.5967 73.425 58.3538 83.6295 75.324 83.6295Z" fill="url(#paint18_linear_2383_816)"/>
<path d="M93.7732 65.1158H57.9965C55.5247 65.1158 53.5244 63.1148 53.5244 60.6419C53.5244 58.1691 55.5247 56.1681 57.9965 56.1681H93.7732C96.245 56.1681 98.2453 58.1691 98.2453 60.6419C98.2453 63.1148 96.245 65.1158 93.7732 65.1158Z" fill="#8EE9FE"/>
<path d="M81.8204 69.6141H70.4857C69.9491 69.6141 69.51 69.1748 69.51 68.638C69.51 68.1011 69.9491 67.6619 70.4857 67.6619H81.8204C82.3571 67.6619 82.7962 68.1011 82.7962 68.638C82.7962 69.1748 82.3652 69.6141 81.8204 69.6141Z" fill="#8EE9FE"/>
<path style="mix-blend-mode:overlay" opacity="0.36" d="M75.3239 38.0448C72.478 38.0448 69.7216 38.3376 67.1034 38.8745C66.9083 40.2736 66.7944 41.6971 66.7944 43.1531C66.7944 59.9261 80.3814 73.5186 97.1477 73.5186C98.4812 73.5186 99.7903 73.421 101.075 73.2583C104.214 69.6873 106.043 65.4249 106.043 60.8372C106.043 48.2452 92.2853 38.0448 75.3158 38.0448H75.3239Z" fill="url(#paint19_linear_2383_816)"/>
</g>
<defs>
<linearGradient id="paint0_linear_2383_816" x1="67.9732" y1="153.853" x2="109.252" y2="22.4851" gradientUnits="userSpaceOnUse">
<stop stop-color="white"/>
<stop offset="1" stop-color="#5EA5FC"/>
</linearGradient>
<linearGradient id="paint1_linear_2383_816" x1="75.4132" y1="129.434" x2="75.4132" y2="104.592" gradientUnits="userSpaceOnUse">
<stop stop-color="white"/>
<stop offset="1" stop-color="#5EA5FC"/>
</linearGradient>
<linearGradient id="paint2_linear_2383_816" x1="128.032" y1="88.1215" x2="128.032" y2="67.7294" gradientUnits="userSpaceOnUse">
<stop stop-color="#03F982"/>
<stop offset="0.228829" stop-color="#37C3A6"/>
<stop offset="0.560256" stop-color="#8572DB"/>
<stop offset="1" stop-color="#AF45EE"/>
</linearGradient>
<linearGradient id="paint3_linear_2383_816" x1="31.8283" y1="98.038" x2="31.8283" y2="87.2202" gradientUnits="userSpaceOnUse">
<stop stop-color="#03F982"/>
<stop offset="0.228829" stop-color="#37C3A6"/>
<stop offset="0.560256" stop-color="#8572DB"/>
<stop offset="1" stop-color="#AF45EE"/>
</linearGradient>
<radialGradient id="paint4_radial_2383_816" cx="0" cy="0" r="1" gradientUnits="userSpaceOnUse" gradientTransform="translate(69.2499 108.944) rotate(-90) scale(2.97717 2.97597)">
<stop stop-color="white"/>
<stop offset="1" stop-color="#5EA5FC"/>
</radialGradient>
<radialGradient id="paint5_radial_2383_816" cx="0" cy="0" r="1" gradientUnits="userSpaceOnUse" gradientTransform="translate(25.6756 47.7002) scale(1.13022 1.13067)">
<stop stop-color="white"/>
<stop offset="1" stop-color="#5EA5FC"/>
</radialGradient>
<linearGradient id="paint6_linear_2383_816" x1="75.3468" y1="28.7675" x2="75.3468" y2="-14.4" gradientUnits="userSpaceOnUse">
<stop stop-color="#03F982"/>
<stop offset="0.228829" stop-color="#37C3A6"/>
<stop offset="0.560256" stop-color="#8572DB"/>
<stop offset="1" stop-color="#AF45EE"/>
</linearGradient>
<radialGradient id="paint7_radial_2383_816" cx="0" cy="0" r="1" gradientUnits="userSpaceOnUse" gradientTransform="translate(117.711 21.768) rotate(-90) scale(2.97716 2.97597)">
<stop stop-color="white"/>
<stop offset="1" stop-color="#5EA5FC"/>
</radialGradient>
<linearGradient id="paint8_linear_2383_816" x1="112.133" y1="33.6522" x2="109.415" y2="57.51" gradientUnits="userSpaceOnUse">
<stop stop-color="white"/>
<stop offset="1" stop-color="#5EA5FC"/>
</linearGradient>
<linearGradient id="paint9_linear_2383_816" x1="105.549" y1="33.3549" x2="116.247" y2="33.3549" gradientUnits="userSpaceOnUse">
<stop stop-color="#03F982"/>
<stop offset="0.228829" stop-color="#37C3A6"/>
<stop offset="0.560256" stop-color="#8572DB"/>
<stop offset="1" stop-color="#AF45EE"/>
</linearGradient>
<linearGradient id="paint10_linear_2383_816" x1="40.9862" y1="33.6522" x2="38.2683" y2="57.51" gradientUnits="userSpaceOnUse">
<stop stop-color="white"/>
<stop offset="1" stop-color="#5EA5FC"/>
</linearGradient>
<linearGradient id="paint11_linear_2383_816" x1="34.402" y1="33.3549" x2="45.0998" y2="33.3549" gradientUnits="userSpaceOnUse">
<stop stop-color="#03F982"/>
<stop offset="0.228829" stop-color="#37C3A6"/>
<stop offset="0.560256" stop-color="#8572DB"/>
<stop offset="1" stop-color="#AF45EE"/>
</linearGradient>
<linearGradient id="paint12_linear_2383_816" x1="116.483" y1="50.9539" x2="111.601" y2="79.4234" gradientUnits="userSpaceOnUse">
<stop stop-color="white"/>
<stop offset="1" stop-color="#5EA5FC"/>
</linearGradient>
<linearGradient id="paint13_linear_2383_816" x1="120.167" y1="46.4231" x2="112.233" y2="74.8916" gradientUnits="userSpaceOnUse">
<stop stop-color="white"/>
<stop offset="1" stop-color="#5EA5FC"/>
</linearGradient>
<linearGradient id="paint14_linear_2383_816" x1="37.734" y1="50.9539" x2="32.8515" y2="79.4234" gradientUnits="userSpaceOnUse">
<stop stop-color="white"/>
<stop offset="1" stop-color="#5EA5FC"/>
</linearGradient>
<linearGradient id="paint15_linear_2383_816" x1="41.4173" y1="46.4231" x2="33.4836" y2="74.8916" gradientUnits="userSpaceOnUse">
<stop stop-color="white"/>
<stop offset="1" stop-color="#5EA5FC"/>
</linearGradient>
<linearGradient id="paint16_linear_2383_816" x1="82.7637" y1="38.9965" x2="41.4847" y2="170.365" gradientUnits="userSpaceOnUse">
<stop stop-color="white"/>
<stop offset="1" stop-color="#5EA5FC"/>
</linearGradient>
<linearGradient id="paint17_linear_2383_816" x1="75.3238" y1="63.4076" x2="75.3238" y2="88.258" gradientUnits="userSpaceOnUse">
<stop stop-color="white"/>
<stop offset="1" stop-color="#5EA5FC"/>
</linearGradient>
<linearGradient id="paint18_linear_2383_816" x1="39.7098" y1="60.6424" x2="115.557" y2="60.6424" gradientUnits="userSpaceOnUse">
<stop stop-color="#37C3A6"/>
<stop offset="1" stop-color="#AF45EE"/>
</linearGradient>
<linearGradient id="paint19_linear_2383_816" x1="87.7401" y1="44.9915" x2="77.9753" y2="93.2591" gradientUnits="userSpaceOnUse">
<stop stop-color="white"/>
<stop offset="1" stop-color="#5EA5FC"/>
</linearGradient>
<clipPath id="clip0_2383_816">
<rect width="154" height="151" fill="white"/>
</clipPath>
</defs>
</svg>
