<svg width="24" height="24" viewBox="0 0 24 24" fill="none" xmlns="http://www.w3.org/2000/svg">
<g id="Group 1244830923">
<rect id="Rectangle 3312" width="24" height="24" rx="12" fill="#1A1A1A"/>
<g id="vuesax/linear/sun">
<g id="sun">
<path id="Vector" d="M11.9993 16.3334C14.3926 16.3334 16.3327 14.3933 16.3327 12.0001C16.3327 9.60685 14.3926 7.66675 11.9993 7.66675C9.60612 7.66675 7.66602 9.60685 7.66602 12.0001C7.66602 14.3933 9.60612 16.3334 11.9993 16.3334Z" stroke="white" stroke-linecap="round" stroke-linejoin="round"/>
<path id="Vector_2" d="M16.7606 16.7599L16.674 16.6733M16.674 7.32659L16.7606 7.23992L16.674 7.32659ZM7.24065 16.7599L7.32732 16.6733L7.24065 16.7599ZM12.0007 5.38659V5.33325V5.38659ZM12.0007 18.6666V18.6133V18.6666ZM5.38732 11.9999H5.33398H5.38732ZM18.6673 11.9999H18.614H18.6673ZM7.32732 7.32659L7.24065 7.23992L7.32732 7.32659Z" stroke="white" stroke-linecap="round" stroke-linejoin="round"/>
</g>
</g>
</g>
</svg>
