<svg width="24" height="24" viewBox="0 0 24 24" fill="none" xmlns="http://www.w3.org/2000/svg">
<rect width="24" height="24" rx="12" fill="#F8F8F8"/>
<g clip-path="url(#clip0_2351_253)">
<path d="M8.66669 19.24L4.88892 17.0622V12.7022L8.66669 10.5244L12.4445 12.7022V17.0622L8.66669 19.24ZM5.7778 16.5466L8.66669 18.2222L11.5556 16.5466V13.2177L8.66669 11.5555L5.7778 13.2177V16.5466Z" fill="#1A1A1A"/>
<path d="M15.3334 19.24L11.5557 17.0622V12.7022L15.3334 10.5244L19.1112 12.7022V17.0622L15.3334 19.24ZM12.4446 16.5466L15.3334 18.2222L18.2223 16.5466V13.2177L15.3334 11.5555L12.4446 13.2177V16.5466Z" fill="#1A1A1A"/>
<path d="M11.9999 13.4756L8.22217 11.2978V6.93779L11.9999 4.76001L15.7777 6.93779V11.2978L11.9999 13.4756ZM9.11106 10.7822L11.9999 12.4445L14.8888 10.7778V7.45334L11.9999 5.77779L9.11106 7.45334V10.7822Z" fill="#1A1A1A"/>
</g>
<defs>
<clipPath id="clip0_2351_253">
<rect width="16" height="16" fill="white" transform="translate(4 4)"/>
</clipPath>
</defs>
</svg>
