<svg width="24" height="24" viewBox="0 0 24 24" fill="none" xmlns="http://www.w3.org/2000/svg">
<rect width="24" height="24" rx="12" fill="#1A1A1A"/>
<g clip-path="url(#clip0_2351_239)">
<path d="M8.66645 19.24L4.88867 17.0622V12.7022L8.66645 10.5244L12.4442 12.7022V17.0622L8.66645 19.24ZM5.77756 16.5466L8.66645 18.2222L11.5553 16.5466V13.2177L8.66645 11.5555L5.77756 13.2177V16.5466Z" fill="white"/>
<path d="M15.3334 19.24L11.5557 17.0622V12.7022L15.3334 10.5244L19.1112 12.7022V17.0622L15.3334 19.24ZM12.4446 16.5466L15.3334 18.2222L18.2223 16.5466V13.2177L15.3334 11.5555L12.4446 13.2177V16.5466Z" fill="white"/>
<path d="M12.0004 13.4756L8.22266 11.2978V6.93779L12.0004 4.76001L15.7782 6.93779V11.2978L12.0004 13.4756ZM9.11155 10.7822L12.0004 12.4445L14.8893 10.7778V7.45334L12.0004 5.77779L9.11155 7.45334V10.7822Z" fill="white"/>
</g>
<defs>
<clipPath id="clip0_2351_239">
<rect width="16" height="16" fill="white" transform="translate(4 4)"/>
</clipPath>
</defs>
</svg>
