<svg width="24" height="24" viewBox="0 0 24 24" fill="none" xmlns="http://www.w3.org/2000/svg">
<rect width="24" height="24" rx="12" fill="#F8F8F8"/>
<path d="M12.0134 5.93994C9.80673 5.93994 8.01339 7.73327 8.01339 9.93994V11.8666C8.01339 12.2733 7.84006 12.8933 7.63339 13.2399L6.86673 14.5133C6.39339 15.2999 6.72006 16.1733 7.58673 16.4666C10.4601 17.4266 13.5601 17.4266 16.4334 16.4666C17.2401 16.1999 17.5934 15.2466 17.1534 14.5133L16.3867 13.2399C16.1867 12.8933 16.0134 12.2733 16.0134 11.8666V9.93994C16.0134 7.73994 14.2134 5.93994 12.0134 5.93994Z" stroke="#292D32" stroke-miterlimit="10" stroke-linecap="round"/>
<path d="M13.2465 6.13346C13.0398 6.07346 12.8265 6.02679 12.6065 6.00012C11.9665 5.92012 11.3531 5.96679 10.7798 6.13346C10.9731 5.64012 11.4531 5.29346 12.0131 5.29346C12.5731 5.29346 13.0531 5.64012 13.2465 6.13346Z" stroke="#292D32" stroke-miterlimit="10" stroke-linecap="round" stroke-linejoin="round"/>
<path d="M14.0132 16.7065C14.0132 17.8065 13.1132 18.7065 12.0132 18.7065C11.4665 18.7065 10.9598 18.4799 10.5998 18.1199C10.2398 17.7599 10.0132 17.2532 10.0132 16.7065" stroke="#292D32" stroke-miterlimit="10"/>
</svg>
