<svg width="24" height="24" viewBox="0 0 24 24" fill="none" xmlns="http://www.w3.org/2000/svg">
<g id="Group 1244830889">
<rect id="Rectangle 3314" width="24" height="24" rx="12" fill="#1A1A1A"/>
<g id="vuesax/linear/notification">
<g id="notification">
<path id="Vector" d="M12.0134 5.93994C9.80673 5.93994 8.01339 7.73327 8.01339 9.93994V11.8666C8.01339 12.2733 7.84006 12.8933 7.63339 13.2399L6.86673 14.5133C6.39339 15.2999 6.72006 16.1733 7.58673 16.4666C10.4601 17.4266 13.5601 17.4266 16.4334 16.4666C17.2401 16.1999 17.5934 15.2466 17.1534 14.5133L16.3867 13.2399C16.1867 12.8933 16.0134 12.2733 16.0134 11.8666V9.93994C16.0134 7.73994 14.2134 5.93994 12.0134 5.93994Z" stroke="white" stroke-miterlimit="10" stroke-linecap="round"/>
<path id="Vector_2" d="M13.246 6.13346C13.0393 6.07346 12.826 6.02679 12.606 6.00012C11.966 5.92012 11.3526 5.96679 10.7793 6.13346C10.9726 5.64012 11.4526 5.29346 12.0126 5.29346C12.5726 5.29346 13.0526 5.64012 13.246 6.13346Z" stroke="white" stroke-miterlimit="10" stroke-linecap="round" stroke-linejoin="round"/>
<path id="Vector_3" d="M14.0137 16.7065C14.0137 17.8065 13.1137 18.7065 12.0137 18.7065C11.467 18.7065 10.9603 18.4799 10.6003 18.1199C10.2403 17.7599 10.0137 17.2532 10.0137 16.7065" stroke="white" stroke-miterlimit="10"/>
</g>
</g>
</g>
</svg>
