<svg width="24" height="24" viewBox="0 0 24 24" fill="none" xmlns="http://www.w3.org/2000/svg">
<rect width="24" height="24" rx="12" fill="#F8F8F8"/>
<path d="M12.0002 18.6666C15.6821 18.6666 18.6668 15.6818 18.6668 11.9999C18.6668 8.31802 15.6821 5.33325 12.0002 5.33325C8.31826 5.33325 5.3335 8.31802 5.3335 11.9999C5.3335 15.6818 8.31826 18.6666 12.0002 18.6666Z" stroke="#1A1A1A" stroke-linecap="round" stroke-linejoin="round"/>
<path d="M9.33324 6H9.9999C8.6999 9.89333 8.6999 14.1067 9.9999 18H9.33324" stroke="#1A1A1A" stroke-linecap="round" stroke-linejoin="round"/>
<path d="M14 6C15.3 9.89333 15.3 14.1067 14 18" stroke="#1A1A1A" stroke-linecap="round" stroke-linejoin="round"/>
<path d="M6 14.6667V14C9.89333 15.3 14.1067 15.3 18 14V14.6667" stroke="#1A1A1A" stroke-linecap="round" stroke-linejoin="round"/>
<path d="M6 9.9999C9.89333 8.6999 14.1067 8.6999 18 9.9999" stroke="#1A1A1A" stroke-linecap="round" stroke-linejoin="round"/>
</svg>
