<svg width="24" height="24" viewBox="0 0 24 24" fill="none" xmlns="http://www.w3.org/2000/svg">
<g id="Group 1244830916">
<rect id="Rectangle 3329" width="24" height="24" rx="12" fill="#1A1A1A"/>
<g id="vuesax/linear/global">
<g id="global">
<path id="Vector" d="M12.0007 18.6666C15.6825 18.6666 18.6673 15.6818 18.6673 11.9999C18.6673 8.31802 15.6825 5.33325 12.0007 5.33325C8.31875 5.33325 5.33398 8.31802 5.33398 11.9999C5.33398 15.6818 8.31875 18.6666 12.0007 18.6666Z" stroke="white" stroke-linecap="round" stroke-linejoin="round"/>
<path id="Vector_2" d="M9.33372 6H10.0004C8.70039 9.89333 8.70039 14.1067 10.0004 18H9.33372" stroke="white" stroke-linecap="round" stroke-linejoin="round"/>
<path id="Vector_3" d="M14 6C15.3 9.89333 15.3 14.1067 14 18" stroke="white" stroke-linecap="round" stroke-linejoin="round"/>
<path id="Vector_4" d="M6 14.6667V14C9.89333 15.3 14.1067 15.3 18 14V14.6667" stroke="white" stroke-linecap="round" stroke-linejoin="round"/>
<path id="Vector_5" d="M6 9.9999C9.89333 8.6999 14.1067 8.6999 18 9.9999" stroke="white" stroke-linecap="round" stroke-linejoin="round"/>
</g>
</g>
</g>
</svg>
