<svg width="24" height="24" viewBox="0 0 24 24" fill="none" xmlns="http://www.w3.org/2000/svg">
<g id="Group 1244830921">
<rect id="Rectangle 3327" width="24" height="24" rx="12" fill="#1A1A1A"/>
<g id="vuesax/linear/scan">
<g id="scan">
<path id="Vector" d="M5.33398 9.99992V8.33325C5.33398 6.67325 6.67398 5.33325 8.33398 5.33325H10.0007" stroke="white" stroke-linecap="round" stroke-linejoin="round"/>
<path id="Vector_2" d="M14 5.33325H15.6667C17.3267 5.33325 18.6667 6.67325 18.6667 8.33325V9.99992" stroke="white" stroke-linecap="round" stroke-linejoin="round"/>
<path id="Vector_3" d="M18.666 14.6667V15.6667C18.666 17.3267 17.326 18.6667 15.666 18.6667H14.666" stroke="white" stroke-linecap="round" stroke-linejoin="round"/>
<path id="Vector_4" d="M10.0007 18.6667H8.33398C6.67398 18.6667 5.33398 17.3267 5.33398 15.6667V14" stroke="white" stroke-linecap="round" stroke-linejoin="round"/>
<path id="Vector_5" d="M15.3327 10.3333V13.6666C15.3327 14.9999 14.666 15.6666 13.3327 15.6666H10.666C9.33268 15.6666 8.66602 14.9999 8.66602 13.6666V10.3333C8.66602 8.99992 9.33268 8.33325 10.666 8.33325H13.3327C14.666 8.33325 15.3327 8.99992 15.3327 10.3333Z" stroke="white" stroke-linecap="round" stroke-linejoin="round"/>
<path id="Vector_6" d="M16.6673 12H7.33398" stroke="white" stroke-linecap="round" stroke-linejoin="round"/>
</g>
</g>
</g>
</svg>
