<svg width="24" height="24" viewBox="0 0 24 24" fill="none" xmlns="http://www.w3.org/2000/svg">
<g id="Group 1244830920">
<rect id="Rectangle 3318" width="24" height="24" rx="12" fill="#1A1A1A"/>
<g id="vuesax/linear/key">
<g id="key">
<path id="Vector" d="M17.1938 13.9534C15.8204 15.32 13.8538 15.74 12.1271 15.2L8.98709 18.3334C8.76042 18.5667 8.31376 18.7067 7.99376 18.66L6.54042 18.46C6.06042 18.3934 5.61376 17.94 5.54042 17.46L5.34042 16.0067C5.29376 15.6867 5.44709 15.24 5.66709 15.0134L8.80042 11.88C8.26709 10.1467 8.68042 8.18005 10.0538 6.81338C12.0204 4.84671 15.2138 4.84671 17.1871 6.81338C19.1604 8.78005 19.1604 11.9867 17.1938 13.9534Z" stroke="white" stroke-miterlimit="10" stroke-linecap="round" stroke-linejoin="round"/>
<path id="Vector_2" d="M8.59375 15.6599L10.1271 17.1932" stroke="white" stroke-miterlimit="10" stroke-linecap="round" stroke-linejoin="round"/>
<path id="Vector_3" d="M13.666 11.3333C14.2183 11.3333 14.666 10.8855 14.666 10.3333C14.666 9.78097 14.2183 9.33325 13.666 9.33325C13.1137 9.33325 12.666 9.78097 12.666 10.3333C12.666 10.8855 13.1137 11.3333 13.666 11.3333Z" stroke="white" stroke-linecap="round" stroke-linejoin="round"/>
</g>
</g>
</g>
</svg>
