<svg width="24" height="24" viewBox="0 0 24 24" fill="none" xmlns="http://www.w3.org/2000/svg">
<rect width="24" height="24" rx="12" fill="#F8F8F8"/>
<path d="M17.1933 13.9534C15.8199 15.32 13.8533 15.74 12.1266 15.2L8.9866 18.3334C8.75993 18.5667 8.31327 18.7067 7.99327 18.66L6.53993 18.46C6.05993 18.3934 5.61327 17.94 5.53993 17.46L5.33993 16.0067C5.29327 15.6867 5.4466 15.24 5.6666 15.0134L8.79993 11.88C8.2666 10.1467 8.67993 8.18005 10.0533 6.81338C12.0199 4.84671 15.2133 4.84671 17.1866 6.81338C19.1599 8.78005 19.1599 11.9867 17.1933 13.9534Z" stroke="#292D32" stroke-miterlimit="10" stroke-linecap="round" stroke-linejoin="round"/>
<path d="M8.59326 15.6599L10.1266 17.1932" stroke="#292D32" stroke-miterlimit="10" stroke-linecap="round" stroke-linejoin="round"/>
<path d="M13.6665 11.3333C14.2188 11.3333 14.6665 10.8855 14.6665 10.3333C14.6665 9.78097 14.2188 9.33325 13.6665 9.33325C13.1142 9.33325 12.6665 9.78097 12.6665 10.3333C12.6665 10.8855 13.1142 11.3333 13.6665 11.3333Z" stroke="#292D32" stroke-linecap="round" stroke-linejoin="round"/>
</svg>
