<svg width="173" height="172" viewBox="0 0 173 172" fill="none" xmlns="http://www.w3.org/2000/svg">
<rect x="3.5" y="3" width="166" height="166" rx="83" fill="white"/>
<rect x="3.5" y="3" width="166" height="166" rx="83" stroke="#CCCCCC" stroke-width="6"/>
<path d="M89.503 54.7836L122.535 113.649C122.84 114.191 123 114.806 123 115.432C123 116.059 122.84 116.674 122.535 117.216C122.231 117.759 121.793 118.209 121.266 118.522C120.739 118.835 120.141 119 119.532 119H53.4675C52.8588 119 52.2609 118.835 51.7337 118.522C51.2066 118.209 50.7689 117.759 50.4645 117.216C50.1602 116.674 50 116.059 50 115.432C50 114.806 50.1602 114.191 50.4646 113.649L83.4971 54.7836C83.8014 54.2413 84.2391 53.791 84.7663 53.4779C85.2934 53.1648 85.8913 53 86.5 53C87.1087 53 87.7066 53.1648 88.2337 53.4779C88.7609 53.791 89.1986 54.2413 89.503 54.7836ZM83.0324 101.162V108.297H89.9676V101.162H83.0324ZM83.0324 76.1891V94.027H89.9676V76.1891H83.0324Z" fill="black"/>
</svg>
