<svg width="19" height="18" viewBox="0 0 19 18" fill="none" xmlns="http://www.w3.org/2000/svg">
<path d="M4.50024 16.2125C4.50024 16.0037 4.58321 15.8034 4.7309 15.6557C4.87858 15.508 5.07889 15.425 5.28774 15.425L14.2127 15.425C14.4216 15.425 14.6219 15.508 14.7696 15.6557C14.9173 15.8034 15.0002 16.0037 15.0002 16.2125C15.0002 16.4214 14.9173 16.6217 14.7696 16.7694C14.6219 16.917 14.4216 17 14.2127 17L5.28774 17C5.07889 17 4.87858 16.917 4.7309 16.7694C4.58321 16.6217 4.50024 16.4214 4.50024 16.2125ZM5.25624 7.31918C5.10877 7.17153 5.02594 6.97138 5.02594 6.76269C5.02594 6.55401 5.10877 6.35386 5.25624 6.20621L8.93124 2.53127C9.0789 2.3838 9.27906 2.30097 9.48774 2.30097C9.69643 2.30097 9.89659 2.3838 10.0442 2.53127L13.7192 6.2062C13.7966 6.2783 13.8587 6.36524 13.9017 6.46183C13.9448 6.55843 13.9679 6.66271 13.9698 6.76845C13.9716 6.87418 13.9522 6.97921 13.9126 7.07727C13.873 7.17532 13.814 7.26439 13.7392 7.33917C13.6645 7.41395 13.5754 7.4729 13.4773 7.51251C13.3793 7.55211 13.2742 7.57157 13.1685 7.5697C13.0628 7.56783 12.9585 7.54469 12.8619 7.50165C12.7653 7.45861 12.6783 7.39655 12.6062 7.31918L10.2752 4.98823L10.2752 13.0626C10.2752 13.2714 10.1923 13.4717 10.0446 13.6194C9.89691 13.7671 9.6966 13.8501 9.48774 13.8501C9.27889 13.8501 9.07858 13.7671 8.9309 13.6194C8.78321 13.4717 8.70024 13.2714 8.70024 13.0626L8.70024 4.98823L6.36924 7.31918C6.22159 7.46665 6.02143 7.54949 5.81274 7.54949C5.60406 7.54949 5.4039 7.46665 5.25624 7.31918Z" fill="#AF45EE"/>
</svg>
