<svg width="19" height="18" viewBox="0 0 19 18" fill="none" xmlns="http://www.w3.org/2000/svg">
<path d="M14.6665 1.78749C14.6665 1.99634 14.5835 2.19664 14.4359 2.34432C14.2882 2.492 14.0879 2.57497 13.879 2.57497L4.954 2.57497C4.74515 2.57497 4.54484 2.492 4.39716 2.34432C4.24947 2.19664 4.1665 1.99634 4.1665 1.78749C4.1665 1.57863 4.24947 1.37833 4.39716 1.23065C4.54484 1.08297 4.74515 1 4.954 1L13.879 1C14.0879 1 14.2882 1.08297 14.4359 1.23065C14.5835 1.37833 14.6665 1.57863 14.6665 1.78749ZM13.9105 10.6808C14.058 10.8285 14.1408 11.0286 14.1408 11.2373C14.1408 11.446 14.058 11.6461 13.9105 11.7938L10.2355 15.4687C10.0878 15.6162 9.88769 15.699 9.679 15.699C9.47032 15.699 9.27016 15.6162 9.1225 15.4687L5.44751 11.7938C5.37013 11.7217 5.30808 11.6348 5.26503 11.5382C5.22199 11.4416 5.19885 11.3373 5.19698 11.2316C5.19512 11.1258 5.21457 11.0208 5.25418 10.9227C5.29378 10.8247 5.35273 10.7356 5.42751 10.6608C5.50229 10.586 5.59137 10.5271 5.68943 10.4875C5.78748 10.4479 5.89251 10.4284 5.99825 10.4303C6.10399 10.4322 6.20827 10.4553 6.30487 10.4983C6.40147 10.5414 6.48841 10.6034 6.5605 10.6808L8.8915 13.0118L8.8915 4.93743C8.8915 4.72857 8.97447 4.52827 9.12216 4.38059C9.26984 4.23291 9.47015 4.14994 9.679 4.14994C9.88786 4.14994 10.0882 4.23291 10.2359 4.38059C10.3835 4.52827 10.4665 4.72857 10.4665 4.93743L10.4665 13.0118L12.7975 10.6808C12.9452 10.5333 13.1453 10.4505 13.354 10.4505C13.5627 10.4505 13.7628 10.5333 13.9105 10.6808Z" fill="#AF45EE"/>
</svg>
