<svg width="11" height="14" viewBox="0 0 11 14" fill="none" xmlns="http://www.w3.org/2000/svg">
<path id="Vector" d="M0.749664 13.25C0.749664 13.051 0.828687 12.8603 0.969349 12.7196C1.11001 12.579 1.30079 12.4999 1.49971 12.4999L10.0003 12.4999C10.1992 12.4999 10.39 12.579 10.5306 12.7196C10.6713 12.8603 10.7503 13.051 10.7503 13.25C10.7503 13.4489 10.6713 13.6397 10.5306 13.7803C10.39 13.921 10.1992 14 10.0003 14L1.49971 14C1.30079 14 1.11001 13.921 0.969349 13.7803C0.828687 13.6397 0.749664 13.4489 0.749664 13.25ZM1.46971 4.77957C1.32925 4.63893 1.25036 4.4483 1.25036 4.24954C1.25036 4.05078 1.32925 3.86015 1.46971 3.71952L4.96994 0.219351C5.11058 0.0788943 5.30121 6.55248e-07 5.49998 6.42216e-07C5.69874 6.29184e-07 5.88938 0.0788943 6.03001 0.219351L9.53024 3.71952C9.60393 3.78818 9.66304 3.87099 9.70404 3.96299C9.74503 4.05499 9.76707 4.15431 9.76885 4.25502C9.77063 4.35573 9.7521 4.45576 9.71438 4.54915C9.67666 4.64255 9.62051 4.72738 9.54928 4.7986C9.47806 4.86983 9.39322 4.92597 9.29983 4.9637C9.20643 5.00142 9.1064 5.01995 9.00569 5.01817C8.90498 5.01639 8.80566 4.99435 8.71365 4.95335C8.62165 4.91236 8.53884 4.85326 8.47017 4.77957L6.25003 2.55946L6.25003 10.2498C6.25003 10.4487 6.171 10.6395 6.03034 10.7802C5.88968 10.9208 5.6989 10.9999 5.49998 10.9999C5.30105 10.9999 5.11027 10.9208 4.96961 10.7802C4.82895 10.6395 4.74993 10.4487 4.74993 10.2498L4.74993 2.55946L2.52978 4.77957C2.38915 4.92002 2.19851 4.99892 1.99975 4.99892C1.80098 4.99892 1.61035 4.92002 1.46971 4.77957Z" fill="#222222"/>
</svg>
