<svg width="19" height="18" viewBox="0 0 19 18" fill="none" xmlns="http://www.w3.org/2000/svg">
<path d="M12.8484 8.60085C12.7534 8.60085 12.6584 8.56583 12.5834 8.49083C12.4384 8.34583 12.4384 8.10583 12.5834 7.96083L14.1784 6.36583L12.5834 4.77083C12.4384 4.62583 12.4384 4.38583 12.5834 4.24083C12.7284 4.09583 12.9684 4.09583 13.1134 4.24083L14.9734 6.10085C15.0434 6.17085 15.0834 6.26583 15.0834 6.36583C15.0834 6.46583 15.0434 6.56084 14.9734 6.63084L13.1134 8.49083C13.0384 8.56083 12.9434 8.60085 12.8484 8.60085Z" fill="#1DDD94"/>
<path d="M14.7085 6.73999H5.7085C5.5035 6.73999 5.3335 6.56999 5.3335 6.36499C5.3335 6.15999 5.5035 5.98999 5.7085 5.98999H14.7085C14.9135 5.98999 15.0835 6.15999 15.0835 6.36499C15.0835 6.56999 14.9135 6.73999 14.7085 6.73999Z" fill="#1DDD94"/>
<path d="M7.56848 13.8752C7.47348 13.8752 7.3785 13.8402 7.3035 13.7652L5.44348 11.9052C5.37348 11.8352 5.3335 11.7402 5.3335 11.6402C5.3335 11.5402 5.37348 11.4452 5.44348 11.3752L7.3035 9.51524C7.4485 9.37024 7.6885 9.37024 7.8335 9.51524C7.9785 9.66024 7.9785 9.90024 7.8335 10.0452L6.23849 11.6402L7.8335 13.2352C7.9785 13.3802 7.9785 13.6202 7.8335 13.7652C7.7635 13.8402 7.66848 13.8752 7.56848 13.8752Z" fill="#1DDD94"/>
<path d="M14.7085 12.01H5.7085C5.5035 12.01 5.3335 11.84 5.3335 11.635C5.3335 11.43 5.5035 11.26 5.7085 11.26H14.7085C14.9135 11.26 15.0835 11.43 15.0835 11.635C15.0835 11.84 14.9135 12.01 14.7085 12.01Z" fill="#1DDD94"/>
</svg>
