<svg width="11" height="14" viewBox="0 0 11 14" fill="none" xmlns="http://www.w3.org/2000/svg">
<path id="Vector" d="M0.749756 13.25C0.749756 13.051 0.828779 12.8603 0.96944 12.7196C1.1101 12.579 1.30088 12.4999 1.49981 12.4999L10.0004 12.4999C10.1993 12.4999 10.3901 12.579 10.5307 12.7196C10.6714 12.8603 10.7504 13.051 10.7504 13.25C10.7504 13.4489 10.6714 13.6397 10.5307 13.7803C10.3901 13.921 10.1993 14 10.0004 14L1.49981 14C1.30088 14 1.1101 13.921 0.96944 13.7803C0.828779 13.6397 0.749756 13.4489 0.749756 13.25ZM1.4698 4.77957C1.32934 4.63893 1.25045 4.4483 1.25045 4.24954C1.25045 4.05078 1.32934 3.86015 1.4698 3.71952L4.97003 0.219351C5.11067 0.0788943 5.30131 6.55248e-07 5.50007 6.42216e-07C5.69883 6.29184e-07 5.88947 0.0788943 6.0301 0.219351L9.53034 3.71952C9.60403 3.78818 9.66313 3.87099 9.70413 3.96299C9.74512 4.05499 9.76717 4.15431 9.76894 4.25502C9.77072 4.35573 9.75219 4.45576 9.71447 4.54915C9.67675 4.64255 9.6206 4.72738 9.54937 4.7986C9.47815 4.86983 9.39331 4.92597 9.29992 4.9637C9.20652 5.00142 9.10649 5.01995 9.00578 5.01817C8.90507 5.01639 8.80575 4.99435 8.71374 4.95335C8.62174 4.91236 8.53893 4.85326 8.47027 4.77957L6.25012 2.55946L6.25012 10.2498C6.25012 10.4487 6.1711 10.6395 6.03043 10.7802C5.88977 10.9208 5.699 10.9999 5.50007 10.9999C5.30114 10.9999 5.11037 10.9208 4.9697 10.7802C4.82904 10.6395 4.75002 10.4487 4.75002 10.2498L4.75002 2.55946L2.52987 4.77957C2.38924 4.92002 2.1986 4.99892 1.99984 4.99892C1.80107 4.99892 1.61044 4.92002 1.4698 4.77957Z" fill="white"/>
</svg>
