<svg width="11" height="14" viewBox="0 0 11 14" fill="none" xmlns="http://www.w3.org/2000/svg">
<path id="Vector" d="M0.249664 0.750035C0.249664 0.948957 0.328687 1.13973 0.469349 1.28039C0.61001 1.42105 0.800788 1.50007 0.999714 1.50007L9.50028 1.50007C9.6992 1.50007 9.88998 1.42105 10.0306 1.28039C10.1713 1.13973 10.2503 0.948958 10.2503 0.750036C10.2503 0.551114 10.1713 0.36034 10.0306 0.219681C9.88998 0.079022 9.6992 6.22531e-07 9.50028 6.06524e-07L0.999714 4.91776e-08C0.800788 3.61349e-08 0.61001 0.0790214 0.469349 0.21968C0.328687 0.360339 0.249664 0.551114 0.249664 0.750035ZM0.969712 9.22043C0.829252 9.36107 0.750357 9.5517 0.750357 9.75046C0.750357 9.94922 0.829252 10.1399 0.969712 10.2805L4.46994 13.7806C4.61058 13.9211 4.80121 14 4.99998 14C5.19874 14 5.38938 13.9211 5.53001 13.7806L9.03024 10.2805C9.10393 10.2118 9.16304 10.129 9.20404 10.037C9.24503 9.94501 9.26707 9.84569 9.26885 9.74498C9.27063 9.64427 9.2521 9.54424 9.21438 9.45085C9.17666 9.35745 9.12051 9.27262 9.04928 9.2014C8.97806 9.13017 8.89322 9.07403 8.79983 9.0363C8.70643 8.99858 8.6064 8.98005 8.50569 8.98183C8.40498 8.98361 8.30566 9.00565 8.21365 9.04665C8.12165 9.08764 8.03884 9.14674 7.97017 9.22043L5.75003 11.4405L5.75003 3.75018C5.75003 3.55126 5.671 3.36048 5.53034 3.21982C5.38968 3.07916 5.1989 3.00014 4.99998 3.00014C4.80105 3.00014 4.61027 3.07916 4.46961 3.21982C4.32895 3.36048 4.24993 3.55126 4.24993 3.75018L4.24993 11.4405L2.02978 9.22043C1.88915 9.07998 1.69851 9.00108 1.49975 9.00108C1.30098 9.00108 1.11035 9.07998 0.969712 9.22043Z" fill="#03F982"/>
</svg>
