<svg width="11" height="14" viewBox="0 0 11 14" fill="none" xmlns="http://www.w3.org/2000/svg">
<path id="Vector" d="M0.249756 0.750035C0.249756 0.948957 0.328779 1.13973 0.46944 1.28039C0.610102 1.42105 0.80088 1.50007 0.999805 1.50007L9.50037 1.50007C9.69929 1.50007 9.89007 1.42105 10.0307 1.28039C10.1714 1.13973 10.2504 0.948958 10.2504 0.750036C10.2504 0.551114 10.1714 0.36034 10.0307 0.219681C9.89007 0.079022 9.69929 6.22531e-07 9.50037 6.06524e-07L0.999805 4.91776e-08C0.80088 3.61349e-08 0.610102 0.0790214 0.46944 0.21968C0.328779 0.360339 0.249756 0.551114 0.249756 0.750035ZM0.969803 9.22043C0.829343 9.36107 0.750449 9.5517 0.750449 9.75046C0.750449 9.94922 0.829343 10.1399 0.969803 10.2805L4.47003 13.7806C4.61067 13.9211 4.80131 14 5.00007 14C5.19883 14 5.38947 13.9211 5.5301 13.7806L9.03034 10.2805C9.10403 10.2118 9.16313 10.129 9.20413 10.037C9.24512 9.94501 9.26717 9.84569 9.26894 9.74498C9.27072 9.64427 9.25219 9.54424 9.21447 9.45085C9.17675 9.35745 9.1206 9.27262 9.04937 9.2014C8.97815 9.13017 8.89331 9.07403 8.79992 9.0363C8.70652 8.99858 8.60649 8.98005 8.50578 8.98183C8.40507 8.98361 8.30575 9.00565 8.21374 9.04665C8.12174 9.08764 8.03893 9.14674 7.97027 9.22043L5.75012 11.4405L5.75012 3.75018C5.75012 3.55126 5.6711 3.36048 5.53043 3.21982C5.38977 3.07916 5.199 3.00014 5.00007 3.00014C4.80114 3.00014 4.61037 3.07916 4.4697 3.21982C4.32904 3.36048 4.25002 3.55126 4.25002 3.75018L4.25002 11.4405L2.02987 9.22043C1.88924 9.07998 1.6986 9.00108 1.49984 9.00108C1.30107 9.00108 1.11044 9.07998 0.969803 9.22043Z" fill="#AF45EE"/>
</svg>
