<svg width="16" height="16" viewBox="0 0 16 16" fill="none" xmlns="http://www.w3.org/2000/svg">
<path fill-rule="evenodd" clip-rule="evenodd" d="M-8.39233e-05 0.794172C-8.39233e-05 0.355563 0.357643 0 0.798921 0H7.98997C8.43125 0 8.78897 0.355563 8.78897 0.794172V10.3242C8.78897 10.7628 8.43125 11.1184 7.98997 11.1184H0.798921C0.357643 11.1184 -8.39233e-05 10.7628 -8.39233e-05 10.3242V0.794172ZM1.59793 1.58834V9.53007H7.19096V1.58834H1.59793Z" fill="white"/>
<path fill-rule="evenodd" clip-rule="evenodd" d="M10.4145 4.16058C10.5299 3.73721 10.9686 3.48691 11.3946 3.60152L14.6095 4.4666C15.0347 4.58101 15.2865 5.01584 15.1725 5.43873L12.4841 15.4112C12.3699 15.8348 11.9318 16.0863 11.5055 15.9727L5.38596 14.3429C4.95971 14.2294 4.70676 13.7939 4.82098 13.3703C4.93519 12.9466 5.37331 12.6952 5.79955 12.8087L11.1474 14.233L13.4227 5.79277L10.977 5.13468C10.551 5.02007 10.2992 4.58394 10.4145 4.16058Z" fill="white"/>
</svg>
