<svg width="20" height="20" viewBox="0 0 20 20" fill="none" xmlns="http://www.w3.org/2000/svg">
<g id="Icons">
<g id="Shape">
<path fill-rule="evenodd" clip-rule="evenodd" d="M3.3335 4.41181C3.3335 4.0463 3.6316 3.75 3.99933 3.75H9.99187C10.3596 3.75 10.6577 4.0463 10.6577 4.41181V12.3535C10.6577 12.719 10.3596 13.0153 9.99187 13.0153H3.99933C3.6316 13.0153 3.3335 12.719 3.3335 12.3535V4.41181ZM4.66517 5.07362V11.6917H9.32603V5.07362H4.66517Z" fill="#1A1A1A"/>
<path fill-rule="evenodd" clip-rule="evenodd" d="M12.0124 7.21715C12.1084 6.86434 12.4741 6.65576 12.829 6.75127L15.5082 7.47217C15.8625 7.56751 16.0723 7.92986 15.9773 8.28227L13.737 16.5926C13.6418 16.9457 13.2767 17.1552 12.9215 17.0606L7.82186 15.7024C7.46666 15.6078 7.25587 15.2449 7.35105 14.8919C7.44622 14.5388 7.81132 14.3293 8.16653 14.4239L12.623 15.6108L14.5191 8.57731L12.4811 8.0289C12.1261 7.93339 11.9163 7.56995 12.0124 7.21715Z" fill="#1A1A1A"/>
</g>
</g>
</svg>
