<svg width="150" height="150" viewBox="0 0 150 150" fill="none" xmlns="http://www.w3.org/2000/svg">
<path d="M10 20.8333C10 17.9602 11.1414 15.2047 13.173 13.173C15.2047 11.1414 17.9602 10 20.8333 10H42.5V20.8333H20.8333V42.5H10V20.8333ZM140 129.167C140 132.04 138.859 134.795 136.827 136.827C134.795 138.859 132.04 140 129.167 140H107.5V129.167H129.167V107.5H140V129.167ZM20.8333 140C17.9602 140 15.2047 138.859 13.173 136.827C11.1414 134.795 10 132.04 10 129.167V107.5H20.8333V129.167H42.5V140H20.8333ZM129.167 10C132.04 10 134.795 11.1414 136.827 13.173C138.859 15.2047 140 17.9602 140 20.8333V42.5H129.167V20.8333H107.5V10H129.167Z" fill="url(#paint0_linear_37_668)"/>
<path d="M99.2084 43.625C98.8751 43.625 98.5417 43.5417 98.2501 43.375C90.2501 39.25 83.3334 37.5 75.0417 37.5C66.7917 37.5 58.9584 39.4584 51.8334 43.375C50.8334 43.9167 49.5834 43.5417 49.0001 42.5417C48.7402 42.0544 48.6819 41.4846 48.8378 40.9548C48.9936 40.4249 49.3511 39.9774 49.8334 39.7084C57.5834 35.5 66.0834 33.3334 75.0417 33.3334C83.9168 33.3334 91.6668 35.2917 100.167 39.6667C101.208 40.2084 101.583 41.4584 101.042 42.4584C100.877 42.8057 100.618 43.0995 100.293 43.3059C99.9689 43.5123 99.5928 43.6229 99.2084 43.625ZM39.5834 65.5C39.1993 65.5036 38.8218 65.4007 38.4926 65.2028C38.1634 65.0049 37.8955 64.7196 37.7186 64.3787C37.5417 64.0378 37.4626 63.6545 37.4902 63.2714C37.5179 62.8883 37.6511 62.5204 37.8751 62.2084C42.0001 56.375 47.2501 51.7917 53.5001 48.5834C66.5834 41.8334 83.3334 41.7917 96.4584 48.5417C102.708 51.75 107.958 56.2917 112.083 62.0834C112.243 62.3073 112.357 62.5607 112.419 62.8288C112.48 63.097 112.488 63.3747 112.441 63.6459C112.395 63.9171 112.295 64.1764 112.148 64.4088C112.001 64.6412 111.809 64.8422 111.583 65C110.625 65.6667 109.333 65.4584 108.667 64.5C105.018 59.3349 100.171 55.1315 94.5418 52.25C82.5834 46.125 67.2917 46.125 55.3751 52.2917C49.7084 55.2084 44.9584 59.375 41.2084 64.625C40.8751 65.2084 40.2501 65.5 39.5834 65.5ZM65.6251 115.792C65.3518 115.795 65.0809 115.741 64.8298 115.634C64.5786 115.526 64.3528 115.367 64.1667 115.167C60.5417 111.542 58.5834 109.208 55.7917 104.167C52.9167 99.0417 51.4167 92.7917 51.4167 86.0834C51.4167 73.7084 62.0001 63.625 75.0001 63.625C88.0001 63.625 98.5834 73.7084 98.5834 86.0834C98.5834 87.25 97.6667 88.1667 96.5001 88.1667C95.3334 88.1667 94.4167 87.25 94.4167 86.0834C94.4167 76 85.7084 67.7917 75.0001 67.7917C64.2917 67.7917 55.5834 76 55.5834 86.0834C55.5834 92.0834 56.9167 97.625 59.4584 102.125C62.1251 106.917 63.9584 108.958 67.1667 112.208C67.9584 113.042 67.9584 114.333 67.1667 115.167C66.7084 115.583 66.1667 115.792 65.6251 115.792ZM95.5001 108.083C90.5417 108.083 86.1667 106.833 82.5834 104.375C76.3751 100.167 72.6667 93.3334 72.6667 86.0834C72.6667 84.9167 73.5834 84 74.7501 84C75.9167 84 76.8334 84.9167 76.8334 86.0834C76.8334 91.9584 79.8334 97.5 84.9167 100.917C87.8751 102.917 91.3334 103.875 95.5001 103.875C96.5001 103.875 98.1667 103.75 99.8334 103.458C100.958 103.25 102.042 104 102.25 105.167C102.458 106.292 101.708 107.375 100.542 107.583C98.1667 108.042 96.0834 108.083 95.5001 108.083ZM87.1251 116.667C86.9584 116.667 86.7501 116.625 86.5834 116.583C79.9584 114.75 75.6251 112.292 71.0834 107.833C68.2054 104.992 65.9233 101.604 64.3708 97.8695C62.8182 94.1348 62.0264 90.1279 62.0417 86.0834C62.0417 79.3334 67.7917 73.8334 74.8751 73.8334C81.9584 73.8334 87.7084 79.3334 87.7084 86.0834C87.7084 90.5417 91.5834 94.1667 96.3751 94.1667C101.167 94.1667 105.042 90.5417 105.042 86.0834C105.042 70.375 91.5001 57.625 74.8334 57.625C63.0001 57.625 52.1667 64.2084 47.2917 74.4167C45.6667 77.7917 44.8334 81.75 44.8334 86.0834C44.8334 89.3334 45.1251 94.4584 47.6251 101.125C48.0417 102.208 47.5001 103.417 46.4167 103.792C45.3334 104.208 44.1251 103.625 43.7501 102.583C41.7423 97.3138 40.7116 91.7225 40.7084 86.0834C40.7084 81.0834 41.6667 76.5417 43.5417 72.5834C49.0834 60.9584 61.3751 53.4167 74.8334 53.4167C93.7918 53.4167 109.208 68.0417 109.208 86.0417C109.208 92.7917 103.458 98.2917 96.3751 98.2917C89.2917 98.2917 83.5417 92.7917 83.5417 86.0417C83.5417 81.5834 79.6667 77.9584 74.8751 77.9584C70.0834 77.9584 66.2084 81.5834 66.2084 86.0417C66.2084 93.1667 68.9584 99.8334 74.0001 104.833C77.9584 108.75 81.7501 110.917 87.6251 112.542C88.7501 112.833 89.3751 114 89.0834 115.083C88.8751 116.042 88.0001 116.667 87.1251 116.667Z" fill="url(#paint1_linear_37_668)"/>
<defs>
<linearGradient id="paint0_linear_37_668" x1="-0.337692" y1="74.4445" x2="160.109" y2="74.4445" gradientUnits="userSpaceOnUse">
<stop stop-color="#03F982"/>
<stop offset="0.228829" stop-color="#37C3A6"/>
<stop offset="0.560256" stop-color="#8572DB"/>
<stop offset="1" stop-color="#AF45EE"/>
</linearGradient>
<linearGradient id="paint1_linear_37_668" x1="31.5219" y1="74.6439" x2="124.07" y2="74.6439" gradientUnits="userSpaceOnUse">
<stop stop-color="#03F982"/>
<stop offset="0.228829" stop-color="#37C3A6"/>
<stop offset="0.560256" stop-color="#8572DB"/>
<stop offset="1" stop-color="#AF45EE"/>
</linearGradient>
</defs>
</svg>
