<svg width="31" height="28" viewBox="0 0 31 28" fill="none" xmlns="http://www.w3.org/2000/svg">
<path d="M26.3332 17.6256L26.3477 17.6097M29.9443 14.8667V26.1333C29.9443 26.2471 29.9219 26.3598 29.8784 26.465C29.8348 26.5701 29.771 26.6657 29.6905 26.7462C29.61 26.8266 29.5145 26.8905 29.4093 26.934C29.3042 26.9776 29.1915 27 29.0777 27H17.811C17.5811 27 17.3607 26.9087 17.1982 26.7462C17.0356 26.5836 16.9443 26.3632 16.9443 26.1333V14.8667C16.9443 14.6368 17.0356 14.4164 17.1982 14.2538C17.3607 14.0913 17.5811 14 17.811 14H29.0777C29.1915 14 29.3042 14.0224 29.4093 14.066C29.5145 14.1095 29.61 14.1734 29.6905 14.2538C29.771 14.3343 29.8348 14.4299 29.8784 14.535C29.9219 14.6402 29.9443 14.7529 29.9443 14.8667Z" stroke="#1A1A1A" stroke-width="2" stroke-linecap="round" stroke-linejoin="round"/>
<path d="M16.9446 22.9556L22.0001 21.2222L29.9446 24.1111M1.05566 11.1111V1.86667C1.05566 1.63681 1.14697 1.41637 1.3095 1.25384C1.47204 1.09131 1.69248 1 1.92233 1H10.8461C11.0527 0.999984 11.2525 1.07375 11.4094 1.208L15.9797 5.12533C16.1367 5.25959 16.3364 5.33335 16.543 5.33333H29.0779C29.1917 5.33333 29.3044 5.35575 29.4095 5.39931C29.5147 5.44286 29.6102 5.5067 29.6907 5.58717C29.7712 5.66765 29.835 5.76319 29.8786 5.86834C29.9221 5.97349 29.9446 6.08619 29.9446 6.2V9.66667M1.05566 11.1111V23.2444C1.05566 23.4743 1.14697 23.6947 1.3095 23.8573C1.47204 24.0198 1.69248 24.1111 1.92233 24.1111H12.6112M1.05566 11.1111H12.6112" stroke="#1A1A1A" stroke-width="2" stroke-linecap="round" stroke-linejoin="round"/>
</svg>
