<svg width="31" height="28" viewBox="0 0 31 28" fill="none" xmlns="http://www.w3.org/2000/svg">
<path d="M26.3331 17.6256L26.3475 17.6097M29.9442 14.8667V26.1333C29.9442 26.2471 29.9218 26.3598 29.8782 26.465C29.8347 26.5701 29.7709 26.6657 29.6904 26.7462C29.6099 26.8266 29.5144 26.8905 29.4092 26.934C29.3041 26.9776 29.1914 27 29.0775 27H17.8109C17.581 27 17.3606 26.9087 17.1981 26.7462C17.0355 26.5836 16.9442 26.3632 16.9442 26.1333V14.8667C16.9442 14.6368 17.0355 14.4164 17.1981 14.2538C17.3606 14.0913 17.581 14 17.8109 14H29.0775C29.1914 14 29.3041 14.0224 29.4092 14.066C29.5144 14.1095 29.6099 14.1734 29.6904 14.2538C29.7709 14.3343 29.8347 14.4299 29.8782 14.535C29.9218 14.6402 29.9442 14.7529 29.9442 14.8667Z" stroke="white" stroke-width="2" stroke-linecap="round" stroke-linejoin="round"/>
<path d="M16.9444 22.9556L22 21.2222L29.9444 24.1111M1.05554 11.1111V1.86667C1.05554 1.63681 1.14685 1.41637 1.30938 1.25384C1.47191 1.09131 1.69235 1 1.92221 1H10.846C11.0526 0.999984 11.2523 1.07375 11.4093 1.208L15.9795 5.12533C16.1365 5.25959 16.3363 5.33335 16.5429 5.33333H29.0778C29.1916 5.33333 29.3043 5.35575 29.4094 5.39931C29.5146 5.44286 29.6101 5.5067 29.6906 5.58717C29.7711 5.66765 29.8349 5.76319 29.8785 5.86834C29.922 5.97349 29.9444 6.08619 29.9444 6.2V9.66667M1.05554 11.1111V23.2444C1.05554 23.4743 1.14685 23.6947 1.30938 23.8573C1.47191 24.0198 1.69235 24.1111 1.92221 24.1111H12.6111M1.05554 11.1111H12.6111" stroke="white" stroke-width="2" stroke-linecap="round" stroke-linejoin="round"/>
</svg>
