<svg width="64" height="64" viewBox="0 0 64 64" fill="none" xmlns="http://www.w3.org/2000/svg">
<path d="M23.3896 5.19012C28.9028 2.90651 35.0972 2.90651 40.6104 5.19012L44.869 6.9541C50.3821 9.23771 54.7623 13.6179 57.0459 19.131L58.8099 23.3896C61.0935 28.9028 61.0935 35.0972 58.8099 40.6104L57.0459 44.869C54.7623 50.3821 50.3821 54.7623 44.869 57.0459L40.6104 58.8099C35.0972 61.0935 28.9028 61.0935 23.3896 58.8099L19.131 57.0459C13.6179 54.7623 9.23771 50.3821 6.9541 44.869L5.19012 40.6104C2.90651 35.0972 2.90651 28.9028 5.19012 23.3896L6.9541 19.131C9.23772 13.6179 13.6179 9.23771 19.131 6.9541L23.3896 5.19012Z" fill="#8E42D1" stroke="#03F982" stroke-width="3"/>
<path fill-rule="evenodd" clip-rule="evenodd" d="M39.6034 24.2432C39.9617 23.8881 40.4454 23.6882 40.9498 23.6868C41.4543 23.6854 41.939 23.8826 42.2993 24.2358C42.6595 24.589 42.8662 25.0697 42.8748 25.5741C42.8834 26.0785 42.6932 26.566 42.3452 26.9312L32.1257 39.7056C31.95 39.8948 31.738 40.0466 31.5024 40.152C31.2667 40.2574 31.0123 40.3142 30.7542 40.319C30.4961 40.3237 30.2396 40.2764 30.0002 40.1798C29.7609 40.0833 29.5434 39.9394 29.3609 39.7568L22.5897 32.9831C22.401 32.8073 22.2497 32.5953 22.1448 32.3598C22.0399 32.1243 21.9834 31.8701 21.9789 31.6123C21.9743 31.3545 22.0218 31.0984 22.1183 30.8593C22.2149 30.6202 22.3586 30.4031 22.5409 30.2207C22.7233 30.0384 22.9404 29.8947 23.1795 29.7981C23.4186 29.7016 23.6746 29.6541 23.9324 29.6587C24.1902 29.6632 24.4445 29.7197 24.68 29.8246C24.9155 29.9295 25.1275 30.0808 25.3033 30.2695L30.6639 35.6276L39.5548 24.2996C39.5707 24.2797 39.5878 24.2609 39.606 24.2432H39.6034Z" fill="white"/>
</svg>
