<svg width="24" height="25" viewBox="0 0 24 25" fill="none" xmlns="http://www.w3.org/2000/svg">
<path d="M12 0.5C15.1826 0.5 18.2348 1.76428 20.4853 4.01472C22.7357 6.26515 24 9.3174 24 12.5C24 15.6826 22.7357 18.7348 20.4853 20.9853C18.2348 23.2357 15.1826 24.5 12 24.5C8.8174 24.5 5.76515 23.2357 3.51472 20.9853C1.26428 18.7348 0 15.6826 0 12.5C0 9.3174 1.26428 6.26515 3.51472 4.01472C5.76515 1.76428 8.8174 0.5 12 0.5ZM13.7999 7.86747C14.6912 7.86747 15.4146 7.24866 15.4146 6.33158C15.4146 5.41451 14.6895 4.79569 13.7999 4.79569C12.9085 4.79569 12.1886 5.41451 12.1886 6.33158C12.1886 7.24866 12.9085 7.86747 13.7999 7.86747ZM14.1136 17.5131C14.1136 17.3297 14.177 16.8531 14.141 16.5823L12.7319 18.2039C12.4405 18.5107 12.0754 18.7233 11.904 18.6667C11.8262 18.6381 11.7612 18.5827 11.7207 18.5104C11.6802 18.4381 11.6667 18.3537 11.6829 18.2724L14.0313 10.8535C14.2233 9.91247 13.6953 9.05367 12.576 8.94397C11.3949 8.94397 9.65674 10.1422 8.5991 11.6626C8.5991 11.8443 8.56482 12.2969 8.60081 12.5677L10.0081 10.9444C10.2995 10.641 10.639 10.4267 10.8104 10.485C10.8948 10.5153 10.964 10.5775 11.0031 10.6583C11.0422 10.7391 11.0481 10.8319 11.0195 10.917L8.69166 18.2999C8.42254 19.1638 8.93165 20.0106 10.1658 20.2026C11.9829 20.2026 13.0559 19.0335 14.1153 17.5131H14.1136Z" fill="#EAB308"/>
</svg>
