<svg width="24" height="24" viewBox="0 0 24 24" fill="none" xmlns="http://www.w3.org/2000/svg">
<path id="Vector" d="M12.49 0C13.3934 0.00984643 14.2931 0.114465 15.1756 0.311393C15.3634 0.353302 15.5333 0.452816 15.6618 0.59603C15.7902 0.739243 15.8707 0.919001 15.892 1.11018L16.1012 2.98962C16.1307 3.25459 16.2221 3.50893 16.3678 3.73217C16.5136 3.95541 16.7097 4.14132 16.9404 4.27494C17.1712 4.40855 17.43 4.48615 17.6962 4.50148C17.9624 4.51681 18.2284 4.46944 18.4729 4.3632L20.1961 3.60625C20.3712 3.52914 20.5659 3.50833 20.7533 3.5467C20.9407 3.58506 21.1116 3.68071 21.2423 3.82041C22.4882 5.15093 23.4161 6.74669 23.9562 8.48762C24.0126 8.67069 24.0108 8.86679 23.9508 9.04873C23.8908 9.23067 23.7757 9.38944 23.6214 9.50303L22.094 10.6304C21.8788 10.7882 21.7038 10.9944 21.5831 11.2324C21.4625 11.4704 21.3996 11.7335 21.3996 12.0003C21.3996 12.2672 21.4625 12.5302 21.5831 12.7682C21.7038 13.0062 21.8788 13.2125 22.094 13.3702L23.6239 14.4964C23.7784 14.6101 23.8936 14.7691 23.9536 14.9513C24.0136 15.1334 24.0154 15.3298 23.9586 15.513C23.4187 17.2538 22.4912 18.8495 21.246 20.1803C21.1155 20.3199 20.9449 20.4156 20.7577 20.4542C20.5706 20.4928 20.376 20.4723 20.201 20.3956L18.4705 19.6362C18.2263 19.5292 17.9603 19.4811 17.6941 19.4959C17.4278 19.5107 17.1688 19.588 16.938 19.7215C16.7072 19.855 16.5111 20.041 16.3655 20.2644C16.2199 20.4878 16.1289 20.7423 16.1 21.0074L15.8907 22.8856C15.8698 23.0745 15.7911 23.2524 15.6653 23.3949C15.5395 23.5375 15.3728 23.6377 15.1879 23.6819C13.4052 24.106 11.5478 24.106 9.76501 23.6819C9.5799 23.6379 9.41291 23.5378 9.28689 23.3952C9.16086 23.2527 9.08197 23.0747 9.061 22.8856L8.85299 21.0098C8.82278 20.7456 8.73102 20.4921 8.58509 20.2697C8.43916 20.0474 8.24312 19.8624 8.01271 19.7295C7.78231 19.5966 7.52396 19.5197 7.25841 19.5047C6.99287 19.4898 6.72752 19.5374 6.48369 19.6436L4.75318 20.4018C4.57798 20.4788 4.3832 20.4994 4.19577 20.4608C4.00835 20.4222 3.83755 20.3263 3.707 20.1864C2.46151 18.8541 1.53443 17.2567 0.995538 15.5143C0.938794 15.331 0.940541 15.1347 1.00054 14.9525C1.06054 14.7703 1.1758 14.6113 1.33032 14.4976L2.86021 13.3702C3.07541 13.2125 3.25042 13.0062 3.37105 12.7682C3.49168 12.5302 3.55455 12.2672 3.55455 12.0003C3.55455 11.7335 3.49168 11.4704 3.37105 11.2324C3.25042 10.9944 3.07541 10.7882 2.86021 10.6304L1.33032 9.50549C1.1758 9.39182 1.06054 9.23284 1.00054 9.05065C0.940541 8.86845 0.938794 8.67209 0.995538 8.48885C1.53564 6.74792 2.46355 5.15216 3.70946 3.82164C3.84015 3.68194 4.01102 3.5863 4.19844 3.54793C4.38586 3.50956 4.58057 3.53038 4.75564 3.60749L6.47877 4.36443C6.72372 4.47061 6.99017 4.51786 7.25669 4.50239C7.52322 4.48691 7.78241 4.40913 8.01342 4.27531C8.24444 4.14149 8.44085 3.95535 8.58687 3.73185C8.7329 3.50834 8.82446 3.25371 8.85422 2.98839L9.06346 1.11018C9.08458 0.918616 9.16513 0.738462 9.29381 0.594988C9.4225 0.451514 9.59286 0.351916 9.78102 0.310163C10.6709 0.113496 11.5787 0.00955338 12.49 0ZM12.49 1.8462C11.9317 1.85276 11.3747 1.9009 10.8235 1.99021L10.6881 3.1927C10.6265 3.74571 10.4359 4.27651 10.1316 4.74234C9.82729 5.20817 9.41779 5.59599 8.93612 5.87455C8.45444 6.15312 7.91407 6.31462 7.35853 6.34606C6.803 6.3775 6.24785 6.27799 5.73782 6.05555L4.63133 5.57062C3.92785 6.42466 3.36792 7.3874 2.97344 8.42116L3.95439 9.14364C4.40274 9.47299 4.76731 9.90321 5.01862 10.3995C5.26994 10.8958 5.40095 11.4443 5.40107 12.0006C5.40119 12.557 5.27041 13.1055 5.01931 13.6019C4.76821 14.0983 4.40383 14.5287 3.95562 14.8583L2.97221 15.582C3.36607 16.6183 3.92731 17.5833 4.63133 18.4399L5.74521 17.9513C6.25414 17.7291 6.80812 17.6295 7.36258 17.6605C7.91703 17.6915 8.45646 17.8522 8.93744 18.1298C9.41843 18.4073 9.82753 18.7939 10.1318 19.2584C10.4361 19.723 10.6271 20.2525 10.6893 20.8043L10.8235 22.0154C11.9189 22.2 13.0377 22.2 14.1319 22.0154L14.2673 20.8043C14.3286 20.2517 14.5189 19.7214 14.8229 19.2559C15.1269 18.7905 15.5361 18.4031 16.0174 18.125C16.4987 17.8468 17.0387 17.6857 17.5937 17.6547C18.1488 17.6237 18.7033 17.7236 19.2127 17.9463L20.3253 18.4337C21.0293 17.579 21.5897 16.6154 21.9844 15.5807L21.0023 14.857C20.5537 14.5278 20.1889 14.0977 19.9374 13.6013C19.6859 13.105 19.5548 12.5564 19.5547 12C19.5546 11.4436 19.6855 10.895 19.9367 10.3986C20.188 9.90212 20.5526 9.47179 21.001 9.14241L21.982 8.41993C21.5872 7.38565 21.0269 6.42248 20.3228 5.56815L19.2188 6.05186C18.709 6.27507 18.1538 6.37525 17.598 6.34432C17.0423 6.31339 16.5017 6.15221 16.0197 5.87381C15.5378 5.5954 15.1281 5.20756 14.8236 4.74161C14.5192 4.27566 14.3287 3.74466 14.2673 3.19147L14.1331 1.99021C13.5902 1.90146 13.0401 1.85332 12.49 1.8462ZM12.4752 7.38482C13.6994 7.38482 14.8733 7.8711 15.7389 8.73667C16.6045 9.60225 17.0908 10.7762 17.0908 12.0003C17.0908 13.2244 16.6045 14.3984 15.7389 15.264C14.8733 16.1296 13.6994 16.6158 12.4752 16.6158C11.2511 16.6158 10.0772 16.1296 9.21158 15.264C8.34601 14.3984 7.85973 13.2244 7.85973 12.0003C7.85973 10.7762 8.34601 9.60225 9.21158 8.73667C10.0772 7.8711 11.2511 7.38482 12.4752 7.38482ZM12.4752 9.23103C11.7408 9.23103 11.0364 9.52279 10.517 10.0421C9.9977 10.5615 9.70594 11.2659 9.70594 12.0003C9.70594 12.7348 9.9977 13.4392 10.517 13.9585C11.0364 14.4779 11.7408 14.7696 12.4752 14.7696C13.2097 14.7696 13.9141 14.4779 14.4334 13.9585C14.9528 13.4392 15.2446 12.7348 15.2446 12.0003C15.2446 11.2659 14.9528 10.5615 14.4334 10.0421C13.9141 9.52279 13.2097 9.23103 12.4752 9.23103Z" fill="url(#paint0_linear_1170_56)"/>
<defs>
<linearGradient id="paint0_linear_1170_56" x1="-0.878389" y1="11.8974" x2="27.5648" y2="11.8974" gradientUnits="userSpaceOnUse">
<stop stop-color="#03F982"/>
<stop offset="0.228829" stop-color="#37C3A6"/>
<stop offset="0.560256" stop-color="#8572DB"/>
<stop offset="1" stop-color="#AF45EE"/>
</linearGradient>
</defs>
</svg>
