<svg width="28" height="29" viewBox="0 0 28 29" fill="none" xmlns="http://www.w3.org/2000/svg">
<g clip-path="url(#clip0_1374_1697)">
<path d="M14 28.5C21.732 28.5 28 22.232 28 14.5C28 6.76801 21.732 0.5 14 0.5C6.26801 0.5 0 6.76801 0 14.5C0 22.232 6.26801 28.5 14 28.5Z" fill="#26A17B"/>
<path fill-rule="evenodd" clip-rule="evenodd" d="M15.6818 15.7101V15.7083C15.5855 15.7153 15.0894 15.7451 13.9825 15.7451C13.0988 15.7451 12.4766 15.7188 12.2579 15.7083V15.7109C8.85589 15.5613 6.31664 14.9689 6.31664 14.2602C6.31664 13.5523 8.85589 12.9599 12.2579 12.8077V15.1212C12.4801 15.1369 13.1171 15.1746 13.9974 15.1746C15.0535 15.1746 15.5829 15.1308 15.6818 15.1221V12.8094C19.0768 12.9608 21.6099 13.5532 21.6099 14.2602C21.6099 14.9689 19.0768 15.5596 15.6818 15.7101ZM15.6818 12.5688V10.4986H20.419V7.34155H7.52064V10.4986H12.2579V12.5679C8.40789 12.7447 5.51251 13.5077 5.51251 14.4212C5.51251 15.3347 8.40789 16.0968 12.2579 16.2744V22.9087H15.6818V16.2727C19.5256 16.0959 22.414 15.3338 22.414 14.4212C22.414 13.5086 19.5256 12.7464 15.6818 12.5688Z" fill="white"/>
</g>
<defs>
<clipPath id="clip0_1374_1697">
<rect width="28" height="28" fill="white" transform="translate(0 0.5)"/>
</clipPath>
</defs>
</svg>
