<svg width="71" height="70" viewBox="0 0 71 70" fill="none" xmlns="http://www.w3.org/2000/svg">
<path d="M43 24.5V20C43 18.8954 42.1046 18 41 18H25C23.8954 18 23 18.8954 23 20V49.5C23 50.6046 23.8954 51.5 25 51.5H41C42.1046 51.5 43 50.6046 43 49.5V45" stroke="url(#paint0_linear_656_1313)"/>
<path d="M30 22.5H35.5" stroke="url(#paint1_linear_656_1313)" stroke-linecap="round"/>
<circle cx="33" cy="46.5" r="1" fill="url(#paint2_linear_656_1313)"/>
<g clip-path="url(#clip0_656_1313)">
<path d="M42.8458 32.417C41.5458 32.417 40.5125 33.4503 40.5125 34.7503C40.5125 36.0503 41.5458 37.0837 42.8458 37.0837C44.1458 37.0837 45.1791 36.0503 45.1791 34.7503C45.1791 33.4503 44.1458 32.417 42.8458 32.417ZM42.8458 36.417C41.9125 36.417 41.1791 35.6837 41.1791 34.7503C41.1791 33.817 41.9125 33.0837 42.8458 33.0837C43.7791 33.0837 44.5125 33.817 44.5125 34.7503C44.5125 35.6837 43.7791 36.417 42.8458 36.417Z" fill="url(#paint3_linear_656_1313)"/>
<path d="M47.7458 33.6503L46.8125 33.3503L46.6125 32.8503L47.0791 31.9837C47.1791 31.7837 47.1458 31.517 46.9791 31.3503L46.1791 30.5503C46.0125 30.3837 45.7458 30.3503 45.5458 30.4503L44.6791 30.917L44.1791 30.717L43.8791 29.7837C43.8125 29.5837 43.6125 29.417 43.3791 29.417H42.2458C42.0125 29.417 41.8125 29.5837 41.7791 29.817L41.4791 30.7503C41.2791 30.7837 41.1125 30.8503 40.9458 30.9503L40.0791 30.4837C39.8791 30.3837 39.6125 30.417 39.4458 30.5837L38.6458 31.3837C38.4791 31.5503 38.4458 31.817 38.5458 32.017L38.9791 32.8503C38.9125 33.017 38.8458 33.217 38.7791 33.3837L37.8458 33.6837C37.6458 33.7503 37.4791 33.9503 37.4791 34.1837V35.317C37.4791 35.5503 37.6458 35.7503 37.8791 35.817L38.8125 36.117L39.0125 36.617L38.5458 37.4837C38.4458 37.6837 38.4791 37.9503 38.6458 38.117L39.4458 38.917C39.6125 39.0837 39.8791 39.117 40.0791 39.017L40.9458 38.5503L41.4458 38.7503L41.7458 39.717C41.8125 39.917 42.0125 40.0837 42.2458 40.0837H43.3791C43.6125 40.0837 43.8125 39.917 43.8791 39.717L44.1791 38.7503L44.6791 38.5503L45.5458 39.017C45.7458 39.117 46.0125 39.0837 46.1791 38.917L46.9791 38.117C47.1458 37.9503 47.1791 37.6837 47.0791 37.4837L46.6125 36.617L46.8125 36.117L47.7791 35.817C47.9791 35.7503 48.1458 35.5503 48.1458 35.317V34.1837C48.1458 33.9503 47.9791 33.717 47.7458 33.6503ZM47.4791 35.217L46.2791 35.5837L46.2458 35.7503L45.9458 36.4503L45.8458 36.617L46.4458 37.717L45.7791 38.3837L44.6791 37.7837L44.5125 37.8837C44.2791 38.017 44.0458 38.117 43.8125 38.1837L43.6458 38.217L43.2791 39.417H42.3458L41.9791 38.217L41.8125 38.1837L41.1125 37.8837L40.9458 37.7837L39.8458 38.3837L39.1791 37.717L39.7791 36.617L39.6791 36.4503C39.5458 36.217 39.4458 35.9837 39.3791 35.7503L39.3458 35.5837L38.1458 35.217V34.2837L39.2791 33.9503L39.3458 33.7837C39.4125 33.517 39.5125 33.2837 39.6458 33.0503L39.7458 32.8837L39.1791 31.7837L39.8458 31.117L40.9125 31.717L41.0791 31.617C41.3125 31.4837 41.5458 31.3837 41.8125 31.317L41.9791 31.2503L42.3458 30.0837H43.2791L43.6458 31.2503L43.8125 31.317C44.0458 31.3837 44.2791 31.4837 44.5125 31.617L44.6791 31.717L45.7791 31.117L46.4458 31.7837L45.8458 32.8837L45.9458 33.0503C46.0791 33.2837 46.1791 33.517 46.2458 33.7503L46.2791 33.917L47.4791 34.2837V35.217Z" fill="url(#paint4_linear_656_1313)"/>
</g>
<circle cx="35.5" cy="35" r="34.5" stroke="url(#paint5_linear_656_1313)"/>
<defs>
<linearGradient id="paint0_linear_656_1313" x1="21.4096" y1="34.6068" x2="46.0937" y2="34.6068" gradientUnits="userSpaceOnUse">
<stop stop-color="#03F982"/>
<stop offset="0.228829" stop-color="#37C3A6"/>
<stop offset="0.560256" stop-color="#8572DB"/>
<stop offset="1" stop-color="#AF45EE"/>
</linearGradient>
<linearGradient id="paint1_linear_656_1313" x1="29.5626" y1="22.9957" x2="36.3508" y2="22.9957" gradientUnits="userSpaceOnUse">
<stop stop-color="#03F982"/>
<stop offset="0.228829" stop-color="#37C3A6"/>
<stop offset="0.560256" stop-color="#8572DB"/>
<stop offset="1" stop-color="#AF45EE"/>
</linearGradient>
<linearGradient id="paint2_linear_656_1313" x1="31.841" y1="46.4915" x2="34.3094" y2="46.4915" gradientUnits="userSpaceOnUse">
<stop stop-color="#03F982"/>
<stop offset="0.228829" stop-color="#37C3A6"/>
<stop offset="0.560256" stop-color="#8572DB"/>
<stop offset="1" stop-color="#AF45EE"/>
</linearGradient>
<linearGradient id="paint3_linear_656_1313" x1="40.1414" y1="34.7304" x2="45.901" y2="34.7304" gradientUnits="userSpaceOnUse">
<stop stop-color="#03F982"/>
<stop offset="0.228829" stop-color="#37C3A6"/>
<stop offset="0.560256" stop-color="#8572DB"/>
<stop offset="1" stop-color="#AF45EE"/>
</linearGradient>
<linearGradient id="paint4_linear_656_1313" x1="36.6309" y1="34.7047" x2="49.7958" y2="34.7047" gradientUnits="userSpaceOnUse">
<stop stop-color="#03F982"/>
<stop offset="0.228829" stop-color="#37C3A6"/>
<stop offset="0.560256" stop-color="#8572DB"/>
<stop offset="1" stop-color="#AF45EE"/>
</linearGradient>
<linearGradient id="paint5_linear_656_1313" x1="-5.06645" y1="34.7009" x2="81.3279" y2="34.7009" gradientUnits="userSpaceOnUse">
<stop stop-color="#37C3A6"/>
<stop offset="1" stop-color="#AF45EE"/>
</linearGradient>
<clipPath id="clip0_656_1313">
<rect width="12" height="12" fill="white" transform="translate(36.8125 28.75)"/>
</clipPath>
</defs>
</svg>
