<svg width="71" height="70" viewBox="0 0 71 70" fill="none" xmlns="http://www.w3.org/2000/svg">
<path d="M43 24.5V20C43 18.8954 42.1046 18 41 18H25C23.8954 18 23 18.8954 23 20V49.5C23 50.6046 23.8954 51.5 25 51.5H41C42.1046 51.5 43 50.6046 43 49.5V45" stroke="#1A1A1A"/>
<path d="M30 22.5H35.5" stroke="#1A1A1A" stroke-linecap="round"/>
<circle cx="33" cy="46.5" r="1" fill="#1A1A1A"/>
<g clip-path="url(#clip0_667_1511)">
<path d="M42.8458 32.417C41.5458 32.417 40.5125 33.4503 40.5125 34.7503C40.5125 36.0503 41.5458 37.0837 42.8458 37.0837C44.1458 37.0837 45.1791 36.0503 45.1791 34.7503C45.1791 33.4503 44.1458 32.417 42.8458 32.417ZM42.8458 36.417C41.9125 36.417 41.1791 35.6837 41.1791 34.7503C41.1791 33.817 41.9125 33.0837 42.8458 33.0837C43.7791 33.0837 44.5125 33.817 44.5125 34.7503C44.5125 35.6837 43.7791 36.417 42.8458 36.417Z" fill="#1A1A1A"/>
<path d="M47.7459 33.6503L46.8126 33.3503L46.6126 32.8503L47.0792 31.9837C47.1792 31.7837 47.1459 31.517 46.9792 31.3503L46.1792 30.5503C46.0126 30.3837 45.7459 30.3503 45.5459 30.4503L44.6792 30.917L44.1792 30.717L43.8792 29.7837C43.8126 29.5837 43.6126 29.417 43.3792 29.417H42.2459C42.0126 29.417 41.8126 29.5837 41.7792 29.817L41.4792 30.7503C41.2792 30.7837 41.1126 30.8503 40.9459 30.9503L40.0792 30.4837C39.8792 30.3837 39.6126 30.417 39.4459 30.5837L38.6459 31.3837C38.4792 31.5503 38.4459 31.817 38.5459 32.017L38.9792 32.8503C38.9126 33.017 38.8459 33.217 38.7792 33.3837L37.8459 33.6837C37.6459 33.7503 37.4792 33.9503 37.4792 34.1837V35.317C37.4792 35.5503 37.6459 35.7503 37.8792 35.817L38.8126 36.117L39.0126 36.617L38.5459 37.4837C38.4459 37.6837 38.4792 37.9503 38.6459 38.117L39.4459 38.917C39.6126 39.0837 39.8792 39.117 40.0792 39.017L40.9459 38.5503L41.4459 38.7503L41.7459 39.717C41.8126 39.917 42.0126 40.0837 42.2459 40.0837H43.3792C43.6126 40.0837 43.8126 39.917 43.8792 39.717L44.1792 38.7503L44.6792 38.5503L45.5459 39.017C45.7459 39.117 46.0126 39.0837 46.1792 38.917L46.9792 38.117C47.1459 37.9503 47.1792 37.6837 47.0792 37.4837L46.6126 36.617L46.8126 36.117L47.7792 35.817C47.9792 35.7503 48.1459 35.5503 48.1459 35.317V34.1837C48.1459 33.9503 47.9792 33.717 47.7459 33.6503ZM47.4792 35.217L46.2792 35.5837L46.2459 35.7503L45.9459 36.4503L45.8459 36.617L46.4459 37.717L45.7792 38.3837L44.6792 37.7837L44.5126 37.8837C44.2792 38.017 44.0459 38.117 43.8126 38.1837L43.6459 38.217L43.2792 39.417H42.3459L41.9792 38.217L41.8126 38.1837L41.1126 37.8837L40.9459 37.7837L39.8459 38.3837L39.1792 37.717L39.7792 36.617L39.6792 36.4503C39.5459 36.217 39.4459 35.9837 39.3792 35.7503L39.3459 35.5837L38.1459 35.217V34.2837L39.2792 33.9503L39.3459 33.7837C39.4126 33.517 39.5126 33.2837 39.6459 33.0503L39.7459 32.8837L39.1792 31.7837L39.8459 31.117L40.9126 31.717L41.0792 31.617C41.3126 31.4837 41.5459 31.3837 41.8126 31.317L41.9792 31.2503L42.3459 30.0837H43.2792L43.6459 31.2503L43.8126 31.317C44.0459 31.3837 44.2792 31.4837 44.5126 31.617L44.6792 31.717L45.7792 31.117L46.4459 31.7837L45.8459 32.8837L45.9459 33.0503C46.0792 33.2837 46.1792 33.517 46.2459 33.7503L46.2792 33.917L47.4792 34.2837V35.217Z" fill="#1A1A1A"/>
</g>
<circle cx="35.5" cy="35" r="34.5" stroke="#1A1A1A"/>
<defs>
<clipPath id="clip0_667_1511">
<rect width="12" height="12" fill="white" transform="translate(36.8125 28.75)"/>
</clipPath>
</defs>
</svg>
