<svg width="25" height="22" viewBox="0 0 25 22" fill="none" xmlns="http://www.w3.org/2000/svg">
<g id="Group 41">
<path id="Vector" d="M17.6324 8.55469H20.0768V13.4436H17.6324V8.55469Z" fill="url(#paint0_linear_1170_53)"/>
<path id="Vector_2" d="M22.5212 4.88889V2.44444C22.5212 1.09633 21.4249 0 20.0768 0H4.18791C2.16635 0 0.52124 1.64511 0.52124 3.66667V18.3333C0.52124 21.0234 2.71391 22 4.18791 22H22.5212C23.8693 22 24.9657 20.9037 24.9657 19.5556V7.33333C24.9657 5.98522 23.8693 4.88889 22.5212 4.88889ZM4.18791 2.44444H20.0768V4.88889H4.18791C3.87321 4.87481 3.57607 4.73989 3.35836 4.51222C3.14064 4.28455 3.01914 3.98168 3.01914 3.66667C3.01914 3.35165 3.14064 3.04878 3.35836 2.82111C3.57607 2.59344 3.87321 2.45852 4.18791 2.44444ZM22.5212 19.5556H4.20257C3.63791 19.5409 2.96568 19.3172 2.96568 18.3333V7.10722C3.34946 7.24533 3.75646 7.33333 4.18791 7.33333H22.5212V19.5556Z" fill="url(#paint1_linear_1170_53)"/>
</g>
<defs>
<linearGradient id="paint0_linear_1170_53" x1="17.438" y1="10.9782" x2="20.4549" y2="10.9782" gradientUnits="userSpaceOnUse">
<stop stop-color="#03F982"/>
<stop offset="0.228829" stop-color="#37C3A6"/>
<stop offset="0.560256" stop-color="#8572DB"/>
<stop offset="1" stop-color="#AF45EE"/>
</linearGradient>
<linearGradient id="paint1_linear_1170_53" x1="-1.4226" y1="10.906" x2="28.7468" y2="10.906" gradientUnits="userSpaceOnUse">
<stop stop-color="#03F982"/>
<stop offset="0.228829" stop-color="#37C3A6"/>
<stop offset="0.560256" stop-color="#8572DB"/>
<stop offset="1" stop-color="#AF45EE"/>
</linearGradient>
</defs>
</svg>
