<svg width="24" height="24" viewBox="0 0 24 24" fill="none" xmlns="http://www.w3.org/2000/svg">
<path d="M20 7V5C20 3.897 19.103 3 18 3H5C3.346 3 2 4.346 2 6V18C2 20.201 3.794 21 5 21H20C21.103 21 22 20.103 22 19V9C22 7.897 21.103 7 20 7ZM18 16H16V12H18V16ZM5 7C4.74252 6.98848 4.49941 6.87809 4.32128 6.69182C4.14315 6.50554 4.04373 6.25774 4.04373 6C4.04373 5.74226 4.14315 5.49446 4.32128 5.30818C4.49941 5.12191 4.74252 5.01152 5 5H18V7H5Z" fill="url(#paint0_linear_1374_1509)"/>
<defs>
<linearGradient id="paint0_linear_1374_1509" x1="0.409586" y1="11.9231" x2="25.0937" y2="11.9231" gradientUnits="userSpaceOnUse">
<stop stop-color="#37C3A6"/>
<stop offset="1" stop-color="#AF45EE"/>
</linearGradient>
</defs>
</svg>
