<svg width="100" height="45" viewBox="0 0 100 45" fill="none" xmlns="http://www.w3.org/2000/svg">
<rect x="0.672852" y="0.5" width="97.8848" height="44.0052" rx="7.5" fill="white" stroke="#EDEDED"/>
<path d="M71.7852 37.3163V36.1428H71.8152C72.0024 36.1958 72.1963 36.2209 72.3909 36.2176C72.9292 36.2176 73.1834 36.0307 73.3703 35.4925L73.6469 34.7451L71.1796 28.3469H72.7049L73.9161 31.7702C74.118 32.3458 74.3423 33.1381 74.3423 33.1381H74.3722C74.3722 33.1381 74.5815 32.3458 74.7909 31.7702L75.9498 28.3469H77.4301L74.7909 35.5673C74.2974 36.9725 73.8039 37.3986 72.675 37.3986H72.5105C72.2667 37.4011 72.0234 37.376 71.7852 37.3238V37.3163ZM22.9402 37.3163V28.3469H24.3233V29.2065H24.3607C24.8093 28.6085 25.4374 28.175 26.3645 28.175C28.0692 28.175 29.1981 29.5428 29.1981 31.6432C29.1981 33.7585 28.0766 35.0964 26.357 35.0964C25.9799 35.1157 25.604 35.0395 25.2642 34.8749C24.9243 34.7102 24.6316 34.4625 24.4131 34.1546H24.3757V37.3238L22.9402 37.3163ZM24.3084 31.6731C24.3084 32.9587 24.8691 33.8855 26.1028 33.8855C27.1271 33.8855 27.7178 33.0259 27.7178 31.6731C27.7178 30.3575 27.2093 29.3709 26.0579 29.3709C24.8392 29.3709 24.3084 30.4024 24.3084 31.6731ZM64.8319 31.6282C64.8319 29.6848 66.0731 28.175 68.0469 28.175C69.6843 28.175 70.7161 29.1168 70.9404 30.5145H69.5049C69.4568 30.1752 69.2838 29.866 69.0196 29.6475C68.7555 29.4291 68.4192 29.3171 68.0768 29.3335C66.8806 29.3335 66.26 30.2753 66.26 31.6133C66.26 32.9288 66.8656 33.8855 68.0544 33.8855C68.9217 33.8855 69.46 33.4221 69.5497 32.5775H70.9553C70.8432 34.0425 69.7815 35.074 68.0768 35.074H68.0469C66.088 35.074 64.8319 33.5566 64.8319 31.6282ZM58.1328 33.1231C58.1328 31.6282 59.3067 31.2321 60.8244 31.0078C61.8114 30.8434 62.3646 30.7686 62.3646 30.1856C62.3646 29.625 61.916 29.2737 61.1235 29.2737C60.2487 29.2737 59.8226 29.625 59.7852 30.3874H58.417C58.4543 29.1915 59.2768 28.2049 61.1086 28.2049C62.8731 28.2049 63.7777 28.9374 63.7777 30.4622V33.3249C63.7777 33.8033 63.8749 33.9976 64.3385 33.9229H64.3684V34.8423C64.2189 34.917 64.0319 34.9843 63.6955 34.9843C62.9179 34.9992 62.4917 34.7301 62.3646 34.0574C62.1391 34.3828 61.8335 34.6445 61.4772 34.8174C61.121 34.9902 60.7262 35.0683 60.331 35.0441C59.06 35.0441 58.1328 34.3938 58.1328 33.1231ZM61.0936 31.9272C60.1515 32.1365 59.5983 32.3084 59.5983 33.0708C59.5983 33.7884 60.0768 33.9976 60.6973 33.9976C61.8188 34.0126 62.3796 33.2352 62.3796 32.5476V31.5161C61.9748 31.7187 61.5409 31.8574 61.0936 31.9272ZM36.7047 33.1231C36.7047 31.6282 37.8785 31.2321 39.3963 31.0078C40.3758 30.8434 40.9365 30.7686 40.9365 30.1856C40.9365 29.625 40.4879 29.2737 39.6954 29.2737C38.8206 29.2737 38.387 29.625 38.357 30.3874H36.9888C37.0187 29.1915 37.8486 28.2049 39.6804 28.2049C41.4449 28.2049 42.3496 28.9374 42.3496 30.4622V33.3249C42.3496 33.8033 42.4468 33.9976 42.9103 33.9229H42.9403V34.8423C42.7907 34.917 42.6038 34.9843 42.2674 34.9843C41.4748 34.9992 41.0636 34.7301 40.9365 34.0574C40.7103 34.3839 40.4035 34.6464 40.0458 34.8193C39.6881 34.9922 39.2918 35.0696 38.8954 35.0441C37.6243 35.0441 36.7047 34.3938 36.7047 33.1231ZM39.6655 31.9272C38.7234 32.1365 38.1701 32.3084 38.1701 33.0708C38.1701 33.7884 38.6486 33.9976 39.2617 33.9976C40.3982 34.0126 40.9515 33.2352 40.9515 32.5476V31.5161C40.5466 31.7186 40.1128 31.8573 39.6655 31.9272ZM55.7926 34.917V30.6266C55.7926 29.8418 55.344 29.4307 54.716 29.4307C53.931 29.4307 53.3478 30.066 53.3478 30.9929V34.9021H51.9123V30.6117C51.9123 29.8268 51.501 29.4157 50.8655 29.4157C50.1179 29.4157 49.4823 30.0511 49.4823 30.9705V34.8871H48.0468V28.3469H49.43V29.2588H49.4599C49.6575 28.9288 49.9382 28.6563 50.2741 28.4688C50.61 28.2812 50.9892 28.1851 51.3739 28.1899C51.7508 28.1818 52.1213 28.2881 52.4363 28.495C52.7514 28.7019 52.9962 28.9995 53.1384 29.3485H53.1683C53.3673 28.9964 53.6563 28.7035 54.0058 28.4999C54.3553 28.2963 54.7526 28.1894 55.1571 28.1899C56.4506 28.1899 57.2431 29.0345 57.2431 30.4323V34.917H55.7926ZM34.3645 34.9245V30.6939C34.3645 29.9315 33.886 29.4531 33.0935 29.4531C32.2187 29.4531 31.5682 30.1258 31.5682 31.0751V34.9245H30.1327V25.8055H31.5682V29.2214H31.5981C32.0766 28.5562 32.6449 28.1899 33.572 28.1899C34.9402 28.1899 35.8 29.1168 35.8 30.507V34.917L34.3645 34.9245ZM43.7702 34.9095V28.3469H45.1683V29.4307H45.1833C45.5795 28.7281 46.1029 28.3095 46.9328 28.3095C47.071 28.3016 47.2095 28.3142 47.344 28.3469V29.6549H47.3141C47.1992 29.6267 47.0807 29.6167 46.9627 29.625C45.9758 29.625 45.1982 30.2903 45.1982 31.546V34.9095H43.7702ZM77.7516 27.3005C77.7466 27.1056 77.7809 26.9118 77.8525 26.7306C77.924 26.5493 78.0314 26.3843 78.1682 26.2455C78.305 26.1066 78.4684 25.9968 78.6486 25.9225C78.8288 25.8482 79.0221 25.8109 79.2171 25.813C79.9946 25.813 80.675 26.4035 80.675 27.3079C80.675 28.2123 79.9946 28.7954 79.2171 28.7954C78.3572 28.7954 77.7516 28.16 77.7516 27.3005ZM78.0731 27.3005C78.0731 27.9881 78.5217 28.5263 79.2171 28.5263C79.8451 28.5263 80.3535 28.018 80.3535 27.3005C80.3535 26.5829 79.8451 26.0821 79.2096 26.0821C78.5666 26.0821 78.0731 26.5904 78.0731 27.3005ZM79.6133 28.175L79.1797 27.4798H78.9255V28.16H78.6563V26.5306H79.2769C79.6731 26.5306 79.875 26.6726 79.875 27.0015C79.875 27.3005 79.703 27.4275 79.4488 27.4499L79.9124 28.175H79.6133ZM78.9105 27.2407H79.232C79.4339 27.2407 79.6058 27.2257 79.6058 26.9865C79.6058 26.7772 79.4189 26.7623 79.247 26.7623H78.9105V27.2407ZM65.9235 18.5478H70.4245C70.6637 19.6316 71.2768 20.0053 72.5404 20.0053C73.6619 20.0053 74.275 19.6092 74.275 18.9738C74.275 18.0619 73.4525 18.0021 71.7329 17.5537C69.7292 17.0304 68.4432 16.582 67.845 16.1634C67.3103 15.7966 66.8783 15.2991 66.5904 14.7181C66.3025 14.1372 66.1681 13.4923 66.2002 12.8447C66.2002 10.0567 68.3983 8.24039 72.2264 8.24039C75.9423 8.24039 78.118 9.86984 78.3722 12.7849H73.9983C73.8488 11.9179 73.2582 11.5142 72.1367 11.5142C71.1647 11.5142 70.6787 11.8356 70.6787 12.4859C70.6787 13.2483 71.4264 13.3978 72.817 13.7566C74.6114 14.22 76.032 14.4966 76.9367 15.1244C77.5201 15.465 77.9997 15.9581 78.3238 16.5507C78.6479 17.1434 78.8042 17.8131 78.7759 18.488C78.7759 21.6123 76.5329 23.4511 72.346 23.4511C68.4806 23.4511 66.2151 21.6348 65.9235 18.5478ZM39.1496 15.8495C39.1496 11.1405 41.9832 8.24039 46.4618 8.24039C50.6487 8.24039 53.101 10.3557 53.3702 14.093H48.9739C48.8468 12.6354 48.0244 11.8506 46.5216 11.8506C44.7047 11.8506 43.8225 13.1811 43.8225 15.8495C43.8225 18.4656 44.7945 19.8184 46.6711 19.8184C48.0692 19.8184 48.9515 18.9738 49.101 17.4266H53.4375V17.449C53.1833 21.2311 50.6861 23.4511 46.544 23.4511C41.9384 23.4511 39.1421 20.536 39.1421 15.8495H39.1496ZM19.8074 14.9376C19.4111 14.5349 19.189 13.9926 19.189 13.4277C19.189 12.8628 19.4111 12.3205 19.8074 11.9179L22.8355 8.89815C23.0288 8.6966 23.2609 8.53637 23.518 8.42716C23.775 8.31796 24.0515 8.26205 24.3308 8.26282C24.6144 8.26269 24.8953 8.31878 25.1571 8.42783C25.4189 8.53688 25.6564 8.69674 25.8561 8.89815L28.3458 11.3872L30.8206 8.89815C31.0175 8.69747 31.2526 8.53805 31.5119 8.42922C31.7712 8.3204 32.0496 8.26435 32.3309 8.26435C32.6121 8.26435 32.8905 8.3204 33.1498 8.42922C33.4092 8.53805 33.6442 8.69747 33.8411 8.89815L36.8692 11.8954C37.2655 12.2981 37.4877 12.8404 37.4877 13.4053C37.4877 13.9702 37.2655 14.5125 36.8692 14.9152L28.3458 23.4511L19.8074 14.9376ZM57.2805 23.0699L52.4431 8.66644H57.1534L59.5833 17.9573L62.1852 8.66644H66.731L61.8787 23.0699H57.2805Z" fill="#CC0000"/>
</svg>
