<svg width="99" height="46" viewBox="0 0 99 46" fill="none" xmlns="http://www.w3.org/2000/svg">
<rect x="0.526367" y="0.5" width="97.9822" height="44.0496" rx="7.5" fill="#202020" stroke="#414141"/>
<path d="M71.7086 37.3531V36.1784H71.7386C71.926 36.2314 72.1201 36.2566 72.3148 36.2532C72.8537 36.2532 73.1081 36.0662 73.2952 35.5275L73.5722 34.7793L71.1024 28.3748H72.6292L73.8416 31.8015C74.0437 32.3776 74.2682 33.1707 74.2682 33.1707H74.2981C74.2981 33.1707 74.5077 32.3776 74.7172 31.8015L75.8772 28.3748H77.3591L74.7172 35.6023C74.2233 37.0089 73.7293 37.4354 72.5992 37.4354H72.4346C72.1906 37.4379 71.947 37.4128 71.7086 37.3606V37.3531ZM22.8154 37.3531V28.3748H24.2V29.2352H24.2374C24.6864 28.6367 25.3151 28.2027 26.2431 28.2027C27.9495 28.2027 29.0796 29.5719 29.0796 31.6743C29.0796 33.7917 27.957 35.131 26.2356 35.131C25.8581 35.1503 25.4819 35.074 25.1417 34.9092C24.8016 34.7444 24.5085 34.4964 24.2898 34.1882H24.2524V37.3606L22.8154 37.3531ZM24.185 31.7043C24.185 32.9911 24.7463 33.9189 25.9812 33.9189C27.0065 33.9189 27.5977 33.0585 27.5977 31.7043C27.5977 30.3874 27.0888 29.3998 25.9363 29.3998C24.7164 29.3998 24.185 30.4323 24.185 31.7043ZM64.7485 31.6594C64.7485 29.7141 65.9908 28.2027 67.9666 28.2027C69.6056 28.2027 70.6384 29.1454 70.8629 30.5446H69.426C69.3779 30.2049 69.2047 29.8954 68.9403 29.6767C68.6759 29.4581 68.3393 29.346 67.9966 29.3624C66.7991 29.3624 66.1779 30.3051 66.1779 31.6444C66.1779 32.9612 66.7841 33.9189 67.9741 33.9189C68.8422 33.9189 69.3811 33.455 69.4709 32.6096H70.8779C70.7656 34.076 69.7029 35.1085 67.9966 35.1085H67.9666C66.0058 35.1085 64.7485 33.5897 64.7485 31.6594ZM58.0428 33.1557C58.0428 31.6594 59.2178 31.2628 60.737 31.0384C61.7249 30.8738 62.2787 30.7989 62.2787 30.2154C62.2787 29.6542 61.8297 29.3026 61.0364 29.3026C60.1608 29.3026 59.7342 29.6542 59.6968 30.4174H58.3272C58.3646 29.2203 59.1878 28.2327 61.0214 28.2327C62.7877 28.2327 63.6932 28.9659 63.6932 30.4922V33.3578C63.6932 33.8366 63.7905 34.0311 64.2545 33.9563H64.2845V34.8766C64.1348 34.9514 63.9477 35.0187 63.6109 35.0187C62.8326 35.0337 62.406 34.7644 62.2787 34.091C62.053 34.4167 61.7471 34.6787 61.3905 34.8517C61.0339 35.0247 60.6387 35.1028 60.2431 35.0786C58.9708 35.0786 58.0428 34.4277 58.0428 33.1557ZM61.0065 31.9586C60.0635 32.1681 59.5097 32.3402 59.5097 33.1034C59.5097 33.8216 59.9886 34.0311 60.6098 34.0311C61.7324 34.0461 62.2937 33.268 62.2937 32.5796V31.5471C61.8885 31.75 61.4542 31.8888 61.0065 31.9586ZM36.5935 33.1557C36.5935 31.6594 37.7685 31.2628 39.2878 31.0384C40.2682 30.8738 40.8295 30.7989 40.8295 30.2154C40.8295 29.6542 40.3805 29.3026 39.5872 29.3026C38.7115 29.3026 38.2774 29.6542 38.2475 30.4174H36.8779C36.9079 29.2203 37.7386 28.2327 39.5722 28.2327C41.3384 28.2327 42.244 28.9659 42.244 30.4922V33.3578C42.244 33.8366 42.3413 34.0311 42.8053 33.9563H42.8352V34.8766C42.6855 34.9514 42.4984 35.0187 42.1617 35.0187C41.3684 35.0337 40.9567 34.7644 40.8295 34.091C40.6031 34.4178 40.2959 34.6805 39.9379 34.8536C39.5799 35.0266 39.1832 35.1041 38.7864 35.0786C37.5141 35.0786 36.5935 34.4277 36.5935 33.1557ZM39.5572 31.9586C38.6142 32.1681 38.0604 32.3402 38.0604 33.1034C38.0604 33.8216 38.5394 34.0311 39.1531 34.0311C40.2907 34.0461 40.8445 33.268 40.8445 32.5796V31.5471C40.4392 31.7499 40.005 31.8887 39.5572 31.9586ZM55.7003 34.9514V30.6568C55.7003 29.8712 55.2512 29.4597 54.6226 29.4597C53.8368 29.4597 53.253 30.0957 53.253 31.0234V34.9364H51.8161V30.6418C51.8161 29.8562 51.4044 29.4447 50.7683 29.4447C50.0199 29.4447 49.3838 30.0807 49.3838 31.001V34.9215H47.9468V28.3748H49.3314V29.2876H49.3613C49.5591 28.9572 49.8401 28.6846 50.1763 28.4968C50.5125 28.3091 50.8921 28.2128 51.2772 28.2177C51.6544 28.2095 52.0253 28.316 52.3407 28.5231C52.656 28.7302 52.9011 29.0281 53.0434 29.3774H53.0734C53.2725 29.0249 53.5618 28.7318 53.9117 28.528C54.2615 28.3242 54.6592 28.2171 55.0641 28.2177C56.3589 28.2177 57.1522 29.0631 57.1522 30.4623V34.9514H55.7003ZM34.251 34.9589V30.7241C34.251 29.961 33.7721 29.4821 32.9788 29.4821C32.1031 29.4821 31.452 30.1555 31.452 31.1057V34.9589H30.0151V25.831H31.452V29.2502H31.4819C31.9609 28.5843 32.5297 28.2177 33.4577 28.2177C34.8273 28.2177 35.688 29.1455 35.688 30.5371V34.9514L34.251 34.9589ZM43.666 34.9439V28.3748H45.0655V29.4597H45.0804C45.4771 28.7564 46.001 28.3374 46.8317 28.3374C46.97 28.3294 47.1087 28.342 47.2433 28.3748V29.6841H47.2134C47.0984 29.6559 46.9797 29.6458 46.8616 29.6542C45.8737 29.6542 45.0954 30.3201 45.0954 31.5771V34.9439H43.666ZM77.6809 27.3273C77.6758 27.1323 77.7102 26.9383 77.7818 26.7569C77.8535 26.5754 77.961 26.4103 78.0979 26.2713C78.2348 26.1323 78.3984 26.0224 78.5787 25.948C78.7591 25.8736 78.9527 25.8364 79.1478 25.8384C79.9261 25.8384 80.6072 26.4295 80.6072 27.3348C80.6072 28.2401 79.9261 28.8237 79.1478 28.8237C78.2871 28.8237 77.6809 28.1878 77.6809 27.3273ZM78.0027 27.3273C78.0027 28.0157 78.4517 28.5544 79.1478 28.5544C79.7764 28.5544 80.2853 28.0456 80.2853 27.3273C80.2853 26.6091 79.7764 26.1078 79.1403 26.1078C78.4967 26.1078 78.0027 26.6166 78.0027 27.3273ZM79.5444 28.2027L79.1103 27.5069H78.8559V28.1878H78.5865V26.5567H79.2076C79.6043 26.5567 79.8064 26.6989 79.8064 27.0281C79.8064 27.3273 79.6342 27.4545 79.3798 27.477L79.8438 28.2027H79.5444ZM78.8409 27.2675H79.1627C79.3648 27.2675 79.5369 27.2525 79.5369 27.0131C79.5369 26.8036 79.3498 26.7887 79.1777 26.7887H78.8409V27.2675ZM65.8411 18.566H70.3465C70.586 19.6509 71.1997 20.025 72.4645 20.025C73.5871 20.025 74.2008 19.6285 74.2008 18.9925C74.2008 18.0797 73.3776 18.0199 71.6562 17.571C69.6505 17.0472 68.3633 16.5983 67.7645 16.1793C67.2292 15.8122 66.7969 15.3142 66.5087 14.7326C66.2205 14.1511 66.086 13.5055 66.1181 12.8574C66.1181 10.0666 68.3184 8.24851 72.1502 8.24851C75.8698 8.24851 78.0476 9.87956 78.3021 12.7975H73.9239C73.7742 11.9296 73.183 11.5256 72.0604 11.5256C71.0875 11.5256 70.601 11.8473 70.601 12.4982C70.601 13.2614 71.3494 13.411 72.7414 13.7702C74.5376 14.234 75.9596 14.5109 76.8651 15.1393C77.4492 15.4802 77.9292 15.9738 78.2536 16.567C78.578 17.1603 78.7345 17.8307 78.7062 18.5062C78.7062 21.6336 76.461 23.4742 72.2699 23.4742C68.4007 23.4742 66.133 21.6561 65.8411 18.566ZM39.0408 15.8651C39.0408 11.1515 41.8773 8.24851 46.3602 8.24851C50.5513 8.24851 53.006 10.3659 53.2755 14.1068H48.8748C48.7476 12.6479 47.9244 11.8623 46.4201 11.8623C44.6015 11.8623 43.7183 13.194 43.7183 15.8651C43.7183 18.4837 44.6913 19.838 46.5698 19.838C47.9693 19.838 48.8524 18.9925 49.0021 17.4438H53.3428V17.4662C53.0884 21.252 50.5887 23.4742 46.4425 23.4742C41.8324 23.4742 39.0333 20.5562 39.0333 15.8651H39.0408ZM19.6796 14.9523C19.2829 14.5492 19.0605 14.0064 19.0605 13.4409C19.0605 12.8755 19.2829 12.3327 19.6796 11.9296L22.7107 8.90692C22.9041 8.70517 23.1365 8.54478 23.3938 8.43547C23.6511 8.32615 23.9279 8.27018 24.2075 8.27096C24.4914 8.27083 24.7725 8.32698 25.0345 8.43614C25.2966 8.54529 25.5344 8.70531 25.7342 8.90692L28.2264 11.3984L30.7036 8.90692C30.9008 8.70603 31.136 8.54646 31.3956 8.43753C31.6552 8.32859 31.9339 8.27249 32.2154 8.27249C32.4969 8.27249 32.7756 8.32859 33.0352 8.43753C33.2947 8.54646 33.53 8.70603 33.7272 8.90692L36.7582 11.9072C37.1549 12.3102 37.3773 12.853 37.3773 13.4185C37.3773 13.984 37.1549 14.5268 36.7582 14.9298L28.2264 23.4742L19.6796 14.9523ZM57.1896 23.0926L52.3474 8.67498H57.0624L59.4947 17.975L62.0991 8.67498H66.6494L61.7923 23.0926H57.1896Z" fill="white"/>
</svg>
