<svg width="100" height="46" viewBox="0 0 100 46" fill="none" xmlns="http://www.w3.org/2000/svg">
<rect x="1.44238" y="0.505249" width="97.8848" height="44.0052" rx="7.5" fill="white" stroke="#EDEDED"/>
<path d="M49.861 38.0379C60.1895 38.0379 68.5632 31.2702 68.5632 22.9216C68.5632 14.5734 60.1895 7.80525 49.861 7.80525C39.5325 7.80525 31.1592 14.5734 31.1592 22.9216C31.1592 31.2703 39.5325 38.0379 49.861 38.0379Z" fill="#C2B9B5"/>
<path d="M50.4662 37.2103C60.7947 37.2103 69.1677 30.4422 69.1677 22.0942C69.1677 13.7456 60.7947 6.97791 50.4662 6.97791C40.1374 6.97791 31.7642 13.7456 31.7642 22.0942C31.7643 30.4423 40.1374 37.2103 50.4662 37.2103Z" fill="url(#paint0_linear_2206_11195)"/>
<path d="M50.5182 35.5736C59.7177 35.5736 67.1756 29.5331 67.1756 22.0819C67.1756 14.6311 59.7177 8.59068 50.5182 8.59068C41.3184 8.59068 33.8604 14.6311 33.8604 22.0819C33.8604 29.5331 41.3184 35.5736 50.5182 35.5736Z" fill="white"/>
<path d="M50.6198 34.7097C59.4391 34.7097 66.5891 28.9773 66.5891 21.9067C66.5891 14.8359 59.4391 9.10339 50.6198 9.10339C41.8005 9.10339 34.6504 14.8359 34.6504 21.9067C34.6504 28.9773 41.8003 34.7097 50.6198 34.7097Z" fill="url(#paint1_linear_2206_11195)"/>
<path d="M57.6489 13.6339C57.7196 12.6047 57.3807 11.5646 57.1712 10.7428C56.01 10.3057 54.8395 10.031 53.4397 9.79289C53.133 9.74301 53.3819 9.93505 53.3819 9.93505C54.0805 10.4387 55.5796 11.452 55.8233 14.9562C55.8233 14.9562 55.9127 15.6422 56.1643 15.7794C56.4156 15.9165 57.1842 16.6869 58.0785 17.3682C57.8865 16.6528 57.5192 15.516 57.6489 13.6339Z" fill="url(#paint2_linear_2206_11195)"/>
<path d="M63.1497 14.6588C61.7949 13.2128 60.1943 12.0281 58.0815 11.129C58.3057 11.9764 58.4484 13.0724 58.3825 14.1312C58.2524 16.2079 58.7905 17.3883 58.9926 18.0409C59.2066 18.2207 59.3579 18.4136 59.5855 18.6207C59.5855 18.6207 61.3339 20.7846 63.0744 20.0728C64.1448 19.6347 65.0796 16.7188 63.1497 14.6588Z" fill="url(#paint3_linear_2206_11195)"/>
<path d="M49.246 19.0224L47.7856 19.0186C47.7396 18.147 47.6999 17.3614 47.6801 16.516C47.6469 15.6378 47.3764 14.6539 46.5641 14.205L46.0293 13.9737C45.085 13.809 44.0416 13.8813 43.4012 14.6079C42.9061 15.222 42.8201 16.021 42.7609 16.7672C42.6154 18.0084 42.6682 19.3884 41.9816 20.5047C41.5459 21.112 40.8525 21.3894 40.212 21.647C40.1592 21.6798 40.1196 21.7459 40.1458 21.8054C40.3904 22.0098 40.747 22.063 41.0045 22.2612C41.9156 22.8156 42.028 23.991 42.1733 24.9618C42.2326 25.4043 42.2852 25.8665 42.3977 26.3217C42.4174 26.4208 42.3184 26.4604 42.2457 26.4735L41.1034 26.467C40.9913 26.434 40.9516 26.3154 40.912 26.2163C40.6873 25.3841 40.7268 24.4993 40.5816 23.6674C40.5023 23.093 40.1722 22.6042 39.6505 22.3994C39.4724 22.3405 39.2808 22.2872 39.0826 22.3267C38.911 22.3931 38.9174 22.6042 38.9174 22.7426C38.9439 23.9313 38.931 25.0804 38.931 26.4472L38.8516 26.4802L37.6366 26.467C37.5972 26.4472 37.5245 26.4472 37.5377 26.3813V16.8064C37.9734 16.7735 38.4358 16.7932 38.8847 16.7869V20.7949C38.9572 20.8873 38.944 21.0457 39.0762 21.0919C39.6177 21.1183 40.1525 20.9202 40.5287 20.5241C41.1296 19.8704 41.1761 18.9594 41.2486 18.1403C41.3012 17.0839 41.3608 15.9413 41.757 14.9574C42.2392 13.7427 43.487 13.0758 44.7549 12.9569C45.369 12.8645 46.0228 12.9305 46.5971 13.0822C46.6302 13.1086 46.6831 13.1153 46.729 13.1217C47.4093 13.3595 47.9905 13.7822 48.3931 14.3764C49.1591 15.4463 49.1524 16.6546 49.2384 17.9491L49.246 19.0224Z" fill="#002458"/>
<path d="M43.1097 26.4848L43.0964 23.7529L43.094 23.6607C43.0344 22.6107 43.1955 21.3955 42.9644 20.3588C42.9776 20.2864 43.0372 20.2469 43.0963 20.2135C43.42 20.174 43.7897 20.1676 44.1134 20.2135C44.2653 20.2268 44.2851 20.3983 44.3442 20.4977C44.3709 20.5572 44.4037 20.6825 44.5028 20.6361C44.5821 20.6427 44.6086 20.5505 44.6546 20.524C44.9122 20.2796 45.2555 20.1211 45.6385 20.1606L45.8498 20.1871L45.8503 21.4093C45.4806 21.4241 45.0443 21.5014 44.8066 21.7523C44.4765 22.0164 44.43 22.4587 44.4236 22.8682V26.4863L43.1097 26.4848Z" fill="#002458"/>
<path d="M61.6384 26.4981V20.9533C61.5725 20.8609 61.5989 20.6893 61.5527 20.5636C61.5395 20.4977 61.4998 20.3657 61.566 20.2931C61.599 20.24 61.6714 20.2664 61.7112 20.2335C62.0281 20.2469 62.3915 20.2071 62.7016 20.2664C62.86 20.3524 62.86 20.5965 63.012 20.6958C63.2035 20.6362 63.3291 20.3985 63.5204 20.3328C63.725 20.194 64.0155 20.2864 64.2798 20.26C64.326 20.2797 64.3128 20.3128 64.3653 20.3192L64.3722 21.6004C64.339 21.6204 64.3061 21.6004 64.2994 21.574C63.8574 21.5211 63.4476 21.6664 63.1702 21.9372C62.8795 22.2214 62.9294 22.6325 62.9225 23.0217L62.9195 23.0928V26.4981H61.6384Z" fill="#002458"/>
<path d="M58.4882 21.1579C57.9992 21.3563 57.8744 21.9308 57.8807 22.4189C57.8807 22.5182 57.9534 22.5975 58.0394 22.624H59.1353C59.3007 22.6174 59.4521 22.624 59.5579 22.5051C59.6175 22.1815 59.5447 21.8381 59.4194 21.5477C59.2609 21.2307 58.8713 21.0193 58.4882 21.1579ZM58.191 25.2784C58.4091 25.5094 58.7919 25.5164 59.0761 25.3971C59.5049 25.1726 59.5318 24.6509 59.6239 24.2217L59.6837 24.2021L60.8521 24.2062C60.8457 25.0381 60.4165 26.1433 59.6174 26.48C59.4063 26.5988 59.1351 26.586 58.891 26.632C58.4022 26.6716 57.9929 26.4932 57.6032 26.3214C56.9761 25.9783 56.6931 25.2388 56.5401 24.5585C56.2099 23.0894 56.5993 21.7751 56.8965 21.0985C57.1866 20.4386 57.8542 19.9959 58.574 19.9561C59.0427 19.9231 59.4519 20.0286 59.8416 20.2267C60.7663 20.8211 60.9312 22.1286 60.9179 23.2312C60.9046 23.3105 60.8915 23.4033 60.8058 23.4295L60.5088 23.4622L57.7731 23.477C57.7471 23.9925 57.8214 24.8824 58.191 25.2784Z" fill="#002458"/>
<path d="M48.4976 21.1846C48.174 21.0986 47.8635 21.2174 47.659 21.4551C47.2562 22.0495 47.2758 22.7495 47.2494 23.4297C47.2889 24.1294 47.2758 25.067 47.9956 25.4169C48.1804 25.5164 48.4314 25.4567 48.6032 25.3905C49.2502 24.9941 49.2435 24.1232 49.2966 23.436C49.257 22.7626 49.2966 21.9636 48.8604 21.4091C48.7682 21.2967 48.6429 21.2307 48.4976 21.1846ZM49.5673 20.2931C50.3598 20.7949 50.5444 21.8116 50.624 22.7098C50.67 24.057 50.5975 25.7934 49.224 26.5198C48.7419 26.7111 48.1145 26.784 47.6063 26.612C46.9326 26.4406 46.3976 25.899 46.18 25.2388C45.9751 24.7369 45.9191 24.1658 45.9158 23.6145C45.9109 22.789 45.9751 22.0232 46.2391 21.2702V21.2897C46.5893 20.5044 47.3881 19.9823 48.2664 19.9823C48.755 19.9563 49.1975 20.0487 49.5673 20.2931Z" fill="#002458"/>
<path d="M53.285 21.277C52.8093 21.5411 52.6841 22.0891 52.6379 22.604C52.6113 23.4886 52.4926 24.3738 53.0208 25.0868C53.166 25.2258 53.3443 25.3312 53.5622 25.3111C53.8196 25.2917 54.0636 25.1464 54.1697 24.902C54.4999 24.0569 54.3147 23.1454 54.3479 22.2542C54.3348 22.0164 54.3216 21.7456 54.1763 21.5475C54.0177 21.2439 53.6082 21.158 53.285 21.277ZM52.8357 31.5908C53.8841 31.2162 54.2026 30.046 54.2884 29.0353C54.3612 28.144 54.3743 27.2661 54.3084 26.3742C54.2821 26.3284 54.1962 26.282 54.143 26.3284C53.8128 26.5263 53.4367 26.6649 53.0207 26.5728C52.4394 26.4733 51.9311 26.163 51.6801 25.6149C51.3833 25.0539 51.3081 24.3339 51.2508 23.7792C51.1933 23.2182 51.3202 21.8416 51.6339 21.1647C51.9208 20.5451 52.5185 20.0024 53.2584 20.0156C53.549 19.9959 53.8846 20.115 54.0887 20.2598C54.1971 20.3365 54.3609 20.5044 54.486 20.3589C54.5458 20.2733 54.6584 20.2268 54.7635 20.2135C55.0871 20.2135 55.4436 20.1807 55.7277 20.2733C55.769 20.2937 55.7791 20.3161 55.7541 20.3657C55.5824 21.1515 55.655 21.9636 55.6352 22.7495C55.6088 23.4558 55.6948 24.1822 55.6684 24.9416C55.6618 25.7934 55.6817 26.6651 55.6487 27.5037L55.6684 27.5432C55.6751 28.6128 55.6948 29.762 55.2261 30.6732C54.6515 31.9145 53.3901 32.5948 52.0697 32.7269C51.4096 32.7334 50.716 32.7467 50.1482 32.5088C49.7586 32.3968 49.4545 32.1329 49.1245 31.9213C48.299 31.2876 47.9163 30.2377 47.8502 29.2074C47.7909 28.8046 47.7711 28.349 47.7646 27.9196C47.7711 27.8604 47.7842 27.7806 47.8502 27.768H49.1774C49.2698 27.8867 49.2765 28.0584 49.2698 28.2169C49.2966 29.0487 49.3425 29.9074 49.6199 30.6863C49.8643 31.3137 50.4144 31.7528 51.0826 31.8153C51.3665 31.8417 51.6603 31.8617 51.9575 31.8617C52.0815 31.8781 52.6379 31.6736 52.8357 31.5908Z" fill="#002458"/>
<path d="M58.1203 27.901C58.2183 27.901 58.3061 27.894 58.3061 27.7767C58.3061 27.6821 58.2201 27.6646 58.1394 27.6646H57.9819V27.901H58.1203ZM57.982 28.3302H57.8665V27.5667H58.1571C58.3374 27.5667 58.4271 27.6328 58.4271 27.7837C58.4271 27.9202 58.3411 27.9798 58.2288 27.9938L58.4459 28.3302H58.3164L58.115 27.9991H57.982V28.3302ZM58.1221 28.4998C58.4215 28.4998 58.6579 28.2651 58.6579 27.9464C58.6579 27.6327 58.4215 27.3967 58.1221 27.3967C57.819 27.3967 57.5828 27.6328 57.5828 27.9464C57.5827 28.2651 57.819 28.4998 58.1221 28.4998ZM57.4492 27.9464C57.4492 27.5666 57.7577 27.2863 58.1221 27.2863C58.4828 27.2863 58.7908 27.5667 58.7908 27.9464C58.7908 28.3302 58.4828 28.6105 58.1221 28.6105C57.7577 28.6105 57.4492 28.3302 57.4492 27.9464Z" fill="white"/>
<path d="M54.5433 21.0006C54.6886 21.1986 54.7019 21.4694 54.7151 21.7071C54.6822 22.5986 54.8671 23.5098 54.5373 24.355C54.4312 24.5992 54.1871 24.7445 53.9291 24.7645C53.7114 24.7842 53.5331 24.6786 53.3882 24.5396C52.8599 23.8266 52.9787 22.9417 53.0051 22.0569C53.0512 21.5417 53.1768 20.9937 53.6521 20.73C53.9755 20.6108 54.385 20.6968 54.5433 21.0006ZM52.325 31.3148C52.0276 31.3148 51.7338 31.2945 51.4499 31.268C50.7817 31.2059 50.2316 30.7668 49.9874 30.1393C49.7098 29.3602 49.6639 28.5015 49.6374 27.67C49.6438 27.5113 49.6374 27.3398 49.545 27.2209H48.2175C48.1518 27.2343 48.1385 27.3135 48.1318 27.3725C48.1385 27.8019 48.1582 28.2573 48.2175 28.6603C48.2838 29.6906 48.6667 30.7401 49.4922 31.3746C49.8223 31.5857 50.1259 31.8495 50.5158 31.962C51.0835 32.1996 51.7765 32.1867 52.4369 32.1798C53.7579 32.048 55.0189 31.3677 55.5934 30.1262C56.0622 29.2151 56.0428 28.066 56.0359 26.9966L56.0158 26.9567C56.0491 26.118 56.0296 25.2464 56.0359 24.3947C56.0622 23.6353 55.9763 22.9087 56.0026 22.2024C56.0226 21.4166 55.9503 20.6044 56.1214 19.8187C56.1464 19.7691 56.1364 19.7468 56.0952 19.7263C55.8113 19.6338 55.4548 19.6667 55.1312 19.6667C55.0254 19.68 54.9131 19.7263 54.8541 19.812C54.7283 19.957 54.5647 19.7894 54.4562 19.7128C54.2522 19.5681 53.916 19.4489 53.6257 19.4686C52.8862 19.4554 52.2884 19.9983 52.0013 20.6177C51.6878 21.2946 51.5606 22.6708 51.6186 23.2325C51.6753 23.7873 51.7504 24.5067 52.0479 25.068C52.2988 25.616 52.8071 25.9266 53.3884 26.0257C53.8038 26.118 54.1804 25.9792 54.5104 25.7813C54.5631 25.7349 54.6492 25.7813 54.6755 25.8275C54.7418 26.7187 54.7284 27.5971 54.6561 28.4882C54.5702 29.4989 54.2514 30.6691 53.2033 31.0438C53.005 31.1263 52.4488 31.331 52.325 31.3148ZM49.228 20.8621C49.6639 21.4168 49.6241 22.2158 49.6639 22.8892C49.611 23.5757 49.6174 24.4476 48.9704 24.8436C48.7988 24.9101 48.5477 24.969 48.3628 24.8699C47.6433 24.5203 47.6561 23.5824 47.6169 22.8827C47.6433 22.2024 47.6233 21.5022 48.0263 20.9081C48.2307 20.6704 48.5412 20.5515 48.8649 20.6375C49.0101 20.6837 49.1356 20.7497 49.228 20.8621ZM48.6335 19.4354C47.7552 19.4354 46.9564 19.957 46.6065 20.7429V20.7231C46.3421 21.4761 46.2779 22.2421 46.2828 23.0672C46.2861 23.6185 46.3421 24.1898 46.547 24.6917C46.7646 25.3518 47.2999 25.8935 47.9733 26.0651C48.4818 26.2369 49.1089 26.1644 49.591 25.9724C50.9644 25.2463 51.0373 23.5097 50.9909 22.1627C50.9116 21.2645 50.7266 20.2479 49.9347 19.7461C49.5645 19.5018 49.1224 19.4094 48.6335 19.4354ZM59.7859 21.0006C59.9115 21.291 59.9844 21.6344 59.9251 21.9578C59.8193 22.0767 59.6674 22.0702 59.5023 22.0767H58.4063C58.3204 22.0505 58.2478 21.9711 58.2478 21.8719C58.2409 21.3837 58.3664 20.8092 58.8553 20.6107C59.2383 20.4725 59.6279 20.6837 59.7859 21.0006ZM58.1403 22.9303L60.8758 22.9156L61.1731 22.8827C61.2585 22.8563 61.2719 22.7638 61.2852 22.6846C61.2984 21.5818 61.1334 20.2743 60.2091 19.6798C59.8193 19.4818 59.4097 19.3761 58.9413 19.4093C58.2216 19.4488 57.5536 19.8915 57.2639 20.5515C56.9667 21.2282 56.577 22.5425 56.9072 24.0115C57.0602 24.6918 57.3432 25.4313 57.9705 25.7746C58.3599 25.9468 58.7695 26.1246 59.2584 26.085C59.5024 26.0388 59.7731 26.0518 59.9845 25.9334C60.7835 25.5965 61.2125 24.491 61.2191 23.6593L60.0504 23.6551L59.9913 23.6748C59.8988 24.1042 59.8722 24.6257 59.4428 24.8503C59.1592 24.9689 58.7762 24.9623 58.5581 24.7315C58.1882 24.3355 58.1141 23.4454 58.1403 22.9303ZM63.2858 25.9513V22.546L63.289 22.4749C63.2959 22.0851 63.2462 21.6743 63.5368 21.3904C63.8143 21.1195 64.2234 20.9743 64.6661 21.0269C64.6728 21.0533 64.7054 21.0734 64.7387 21.0533L64.7323 19.7724C64.6793 19.7659 64.6921 19.7327 64.6461 19.713C64.3822 19.7396 64.0916 19.647 63.8869 19.7859C63.6951 19.8516 63.5697 20.0896 63.3782 20.1489C63.2266 20.05 63.2266 19.8056 63.0678 19.7196C62.7578 19.6605 62.3944 19.7 62.0774 19.6868C62.0379 19.7196 61.9652 19.6936 61.9323 19.7465C61.8664 19.819 61.9059 19.951 61.9191 20.017C61.9652 20.1428 61.9387 20.3143 62.005 20.4067V25.9515H63.2858V25.9513ZM44.7905 25.9398V22.3213C44.7969 21.912 44.8434 21.4695 45.1734 21.2053C45.4111 20.9545 45.8474 20.8773 46.2172 20.8623L46.2169 19.6402L46.0056 19.6138C45.6226 19.5743 45.2789 19.7326 45.0214 19.977C44.9753 20.0035 44.9488 20.0959 44.8697 20.0895C44.7708 20.1354 44.7377 20.0099 44.7111 19.9506C44.6516 19.8515 44.6319 19.6798 44.4801 19.6666C44.1568 19.6204 43.7869 19.6269 43.4632 19.6666C43.4037 19.6996 43.3442 19.7393 43.331 19.8119C43.5622 20.8484 43.4014 22.0636 43.4607 23.1134L43.4633 23.2061L43.4763 25.9383L44.7905 25.9398ZM49.6122 18.4754L48.1518 18.4715C48.1054 17.6 48.0658 16.8143 48.0459 15.969C48.013 15.0907 47.7421 14.1068 46.93 13.6581L46.3951 13.4268C45.4509 13.2619 44.4078 13.3344 43.7672 14.061C43.272 14.6751 43.1863 15.4742 43.1267 16.22C42.9814 17.4614 43.0343 18.8415 42.3474 19.9572C41.9115 20.5649 41.2182 20.8423 40.578 21.0998C40.5252 21.1327 40.4856 21.1986 40.5117 21.2582C40.7561 21.4628 41.1128 21.5156 41.3704 21.7141C42.2817 22.2686 42.3937 23.4441 42.539 24.4143C42.5987 24.8567 42.6514 25.3192 42.7636 25.7747C42.7836 25.8741 42.6843 25.9136 42.6119 25.9267L41.4693 25.9198C41.3573 25.8871 41.3175 25.7683 41.278 25.669C41.0536 24.8373 41.0932 23.9524 40.9479 23.1203C40.8686 22.546 40.5385 22.0571 40.0169 21.8524C39.8385 21.7932 39.6471 21.7401 39.4487 21.7796C39.2771 21.8459 39.2839 22.0571 39.2839 22.1958C39.3103 23.3844 39.2972 24.5335 39.2972 25.9003L39.2179 25.9335L38.0028 25.9199C37.9632 25.9005 37.8905 25.9005 37.904 25.8346V16.2593C38.3396 16.2265 38.8019 16.2462 39.2508 16.2398V20.2479C39.3236 20.3403 39.3104 20.4989 39.4424 20.5448C39.9838 20.5713 40.5188 20.3731 40.8949 19.977C41.496 19.3235 41.5422 18.4123 41.615 17.5932C41.6676 16.5367 41.727 15.3944 42.1232 14.4104C42.6053 13.1956 43.8532 12.5287 45.121 12.4099C45.7353 12.3175 46.389 12.3834 46.9635 12.5351C46.9963 12.5616 47.0492 12.5682 47.0954 12.5748C47.7757 12.8124 48.3567 13.235 48.7595 13.8295C49.5253 14.8992 49.519 16.1076 49.6046 17.4018L49.6122 18.4754Z" fill="url(#paint4_linear_2206_11195)"/>
<path d="M54.812 20.6929C54.9569 20.8908 54.9704 21.1616 54.9837 21.3993C54.9505 22.291 55.1351 23.2022 54.8052 24.0471C54.6997 24.2915 54.4556 24.4368 54.1977 24.4566C53.9799 24.4763 53.8017 24.3706 53.6566 24.2319C53.1283 23.5189 53.2468 22.6341 53.2736 21.7493C53.3197 21.2343 53.445 20.6862 53.9207 20.4222C54.244 20.3034 54.6535 20.3891 54.812 20.6929ZM52.593 31.0071C52.296 31.0071 52.0021 30.9871 51.7185 30.9601C51.0501 30.8983 50.5 30.4595 50.2556 29.8317C49.9784 29.0522 49.9319 28.1943 49.9055 27.362C49.9123 27.2036 49.9055 27.0319 49.8131 26.913H48.4861C48.4201 26.9262 48.4068 27.0055 48.4004 27.0648C48.4068 27.4942 48.4267 27.9497 48.4861 28.3526C48.5521 29.3826 48.935 30.4324 49.7603 31.0667C50.0905 31.2777 50.3947 31.542 50.7844 31.6543C51.352 31.8922 52.045 31.879 52.7054 31.8721C54.0264 31.7403 55.2871 31.06 55.8619 29.8184C56.3308 28.9076 56.3107 27.7586 56.3041 26.6888L56.2843 26.6492C56.3175 25.8104 56.2976 24.9388 56.3041 24.0871C56.3308 23.3274 56.2448 22.6014 56.2712 21.8947C56.2909 21.109 56.2184 20.2967 56.39 19.5109C56.4148 19.4614 56.4049 19.439 56.3633 19.4185C56.0797 19.3261 55.7232 19.3589 55.3994 19.3589C55.294 19.3725 55.1816 19.4185 55.1221 19.5045C54.9968 19.6498 54.8327 19.482 54.7244 19.4051C54.5207 19.2603 54.1846 19.1414 53.894 19.161C53.1544 19.148 52.5568 19.6908 52.2699 20.31C51.956 20.9869 51.8291 22.3639 51.8863 22.9248C51.9438 23.4796 52.0189 24.1993 52.3157 24.7603C52.5669 25.3083 53.075 25.6189 53.6568 25.718C54.0723 25.8103 54.4488 25.6715 54.7789 25.4736C54.8317 25.4275 54.9178 25.4736 54.944 25.5198C55.0102 26.4116 54.9969 27.2894 54.9242 28.1806C54.8388 29.1912 54.5199 30.3619 53.4716 30.7364C53.2735 30.8189 52.7167 31.0238 52.593 31.0071ZM49.4962 20.5543C49.9319 21.109 49.8926 21.9078 49.9319 22.581C49.8795 23.2679 49.8858 24.1397 49.2388 24.536C49.0669 24.6023 48.8161 24.6612 48.6311 24.5621C47.9114 24.2126 47.9247 23.2746 47.8849 22.5749C47.9114 21.8946 47.8919 21.1948 48.2946 20.6002C48.4992 20.3626 48.8096 20.2438 49.1333 20.3297C49.2784 20.376 49.4038 20.4418 49.4962 20.5543ZM48.902 19.128C48.0238 19.128 47.2247 19.6498 46.8747 20.4351V20.4154C46.6106 21.1683 46.5463 21.9342 46.5513 22.7596C46.5546 23.3108 46.6106 23.8823 46.815 24.3838C47.0332 25.0439 47.5681 25.5858 48.2414 25.7574C48.7499 25.9292 49.3773 25.8563 49.8593 25.6652C51.2328 24.9386 51.3054 23.202 51.2592 21.855C51.18 20.9568 50.9951 19.94 50.2027 19.4383C49.8331 19.1939 49.3906 19.1015 48.902 19.128ZM60.0545 20.6929C60.1801 20.9835 60.2529 21.3266 60.1933 21.6502C60.0878 21.7693 59.9359 21.7626 59.7709 21.7693H58.6748C58.5886 21.7426 58.5161 21.6633 58.5161 21.5644C58.5094 21.0759 58.6349 20.5012 59.1238 20.3034C59.5067 20.1646 59.8964 20.376 60.0545 20.6929ZM58.4086 22.6228L61.144 22.608L61.4415 22.575C61.5271 22.5482 61.5404 22.4561 61.5536 22.3769C61.5671 21.2741 61.4021 19.9666 60.4774 19.3725C60.0879 19.1741 59.6784 19.0685 59.2094 19.1016C58.4896 19.1414 57.8223 19.584 57.5326 20.244C57.2351 20.9209 56.8457 22.2349 57.1758 23.704C57.3285 24.384 57.6116 25.1235 58.2389 25.4668C58.6287 25.6391 59.0381 25.8171 59.5264 25.7772C59.7712 25.7313 60.0417 25.7443 60.2532 25.6256C61.052 25.289 61.4812 24.1841 61.4878 23.3515L60.3191 23.3476L60.2595 23.3673C60.1671 23.7966 60.1408 24.3181 59.7115 24.5427C59.4278 24.6614 59.0448 24.6548 58.8267 24.4239C58.4568 24.0274 58.3826 23.138 58.4086 22.6228ZM63.5545 25.6434V22.2379L63.5576 22.1671C63.5643 21.7776 63.515 21.3665 63.8055 21.0825C64.0827 20.8117 64.4921 20.6664 64.9347 20.7191C64.9408 20.7455 64.9742 20.7656 65.0074 20.7455L65.0006 19.4648C64.9478 19.458 64.9609 19.425 64.9149 19.4051C64.6504 19.4315 64.36 19.3391 64.1556 19.4779C63.9639 19.544 63.8385 19.7815 63.6469 19.8409C63.495 19.742 63.495 19.4976 63.3367 19.4115C63.0263 19.3523 62.6632 19.392 62.3462 19.3787C62.3063 19.4115 62.234 19.3854 62.2011 19.4382C62.1352 19.5106 62.1744 19.6428 62.1879 19.7088C62.234 19.8343 62.2072 20.006 62.2734 20.0984V25.6433H63.5545V25.6434ZM45.059 25.632V22.0135C45.0655 21.6041 45.1119 21.1615 45.442 20.8975C45.6798 20.6465 46.1159 20.5694 46.4857 20.5545L46.485 19.3326L46.2742 19.306C45.891 19.2664 45.5477 19.425 45.2901 19.6692C45.244 19.6956 45.2173 19.7881 45.1383 19.7815C45.0392 19.8278 45.0064 19.7024 44.9796 19.6428C44.9203 19.544 44.9003 19.3723 44.7486 19.3586C44.4249 19.3126 44.0553 19.3194 43.7316 19.3586C43.6723 19.3918 43.6128 19.4313 43.5996 19.5042C43.8308 20.5409 43.6698 21.7557 43.7294 22.806L43.7316 22.8983L43.7449 25.6302L45.059 25.632ZM49.8806 18.1675L48.4201 18.1638C48.3736 17.2921 48.3343 16.5065 48.3144 15.6611C48.2814 14.7832 48.0107 13.799 47.1986 13.3501L46.6637 13.119C45.7194 12.9541 44.6763 13.027 44.0355 13.7531C43.5405 14.3672 43.4545 15.1663 43.3952 15.9124C43.2496 17.1536 43.3028 18.5338 42.6158 19.6498C42.1801 20.2571 41.4868 20.5345 40.8463 20.7921C40.7934 20.8249 40.7539 20.891 40.7803 20.9505C41.0247 21.1553 41.3812 21.2082 41.6389 21.4063C42.55 21.961 42.6622 23.1364 42.8075 24.1071C42.8669 24.5494 42.9196 25.0116 43.0321 25.4668C43.0517 25.5664 42.9529 25.6059 42.88 25.619L41.7377 25.6123C41.6256 25.5794 41.5859 25.4606 41.5464 25.3611C41.3217 24.5296 41.3611 23.6448 41.2158 22.8126C41.1366 22.2381 40.8065 21.7494 40.2849 21.5448C40.1068 21.4854 39.9153 21.4327 39.7171 21.4723C39.5454 21.5383 39.5522 21.7495 39.5522 21.8881C39.5783 23.0768 39.5653 24.2258 39.5653 25.5926L39.4858 25.6256L38.2712 25.6123C38.2315 25.5926 38.1587 25.5926 38.172 25.5265V15.9519C38.6078 15.9187 39.0701 15.9387 39.5191 15.932V19.94C39.5916 20.0326 39.5783 20.1911 39.7106 20.237C40.2521 20.2637 40.7869 20.0657 41.1631 19.6692C41.764 19.0155 41.8105 18.1045 41.883 17.2854C41.9357 16.229 41.9953 15.0864 42.3915 14.1026C42.8736 12.8878 44.1215 12.2209 45.3893 12.102C46.0036 12.0096 46.6572 12.0756 47.2315 12.2273C47.2646 12.2537 47.3175 12.2605 47.3634 12.2668C48.0436 12.5045 48.6247 12.9273 49.0274 13.5215C49.7935 14.5914 49.7869 15.7997 49.8728 17.094L49.8806 18.1675Z" fill="url(#paint5_linear_2206_11195)"/>
<defs>
<linearGradient id="paint0_linear_2206_11195" x1="69.852" y1="41.5435" x2="29.818" y2="1.37826" gradientUnits="userSpaceOnUse">
<stop stop-color="#7D1517"/>
<stop offset="0.1665" stop-color="#AE2729"/>
<stop offset="0.37" stop-color="#EF3E42"/>
<stop offset="0.3805" stop-color="#F04649"/>
<stop offset="0.3964" stop-color="#F15B5E"/>
<stop offset="0.4159" stop-color="#F47D80"/>
<stop offset="0.438" stop-color="#F8ADAF"/>
<stop offset="0.4622" stop-color="#FDEAEA"/>
<stop offset="0.47" stop-color="white"/>
<stop offset="0.472" stop-color="#FFF9F9"/>
<stop offset="0.4957" stop-color="#F9B7B9"/>
<stop offset="0.5172" stop-color="#F58386"/>
<stop offset="0.5357" stop-color="#F25D61"/>
<stop offset="0.5506" stop-color="#F0464A"/>
<stop offset="0.56" stop-color="#EF3E42"/>
<stop offset="0.6073" stop-color="#DA3539"/>
<stop offset="0.7402" stop-color="#A21E20"/>
<stop offset="0.8547" stop-color="#7A0E0F"/>
<stop offset="0.945" stop-color="#610404"/>
<stop offset="1" stop-color="#580000"/>
</linearGradient>
<linearGradient id="paint1_linear_2206_11195" x1="50.6197" y1="21.8063" x2="50.6197" y2="11.8306" gradientUnits="userSpaceOnUse">
<stop stop-color="#00529F"/>
<stop offset="0.121" stop-color="#00458B"/>
<stop offset="0.3076" stop-color="#003674"/>
<stop offset="0.5068" stop-color="#002B63"/>
<stop offset="0.7253" stop-color="#002459"/>
<stop offset="1" stop-color="#002256"/>
</linearGradient>
<linearGradient id="paint2_linear_2206_11195" x1="54.8626" y1="16.4611" x2="56.7877" y2="9.7231" gradientUnits="userSpaceOnUse">
<stop stop-color="#00529F"/>
<stop offset="0.2536" stop-color="#0254A0"/>
<stop offset="0.3909" stop-color="#0A59A3"/>
<stop offset="0.5003" stop-color="#1862A8"/>
<stop offset="0.5952" stop-color="#2B6FAF"/>
<stop offset="0.6805" stop-color="#4480B9"/>
<stop offset="0.759" stop-color="#6395C4"/>
<stop offset="0.8324" stop-color="#88AED2"/>
<stop offset="0.9016" stop-color="#B3CBE2"/>
<stop offset="0.9652" stop-color="#E2EBF4"/>
<stop offset="1" stop-color="white"/>
</linearGradient>
<linearGradient id="paint3_linear_2206_11195" x1="57.9168" y1="19.8348" x2="62.6421" y2="12.6593" gradientUnits="userSpaceOnUse">
<stop stop-color="#00529F"/>
<stop offset="0.2536" stop-color="#0254A0"/>
<stop offset="0.3909" stop-color="#0A59A3"/>
<stop offset="0.5003" stop-color="#1862A8"/>
<stop offset="0.5952" stop-color="#2B6FAF"/>
<stop offset="0.6805" stop-color="#4480B9"/>
<stop offset="0.759" stop-color="#6395C4"/>
<stop offset="0.8324" stop-color="#88AED2"/>
<stop offset="0.9016" stop-color="#B3CBE2"/>
<stop offset="0.9652" stop-color="#E2EBF4"/>
<stop offset="1" stop-color="white"/>
</linearGradient>
<linearGradient id="paint4_linear_2206_11195" x1="51.3204" y1="12.2681" x2="51.3204" y2="32.3069" gradientUnits="userSpaceOnUse">
<stop stop-color="#5B78B7"/>
<stop offset="0.033" stop-color="#6D86BF"/>
<stop offset="0.087" stop-color="#8698CA"/>
<stop offset="0.12" stop-color="#8F9FCE"/>
<stop offset="0.3029" stop-color="#93A2D0"/>
<stop offset="0.4664" stop-color="#9DABD4"/>
<stop offset="0.6226" stop-color="#B0BBDC"/>
<stop offset="0.7742" stop-color="#C9D1E8"/>
<stop offset="0.9212" stop-color="#EAEDF6"/>
<stop offset="1" stop-color="white"/>
</linearGradient>
<linearGradient id="paint5_linear_2206_11195" x1="51.5887" y1="31.7819" x2="51.5887" y2="19.6186" gradientUnits="userSpaceOnUse">
<stop stop-color="#5B78B7"/>
<stop offset="0.033" stop-color="#6D86BF"/>
<stop offset="0.087" stop-color="#8698CA"/>
<stop offset="0.12" stop-color="#8F9FCE"/>
<stop offset="0.3029" stop-color="#93A2D0"/>
<stop offset="0.4664" stop-color="#9DABD4"/>
<stop offset="0.6226" stop-color="#B0BBDC"/>
<stop offset="0.7742" stop-color="#C9D1E8"/>
<stop offset="0.9212" stop-color="#EAEDF6"/>
<stop offset="1" stop-color="white"/>
</linearGradient>
</defs>
</svg>
