<svg width="99" height="46" viewBox="0 0 99 46" fill="none" xmlns="http://www.w3.org/2000/svg">
<rect x="0.491211" y="0.549576" width="97.9822" height="44.0496" rx="7.5" fill="#202020" stroke="#414141"/>
<path d="M48.9585 38.1197C59.2972 38.1197 67.6791 31.3453 67.6791 22.9885C67.6791 14.632 59.2972 7.85725 48.9585 7.85725C38.6198 7.85725 30.2383 14.632 30.2383 22.9885C30.2383 31.3454 38.6198 38.1197 48.9585 38.1197Z" fill="#C2B9B5"/>
<path d="M49.5642 37.2912C59.9029 37.2912 68.2842 30.5165 68.2842 22.1603C68.2842 13.8035 59.9029 7.0291 49.5642 7.0291C39.2253 7.0291 30.8438 13.8035 30.8438 22.1603C30.8439 30.5166 39.2253 37.2912 49.5642 37.2912Z" fill="url(#paint0_linear_2206_11169)"/>
<path d="M49.6166 35.653C58.8252 35.653 66.2904 29.6065 66.2904 22.148C66.2904 14.6898 58.8252 8.64346 49.6166 8.64346C40.4077 8.64346 32.9424 14.6898 32.9424 22.148C32.9424 29.6065 40.4077 35.653 49.6166 35.653Z" fill="white"/>
<path d="M49.7175 34.7882C58.5455 34.7882 65.7026 29.0502 65.7026 21.9726C65.7026 14.8948 58.5455 9.15668 49.7175 9.15668C40.8895 9.15668 33.7324 14.8948 33.7324 21.9726C33.7324 29.0502 40.8894 34.7882 49.7175 34.7882Z" fill="url(#paint1_linear_2206_11169)"/>
<path d="M56.7543 13.6917C56.8251 12.6615 56.4858 11.6203 56.2761 10.7977C55.1137 10.3602 53.9422 10.0852 52.5409 9.84686C52.234 9.79693 52.4831 9.98915 52.4831 9.98915C53.1823 10.4933 54.6829 11.5076 54.9269 15.0153C54.9269 15.0153 55.0164 15.7019 55.2683 15.8392C55.5197 15.9765 56.2891 16.7476 57.1843 17.4297C56.9921 16.7135 56.6244 15.5756 56.7543 13.6917Z" fill="url(#paint2_linear_2206_11169)"/>
<path d="M62.2607 14.7175C60.9045 13.2702 59.3023 12.0842 57.1875 11.1842C57.4119 12.0325 57.5547 13.1296 57.4888 14.1895C57.3586 16.2682 57.8971 17.4498 58.0995 18.103C58.3136 18.283 58.4651 18.476 58.6929 18.6834C58.6929 18.6834 60.443 20.8494 62.1852 20.1369C63.2567 19.6983 64.1925 16.7795 62.2607 14.7175Z" fill="url(#paint3_linear_2206_11169)"/>
<path d="M48.3425 19.0854L46.8807 19.0816C46.8346 18.2092 46.7949 17.4228 46.7751 16.5766C46.7418 15.6976 46.471 14.7127 45.658 14.2633L45.1226 14.0318C44.1774 13.8669 43.133 13.9393 42.4919 14.6666C41.9963 15.2813 41.9103 16.0811 41.851 16.828C41.7053 18.0704 41.7583 19.4519 41.071 20.5692C40.6348 21.1771 39.9408 21.4547 39.2996 21.7127C39.2468 21.7455 39.2071 21.8116 39.2334 21.8712C39.4782 22.0758 39.8351 22.129 40.0929 22.3274C41.0049 22.8824 41.1174 24.059 41.2628 25.0307C41.3222 25.4736 41.3749 25.9363 41.4875 26.3919C41.5072 26.4911 41.4081 26.5308 41.3353 26.5439L40.1919 26.5374C40.0796 26.5044 40.04 26.3856 40.0003 26.2864C39.7754 25.4534 39.8149 24.5677 39.6696 23.735C39.5902 23.16 39.2598 22.6707 38.7375 22.4658C38.5592 22.4068 38.3675 22.3534 38.1691 22.393C37.9973 22.4595 38.0037 22.6707 38.0037 22.8094C38.0303 23.9992 38.0174 25.1494 38.0174 26.5175L37.9379 26.5506L36.7216 26.5374C36.6822 26.5175 36.6094 26.5175 36.6227 26.4516V16.8673C37.0588 16.8343 37.5216 16.854 37.971 16.8477V20.8597C38.0435 20.9522 38.0304 21.1108 38.1627 21.157C38.7047 21.1834 39.2401 20.9852 39.6166 20.5886C40.2181 19.9343 40.2646 19.0223 40.3372 18.2025C40.3899 17.1451 40.4495 16.0013 40.8462 15.0164C41.3288 13.8006 42.5779 13.133 43.8469 13.014C44.4617 12.9215 45.1162 12.9876 45.691 13.1394C45.7241 13.1658 45.777 13.1725 45.823 13.179C46.504 13.4169 47.0858 13.8401 47.4888 14.4349C48.2555 15.5059 48.2488 16.7153 48.3349 18.0111L48.3425 19.0854Z" fill="#002458"/>
<path d="M42.2001 26.5552L42.1869 23.8206L42.1845 23.7283C42.1248 22.6773 42.2861 21.4609 42.0547 20.4232C42.068 20.3507 42.1276 20.3111 42.1867 20.2778C42.5107 20.2382 42.8809 20.2318 43.2049 20.2778C43.3569 20.291 43.3767 20.4627 43.4358 20.5622C43.4626 20.6217 43.4955 20.7472 43.5947 20.7007C43.674 20.7074 43.7006 20.615 43.7466 20.5885C44.0045 20.3438 44.3481 20.1853 44.7315 20.2248L44.943 20.2513L44.9435 21.4747C44.5734 21.4895 44.1367 21.5669 43.8987 21.818C43.5683 22.0824 43.5218 22.5251 43.5153 22.9351V26.5567L42.2001 26.5552Z" fill="#002458"/>
<path d="M60.7474 26.5685V21.0183C60.6814 20.9258 60.7078 20.754 60.6616 20.6282C60.6484 20.5622 60.6086 20.43 60.675 20.3574C60.7079 20.3043 60.7805 20.3307 60.8203 20.2977C61.1375 20.3111 61.5013 20.2713 61.8116 20.3307C61.9702 20.4168 61.9702 20.6612 62.1223 20.7605C62.314 20.7008 62.4398 20.4629 62.6312 20.3972C62.836 20.2582 63.1268 20.3507 63.3914 20.3243C63.4377 20.344 63.4244 20.3771 63.4769 20.3835L63.4839 21.666C63.4507 21.686 63.4177 21.666 63.411 21.6396C62.9686 21.5867 62.5584 21.7321 62.2807 22.0032C61.9898 22.2876 62.0397 22.6991 62.0327 23.0887L62.0297 23.1599V26.5685H60.7474Z" fill="#002458"/>
<path d="M57.5947 21.2231C57.1053 21.4216 56.9803 21.9967 56.9866 22.4853C56.9866 22.5847 57.0594 22.664 57.1455 22.6906H58.2424C58.408 22.684 58.5596 22.6906 58.6655 22.5715C58.7252 22.2477 58.6522 21.904 58.5269 21.6132C58.3682 21.2959 57.9782 21.0844 57.5947 21.2231ZM57.2972 25.3476C57.5156 25.5789 57.8987 25.5858 58.1832 25.4664C58.6124 25.2417 58.6394 24.7195 58.7316 24.2898L58.7914 24.2703L59.961 24.2743C59.9546 25.1071 59.5249 26.2134 58.725 26.5504C58.5138 26.6693 58.2423 26.6565 57.9979 26.7025C57.5086 26.7422 57.099 26.5636 56.7089 26.3917C56.0811 26.0482 55.7978 25.308 55.6448 24.627C55.3142 23.1565 55.704 21.8409 56.0015 21.1636C56.2919 20.5031 56.9601 20.0599 57.6806 20.0201C58.1498 19.987 58.5594 20.0926 58.9494 20.2909C59.8751 20.886 60.0401 22.1947 60.0268 23.2984C60.0136 23.3777 60.0004 23.4706 59.9146 23.4969L59.6173 23.5296L56.8789 23.5445C56.8529 24.0604 56.9272 24.9512 57.2972 25.3476Z" fill="#002458"/>
<path d="M47.5944 21.2498C47.2704 21.1637 46.9597 21.2826 46.755 21.5206C46.3518 22.1155 46.3713 22.8162 46.3449 23.4971C46.3845 24.1975 46.3713 25.136 47.0919 25.4863C47.2769 25.5859 47.5281 25.5261 47.7001 25.4599C48.3477 25.0631 48.341 24.1913 48.3942 23.5034C48.3545 22.8293 48.3942 22.0296 47.9576 21.4745C47.8652 21.362 47.7399 21.2959 47.5944 21.2498ZM48.6651 20.3574C49.4584 20.8597 49.6432 21.8774 49.7229 22.7765C49.7689 24.125 49.6964 25.8631 48.3215 26.5902C47.8389 26.7818 47.2109 26.8547 46.7022 26.6826C46.0279 26.511 45.4923 25.9689 45.2745 25.308C45.0694 24.8056 45.0133 24.2339 45.01 23.6821C45.0052 22.8558 45.0694 22.0892 45.3336 21.3355V21.355C45.6842 20.5689 46.4838 20.0463 47.3629 20.0463C47.8521 20.0203 48.295 20.1128 48.6651 20.3574Z" fill="#002458"/>
<path d="M52.3861 21.3423C51.91 21.6066 51.7847 22.1552 51.7384 22.6706C51.7117 23.556 51.593 24.4421 52.1217 25.1558C52.267 25.295 52.4455 25.4005 52.6636 25.3804C52.9213 25.3609 53.1655 25.2155 53.2717 24.9708C53.6023 24.125 53.4169 23.2125 53.4501 22.3205C53.437 22.0824 53.4237 21.8113 53.2783 21.6131C53.1196 21.3092 52.7096 21.2231 52.3861 21.3423ZM51.9364 31.6662C52.9858 31.2913 53.3047 30.1199 53.3905 29.1083C53.4634 28.216 53.4765 27.3373 53.4106 26.4445C53.3842 26.3986 53.2982 26.3522 53.245 26.3986C52.9145 26.5968 52.538 26.7355 52.1215 26.6433C51.5397 26.5437 51.0309 26.2331 50.7797 25.6844C50.4826 25.1228 50.4073 24.4022 50.3499 23.8469C50.2923 23.2854 50.4194 21.9074 50.7334 21.2298C51.0206 20.6097 51.6188 20.0664 52.3595 20.0796C52.6504 20.0599 52.9863 20.1791 53.1906 20.324C53.2992 20.4009 53.4631 20.5689 53.5884 20.4232C53.6481 20.3376 53.7609 20.291 53.8661 20.2778C54.19 20.2778 54.5468 20.2449 54.8313 20.3376C54.8725 20.3581 54.8827 20.3804 54.8577 20.4301C54.6858 21.2167 54.7585 22.0296 54.7387 22.8162C54.7122 23.5232 54.7983 24.2503 54.7719 25.0105C54.7653 25.8631 54.7852 26.7356 54.7522 27.5751L54.7719 27.6146C54.7786 28.6853 54.7983 29.8356 54.3291 30.7477C53.754 31.9903 52.4914 32.6712 51.1696 32.8034C50.5089 32.81 49.8146 32.8233 49.2462 32.5852C48.8563 32.473 48.5518 32.2089 48.2215 31.9971C47.3952 31.3627 47.0121 30.3118 46.946 29.2805C46.8866 28.8773 46.8668 28.4212 46.8604 27.9914C46.8668 27.9322 46.8799 27.8523 46.946 27.8397H48.2745C48.367 27.9585 48.3737 28.1303 48.367 28.289C48.3938 29.1217 48.4398 29.9812 48.7174 30.7609C48.962 31.3889 49.5127 31.8284 50.1816 31.8909C50.4658 31.9173 50.7598 31.9374 51.0573 31.9374C51.1814 31.9539 51.7384 31.7492 51.9364 31.6662Z" fill="#002458"/>
<path d="M57.2265 27.9728C57.3245 27.9728 57.4124 27.9658 57.4124 27.8484C57.4124 27.7537 57.3263 27.7362 57.2455 27.7362H57.0879V27.9728H57.2265ZM57.088 28.4024H56.9724V27.6382H57.2633C57.4438 27.6382 57.5335 27.7044 57.5335 27.8553C57.5335 27.992 57.4475 28.0516 57.335 28.0657L57.5523 28.4024H57.4228L57.2211 28.071H57.088V28.4024ZM57.2282 28.5722C57.5279 28.5722 57.7645 28.3373 57.7645 28.0183C57.7645 27.7042 57.5279 27.468 57.2282 27.468C56.9248 27.468 56.6884 27.7044 56.6884 28.0183C56.6883 28.3373 56.9248 28.5722 57.2282 28.5722ZM56.5547 28.0183C56.5547 27.638 56.8634 27.3575 57.2282 27.3575C57.5892 27.3575 57.8976 27.6382 57.8976 28.0183C57.8976 28.4024 57.5892 28.683 57.2282 28.683C56.8634 28.683 56.5547 28.4024 56.5547 28.0183Z" fill="white"/>
<path d="M53.6456 21.0656C53.7911 21.2638 53.8044 21.5349 53.8176 21.7728C53.7846 22.6652 53.9698 23.5773 53.6396 24.4233C53.5334 24.6677 53.2891 24.8132 53.0309 24.8333C52.8129 24.853 52.6345 24.7472 52.4894 24.6081C51.9606 23.8944 52.0795 23.0087 52.1059 22.123C52.152 21.6073 52.2778 21.0587 52.7535 20.7948C53.0773 20.6755 53.4872 20.7615 53.6456 21.0656ZM51.4252 31.3899C51.1275 31.3899 50.8334 31.3697 50.5492 31.3432C49.8803 31.281 49.3297 30.8414 49.0853 30.2133C48.8074 29.4334 48.7614 28.5739 48.7349 27.7415C48.7413 27.5827 48.7349 27.4111 48.6424 27.2921H47.3136C47.2478 27.3055 47.2345 27.3847 47.2278 27.4438C47.2345 27.8736 47.2543 28.3295 47.3136 28.7329C47.38 29.7641 47.7633 30.8147 48.5896 31.4498C48.92 31.6611 49.2239 31.9252 49.6141 32.0378C50.1824 32.2756 50.8761 32.2627 51.5371 32.2558C52.8594 32.1239 54.1217 31.4429 54.6967 30.2002C55.1661 29.2882 55.1466 28.1379 55.1397 27.0675L55.1196 27.0276C55.1529 26.188 55.1333 25.3156 55.1397 24.463C55.1661 23.7029 55.08 22.9756 55.1064 22.2686C55.1264 21.4821 55.054 20.669 55.2253 19.8825C55.2503 19.8329 55.2403 19.8105 55.199 19.79C54.9148 19.6974 54.558 19.7304 54.2341 19.7304C54.1282 19.7437 54.0158 19.79 53.9568 19.8758C53.8308 20.021 53.6671 19.8532 53.5584 19.7765C53.3542 19.6317 53.0177 19.5124 52.7271 19.5321C51.9869 19.5189 51.3885 20.0623 51.1012 20.6823C50.7873 21.3599 50.66 22.7375 50.718 23.2997C50.7748 23.8551 50.85 24.5752 51.1478 25.137C51.3989 25.6856 51.9078 25.9964 52.4896 26.0956C52.9054 26.188 53.2823 26.0491 53.6127 25.851C53.6655 25.8046 53.7517 25.851 53.7779 25.8972C53.8443 26.7894 53.8309 27.6686 53.7585 28.5606C53.6726 29.5723 53.3534 30.7436 52.3043 31.1187C52.1058 31.2013 51.5491 31.4062 51.4252 31.3899ZM48.3251 20.9269C48.7614 21.4822 48.7216 22.282 48.7614 22.9561C48.7085 23.6433 48.7149 24.516 48.0673 24.9124C47.8954 24.979 47.6441 25.038 47.4591 24.9388C46.7388 24.5887 46.7517 23.65 46.7124 22.9495C46.7388 22.2686 46.7188 21.5677 47.1222 20.9731C47.3268 20.7351 47.6376 20.6161 47.9616 20.7021C48.107 20.7484 48.2326 20.8145 48.3251 20.9269ZM47.73 19.4989C46.8509 19.4989 46.0513 20.021 45.701 20.8076V20.7878C45.4364 21.5416 45.3721 22.3084 45.377 23.1343C45.3803 23.6861 45.4364 24.2579 45.6415 24.7603C45.8593 25.4211 46.3951 25.9633 47.0691 26.135C47.5781 26.307 48.2059 26.2345 48.6885 26.0423C50.0632 25.3154 50.1361 23.5772 50.0897 22.2289C50.0104 21.3298 49.8251 20.3122 49.0325 19.8099C48.6619 19.5654 48.2194 19.4729 47.73 19.4989ZM58.8934 21.0656C59.0192 21.3563 59.0921 21.7 59.0327 22.0238C58.9268 22.1428 58.7748 22.1362 58.6095 22.1428H57.5124C57.4265 22.1165 57.3538 22.037 57.3538 21.9377C57.3468 21.4491 57.4725 20.874 57.9619 20.6753C58.3453 20.537 58.7352 20.7484 58.8934 21.0656ZM57.2462 22.9972L59.9843 22.9825L60.2819 22.9495C60.3675 22.9231 60.3809 22.8305 60.3941 22.7513C60.4074 21.6473 60.2423 20.3386 59.317 19.7435C58.9268 19.5453 58.5169 19.4395 58.0479 19.4727C57.3275 19.5123 56.6589 19.9555 56.3689 20.6161C56.0715 21.2934 55.6814 22.609 56.0118 24.0795C56.165 24.7605 56.4483 25.5007 57.0762 25.8443C57.466 26.0167 57.8759 26.1947 58.3654 26.155C58.6096 26.1088 58.8805 26.1218 59.0922 26.0033C59.892 25.666 60.3213 24.5594 60.328 23.727L59.1582 23.7228L59.099 23.7425C59.0064 24.1722 58.9797 24.6942 58.55 24.9191C58.266 25.0378 57.8827 25.0313 57.6644 24.8001C57.2942 24.4037 57.2199 23.5128 57.2462 22.9972ZM62.3968 26.0211V22.6125L62.3999 22.5413C62.4069 22.1512 62.3571 21.74 62.648 21.4558C62.9257 21.1846 63.3353 21.0393 63.7784 21.092C63.7851 21.1184 63.8177 21.1385 63.8511 21.1184L63.8447 19.8362C63.7916 19.8297 63.8045 19.7965 63.7583 19.7768C63.4942 19.8033 63.2034 19.7107 62.9984 19.8497C62.8064 19.9155 62.681 20.1537 62.4893 20.2131C62.3375 20.114 62.3375 19.8694 62.1785 19.7833C61.8682 19.7242 61.5045 19.7638 61.1872 19.7505C61.1476 19.7833 61.0749 19.7573 61.0419 19.8103C60.9759 19.8828 61.0155 20.015 61.0287 20.0811C61.0749 20.2069 61.0483 20.3787 61.1147 20.4712V26.0214H62.3968V26.0211ZM43.8832 26.0097V22.3876C43.8897 21.9779 43.9362 21.535 44.2665 21.2705C44.5044 21.0194 44.9412 20.9422 45.3113 20.9272L45.311 19.7039L45.0995 19.6774C44.7161 19.6379 44.3721 19.7964 44.1143 20.041C44.0682 20.0675 44.0417 20.16 43.9625 20.1536C43.8635 20.1996 43.8304 20.074 43.8037 20.0146C43.7442 19.9154 43.7245 19.7435 43.5725 19.7303C43.2489 19.684 42.8786 19.6906 42.5546 19.7303C42.4951 19.7634 42.4355 19.8031 42.4223 19.8757C42.6537 20.9133 42.4927 22.1297 42.5521 23.1805L42.5548 23.2733L42.5678 26.0081L43.8832 26.0097ZM48.7096 18.5379L47.2478 18.534C47.2014 17.6617 47.1618 16.8752 47.1418 16.0291C47.1089 15.1499 46.8378 14.165 46.0249 13.7158L45.4894 13.4843C44.5442 13.3193 43.5001 13.3918 42.8589 14.1192C42.3632 14.7338 42.2774 15.5337 42.2177 16.2803C42.0723 17.5229 42.1252 18.9044 41.4377 20.0212C41.0014 20.6295 40.3074 20.9071 39.6666 21.1649C39.6138 21.1979 39.5741 21.2638 39.6002 21.3235C39.8449 21.5283 40.2019 21.5811 40.4598 21.7798C41.372 22.3349 41.4841 23.5115 41.6295 24.4827C41.6893 24.9255 41.742 25.3885 41.8543 25.8444C41.8743 25.9439 41.775 25.9834 41.7024 25.9966L40.5587 25.9896C40.4466 25.9569 40.4068 25.838 40.3673 25.7386C40.1426 24.906 40.1823 24.0204 40.0368 23.1874C39.9575 22.6125 39.627 22.1231 39.1049 21.9183C38.9263 21.859 38.7348 21.8058 38.5361 21.8454C38.3644 21.9117 38.3712 22.1231 38.3712 22.262C38.3976 23.4517 38.3845 24.602 38.3845 25.9702L38.3051 26.0034L37.0889 25.9897C37.0492 25.9703 36.9764 25.9703 36.9899 25.9043V16.3197C37.426 16.2868 37.8888 16.3065 38.3381 16.3001V20.3122C38.4109 20.4047 38.3978 20.5634 38.5298 20.6094C39.0718 20.6359 39.6073 20.4375 39.9837 20.041C40.5855 19.3868 40.6318 18.4747 40.7045 17.6549C40.7572 16.5973 40.8168 15.4538 41.2133 14.4689C41.6959 13.2529 42.945 12.5854 44.2141 12.4665C44.829 12.374 45.4833 12.4399 46.0584 12.5918C46.0912 12.6183 46.1442 12.6249 46.1904 12.6315C46.8714 12.8693 47.4529 13.2924 47.8561 13.8874C48.6227 14.9582 48.6164 16.1678 48.702 17.4633L48.7096 18.5379Z" fill="url(#paint4_linear_2206_11169)"/>
<path d="M53.9148 20.7576C54.0598 20.9557 54.0734 21.2268 54.0866 21.4647C54.0534 22.3572 54.2383 23.2693 53.908 24.1151C53.8025 24.3597 53.5581 24.5052 53.2999 24.525C53.0819 24.5447 52.9035 24.439 52.7583 24.3001C52.2295 23.5864 52.3481 22.7007 52.3749 21.815C52.421 21.2996 52.5465 20.7509 53.0227 20.4867C53.3463 20.3678 53.7562 20.4535 53.9148 20.7576ZM51.6937 31.0819C51.3963 31.0819 51.1022 31.062 50.8182 31.0349C50.1492 30.973 49.5986 30.5338 49.3539 29.9054C49.0764 29.1252 49.0299 28.2664 49.0035 27.4333C49.0103 27.2747 49.0035 27.1028 48.911 26.9838H47.5827C47.5166 26.9971 47.5033 27.0764 47.4969 27.1358C47.5033 27.5656 47.5233 28.0215 47.5827 28.4249C47.6488 29.4559 48.032 30.5067 48.8582 31.1416C49.1886 31.3529 49.4932 31.6174 49.8833 31.7298C50.4514 31.9679 51.1451 31.9548 51.8061 31.9478C53.1284 31.8159 54.3904 31.1349 54.9658 29.8921C55.4351 28.9804 55.415 27.8302 55.4084 26.7594L55.3886 26.7197C55.4218 25.8801 55.4018 25.0077 55.4084 24.1552C55.4351 23.3947 55.349 22.668 55.3754 21.9606C55.3951 21.1741 55.3226 20.3611 55.4943 19.5744C55.5192 19.5249 55.5093 19.5024 55.4677 19.4819C55.1837 19.3894 54.8269 19.4223 54.5028 19.4223C54.3972 19.4359 54.2848 19.4819 54.2253 19.568C54.0998 19.7134 53.9356 19.5455 53.8272 19.4685C53.6232 19.3236 53.2868 19.2046 52.9959 19.2241C52.2556 19.2111 51.6574 19.7546 51.3702 20.3743C51.056 21.0519 50.929 22.4303 50.9863 22.9917C51.0438 23.5471 51.119 24.2675 51.416 24.829C51.6675 25.3776 52.1761 25.6885 52.7584 25.7877C53.1744 25.88 53.5512 25.7411 53.8817 25.543C53.9345 25.4969 54.0207 25.543 54.047 25.5893C54.1132 26.4819 54.0999 27.3606 54.0271 28.2526C53.9416 29.2643 53.6225 30.4362 52.5731 30.811C52.3748 30.8935 51.8174 31.0986 51.6937 31.0819ZM48.5938 20.6188C49.0299 21.1741 48.9906 21.9737 49.0299 22.6476C48.9775 23.3352 48.9838 24.2078 48.3362 24.6045C48.1641 24.6709 47.913 24.7298 47.7278 24.6306C47.0074 24.2808 47.0207 23.3419 46.9809 22.6414C47.0074 21.9604 46.9879 21.26 47.391 20.6648C47.5958 20.427 47.9065 20.3081 48.2305 20.394C48.3757 20.4404 48.5013 20.5062 48.5938 20.6188ZM47.999 19.1912C47.1199 19.1912 46.32 19.7134 45.9697 20.4995V20.4798C45.7054 21.2335 45.641 22.0001 45.646 22.8263C45.6493 23.3781 45.7054 23.9502 45.91 24.4521C46.1283 25.1128 46.6637 25.6553 47.3378 25.8271C47.8468 25.9991 48.4748 25.9261 48.9572 25.7348C50.3321 25.0075 50.4048 23.2692 50.3585 21.9209C50.2793 21.0218 50.0942 20.0039 49.301 19.5018C48.931 19.2571 48.4881 19.1646 47.999 19.1912ZM59.1624 20.7576C59.2882 21.0485 59.3611 21.3919 59.3014 21.7158C59.1958 21.8351 59.0438 21.8284 58.8786 21.8351H57.7814C57.6951 21.8083 57.6226 21.7289 57.6226 21.63C57.6159 21.141 57.7415 20.5658 58.2309 20.3678C58.6142 20.2287 59.0042 20.4404 59.1624 20.7576ZM57.515 22.6894L60.2531 22.6745L60.5508 22.6416C60.6365 22.6148 60.6499 22.5225 60.663 22.4433C60.6766 21.3394 60.5114 20.0306 59.5858 19.4359C59.1959 19.2373 58.786 19.1317 58.3166 19.1648C57.596 19.2046 56.9281 19.6476 56.6381 20.3082C56.3404 20.9858 55.9505 22.3011 56.281 23.7716C56.4338 24.4524 56.7172 25.1926 57.3451 25.5362C57.7353 25.7087 58.1451 25.8869 58.6339 25.8469C58.8789 25.8009 59.1497 25.8139 59.3614 25.6952C60.161 25.3583 60.5906 24.2522 60.5972 23.4189L59.4273 23.4149L59.3677 23.4346C59.2752 23.8644 59.2489 24.3864 58.8191 24.6112C58.5352 24.73 58.1518 24.7234 57.9334 24.4923C57.5632 24.0954 57.4889 23.2051 57.515 22.6894ZM62.6659 25.713V22.3042L62.6691 22.2332C62.6758 21.8434 62.6264 21.4319 62.9171 21.1475C63.1946 20.8765 63.6044 20.731 64.0475 20.7839C64.0536 20.8103 64.087 20.8304 64.1202 20.8103L64.1134 19.5283C64.0606 19.5215 64.0737 19.4885 64.0276 19.4685C63.7629 19.4949 63.4722 19.4024 63.2677 19.5415C63.0757 19.6075 62.9502 19.8454 62.7584 19.9047C62.6064 19.8058 62.6064 19.5612 62.4479 19.475C62.1372 19.4157 61.7738 19.4554 61.4565 19.4421C61.4165 19.475 61.3441 19.4488 61.3112 19.5016C61.2452 19.5742 61.2845 19.7065 61.298 19.7726C61.3441 19.8982 61.3173 20.07 61.3836 20.1625V25.7129H62.6659V25.713ZM44.1522 25.7016V22.0795C44.1587 21.6697 44.2052 21.2266 44.5356 20.9624C44.7736 20.7112 45.2102 20.6339 45.5803 20.6191L45.5796 19.396L45.3686 19.3693C44.985 19.3297 44.6414 19.4885 44.3835 19.7329C44.3374 19.7593 44.3107 19.8519 44.2316 19.8454C44.1324 19.8916 44.0996 19.7661 44.0728 19.7065C44.0134 19.6075 43.9934 19.4357 43.8415 19.422C43.5175 19.3759 43.1475 19.3827 42.8235 19.422C42.7641 19.4553 42.7046 19.4948 42.6913 19.5677C42.9228 20.6054 42.7616 21.8214 42.8213 22.8728L42.8235 22.9652L42.8368 25.6998L44.1522 25.7016ZM48.9785 18.2297L47.5166 18.226C47.4701 17.3534 47.4308 16.5671 47.4108 15.7208C47.3778 14.8421 47.1068 13.8569 46.2939 13.4076L45.7585 13.1762C44.8133 13.0112 43.7691 13.0841 43.1277 13.8109C42.6322 14.4257 42.5462 15.2256 42.4868 15.9724C42.3411 17.2148 42.3943 18.5964 41.7066 19.7134C41.2705 20.3214 40.5765 20.599 39.9353 20.8569C39.8824 20.8898 39.8428 20.9558 39.8692 21.0155C40.1139 21.2205 40.4707 21.2734 40.7288 21.4717C41.6408 22.0269 41.7531 23.2035 41.8985 24.1751C41.9579 24.6179 42.0107 25.0805 42.1233 25.5362C42.1429 25.6359 42.044 25.6754 41.9711 25.6886L40.8276 25.6819C40.7154 25.6489 40.6757 25.53 40.6362 25.4304C40.4112 24.5981 40.4506 23.7124 40.3052 22.8794C40.226 22.3043 39.8955 21.8151 39.3734 21.6103C39.1951 21.5509 39.0034 21.4981 38.805 21.5378C38.6331 21.6039 38.64 21.8153 38.64 21.954C38.6661 23.1439 38.6531 24.294 38.6531 25.6622L38.5735 25.6952L37.3578 25.6819C37.3179 25.6622 37.2452 25.6622 37.2584 25.596V16.012C37.6946 15.9787 38.1574 15.9987 38.6069 15.992V20.0039C38.6794 20.0967 38.6661 20.2553 38.7986 20.3013C39.3405 20.3279 39.8759 20.1298 40.2525 19.7329C40.854 19.0786 40.9005 18.1666 40.973 17.3467C41.0259 16.2893 41.0855 15.1456 41.482 14.1608C41.9646 12.9448 43.2137 12.2773 44.4828 12.1582C45.0977 12.0657 45.752 12.1318 46.3269 12.2837C46.36 12.3101 46.4129 12.3169 46.4589 12.3232C47.1398 12.5612 47.7214 12.9844 48.1245 13.5792C48.8914 14.6501 48.8847 15.8596 48.9708 17.1552L48.9785 18.2297Z" fill="url(#paint5_linear_2206_11169)"/>
<defs>
<linearGradient id="paint0_linear_2206_11169" x1="68.9691" y1="41.6288" x2="28.8957" y2="1.42394" gradientUnits="userSpaceOnUse">
<stop stop-color="#7D1517"/>
<stop offset="0.1665" stop-color="#AE2729"/>
<stop offset="0.37" stop-color="#EF3E42"/>
<stop offset="0.3805" stop-color="#F04649"/>
<stop offset="0.3964" stop-color="#F15B5E"/>
<stop offset="0.4159" stop-color="#F47D80"/>
<stop offset="0.438" stop-color="#F8ADAF"/>
<stop offset="0.4622" stop-color="#FDEAEA"/>
<stop offset="0.47" stop-color="white"/>
<stop offset="0.472" stop-color="#FFF9F9"/>
<stop offset="0.4957" stop-color="#F9B7B9"/>
<stop offset="0.5172" stop-color="#F58386"/>
<stop offset="0.5357" stop-color="#F25D61"/>
<stop offset="0.5506" stop-color="#F0464A"/>
<stop offset="0.56" stop-color="#EF3E42"/>
<stop offset="0.6073" stop-color="#DA3539"/>
<stop offset="0.7402" stop-color="#A21E20"/>
<stop offset="0.8547" stop-color="#7A0E0F"/>
<stop offset="0.945" stop-color="#610404"/>
<stop offset="1" stop-color="#580000"/>
</linearGradient>
<linearGradient id="paint1_linear_2206_11169" x1="49.7175" y1="21.8721" x2="49.7175" y2="11.8866" gradientUnits="userSpaceOnUse">
<stop stop-color="#00529F"/>
<stop offset="0.121" stop-color="#00458B"/>
<stop offset="0.3076" stop-color="#003674"/>
<stop offset="0.5068" stop-color="#002B63"/>
<stop offset="0.7253" stop-color="#002459"/>
<stop offset="1" stop-color="#002256"/>
</linearGradient>
<linearGradient id="paint2_linear_2206_11169" x1="53.9652" y1="16.5216" x2="55.8922" y2="9.777" gradientUnits="userSpaceOnUse">
<stop stop-color="#00529F"/>
<stop offset="0.2536" stop-color="#0254A0"/>
<stop offset="0.3909" stop-color="#0A59A3"/>
<stop offset="0.5003" stop-color="#1862A8"/>
<stop offset="0.5952" stop-color="#2B6FAF"/>
<stop offset="0.6805" stop-color="#4480B9"/>
<stop offset="0.759" stop-color="#6395C4"/>
<stop offset="0.8324" stop-color="#88AED2"/>
<stop offset="0.9016" stop-color="#B3CBE2"/>
<stop offset="0.9652" stop-color="#E2EBF4"/>
<stop offset="1" stop-color="white"/>
</linearGradient>
<linearGradient id="paint3_linear_2206_11169" x1="57.0226" y1="19.8987" x2="61.7526" y2="12.7161" gradientUnits="userSpaceOnUse">
<stop stop-color="#00529F"/>
<stop offset="0.2536" stop-color="#0254A0"/>
<stop offset="0.3909" stop-color="#0A59A3"/>
<stop offset="0.5003" stop-color="#1862A8"/>
<stop offset="0.5952" stop-color="#2B6FAF"/>
<stop offset="0.6805" stop-color="#4480B9"/>
<stop offset="0.759" stop-color="#6395C4"/>
<stop offset="0.8324" stop-color="#88AED2"/>
<stop offset="0.9016" stop-color="#B3CBE2"/>
<stop offset="0.9652" stop-color="#E2EBF4"/>
<stop offset="1" stop-color="white"/>
</linearGradient>
<linearGradient id="paint4_linear_2206_11169" x1="50.4196" y1="12.3245" x2="50.4196" y2="32.3831" gradientUnits="userSpaceOnUse">
<stop stop-color="#5B78B7"/>
<stop offset="0.033" stop-color="#6D86BF"/>
<stop offset="0.087" stop-color="#8698CA"/>
<stop offset="0.12" stop-color="#8F9FCE"/>
<stop offset="0.3029" stop-color="#93A2D0"/>
<stop offset="0.4664" stop-color="#9DABD4"/>
<stop offset="0.6226" stop-color="#B0BBDC"/>
<stop offset="0.7742" stop-color="#C9D1E8"/>
<stop offset="0.9212" stop-color="#EAEDF6"/>
<stop offset="1" stop-color="white"/>
</linearGradient>
<linearGradient id="paint5_linear_2206_11169" x1="50.6883" y1="31.8575" x2="50.6883" y2="19.6822" gradientUnits="userSpaceOnUse">
<stop stop-color="#5B78B7"/>
<stop offset="0.033" stop-color="#6D86BF"/>
<stop offset="0.087" stop-color="#8698CA"/>
<stop offset="0.12" stop-color="#8F9FCE"/>
<stop offset="0.3029" stop-color="#93A2D0"/>
<stop offset="0.4664" stop-color="#9DABD4"/>
<stop offset="0.6226" stop-color="#B0BBDC"/>
<stop offset="0.7742" stop-color="#C9D1E8"/>
<stop offset="0.9212" stop-color="#EAEDF6"/>
<stop offset="1" stop-color="white"/>
</linearGradient>
</defs>
</svg>
