<svg width="100" height="46" viewBox="0 0 100 46" fill="none" xmlns="http://www.w3.org/2000/svg">
<rect x="1.11523" y="0.510498" width="97.8848" height="44.0052" rx="7.5" fill="white" stroke="#EDEDED"/>
<path d="M68.6969 19.4406V8.90985C68.6969 8.00282 67.9369 6.98315 66.7051 6.98315H33.803C32.4382 6.98315 31.6782 7.68701 31.6782 8.97705V15.897C31.6879 15.9229 31.6927 19.4419 31.6801 19.4419H68.6957L68.6969 19.4406Z" fill="#004F99"/>
<path d="M31.6811 20.6344C31.6896 20.6391 31.668 24.5093 31.678 24.5004V29.6395C31.7542 32.7581 35.4057 33.6919 35.4123 33.6919L50.1253 38.677L64.8866 33.6828C64.8834 33.6919 68.6964 32.7489 68.6964 29.5729V20.6407L68.6952 20.6388H31.6893L31.6811 20.6344Z" fill="#EF3E42"/>
<path d="M38.6637 32.8013C38.6741 32.8079 42.2794 22.9331 42.2581 22.9135H44.5912C44.6056 22.9173 48.4437 32.7871 48.4092 32.8013H46.0811L45.4851 31.2219H41.526L40.9608 32.8013H38.6637ZM44.7671 29.3158L43.5234 25.9895L43.4943 25.9514L42.2954 29.3158H44.7671ZM49.4013 22.9709H51.7109V32.7824H49.4013V22.9709ZM53.3667 22.9709H58.1762C59.6097 22.9709 61.8948 24.1805 61.9152 27.6774C61.9305 30.4354 60.7251 32.7824 57.3613 32.7824H53.3667V22.9709ZM55.5637 31.0043H57.0285C59.2386 31.0043 59.7543 29.5211 59.7386 27.9077C59.7192 25.9687 59.2518 24.8061 57.1762 24.8061H55.5637V31.0043ZM45.9026 8.60004H48.3176V17.7089H45.9026V8.60004ZM49.024 8.60004H56.0125V10.6435H53.7136V17.7089H51.3555V10.6435H49.024V8.60004ZM63.0783 12.2209V14.1489H59.052V15.7809H63.7884V17.7089H56.846V8.60004H63.7884V10.6435H59.052V12.2209H63.0783ZM37.0101 8.61581H41.7829C44.104 8.61581 45.0538 9.95633 45.0538 11.736C45.0538 12.7844 44.4187 13.9971 43.1154 14.5126C43.1263 14.5085 45.2075 17.7568 45.168 17.7243H42.2904C42.302 17.7303 38.7751 12.9421 38.7641 12.9399C38.7798 12.9424 41.351 12.9399 41.356 12.9399C41.6383 12.9399 42.6922 12.8926 42.7023 11.7672C42.712 10.6372 41.7547 10.5416 41.3522 10.5416H39.2095V17.7243H37.0098L37.0101 8.61581Z" fill="white"/>
<path d="M64.1411 36.4557C64.1411 35.7985 64.6706 35.3142 65.297 35.3142C65.9168 35.3142 66.4466 35.7985 66.4466 36.4557C66.4466 37.1185 65.9168 37.6028 65.297 37.6028C64.6709 37.6028 64.1411 37.1185 64.1411 36.4557ZM65.297 37.4122C65.8117 37.4122 66.2176 37.0068 66.2176 36.456C66.2176 35.914 65.8117 35.5051 65.297 35.5051C64.7763 35.5051 64.3698 35.914 64.3698 36.456C64.3698 37.0068 64.7763 37.4122 65.297 37.4122ZM65.0558 37.1185H64.8572V35.7985H65.3569C65.6668 35.7985 65.8205 35.9136 65.8205 36.1736C65.8205 36.4099 65.6731 36.5128 65.4805 36.537L65.8534 37.1182H65.6304L65.2844 36.5459H65.0558V37.1185ZM65.2942 36.3768C65.4623 36.3768 65.6129 36.3648 65.6129 36.1616C65.6129 35.9982 65.4651 35.9679 65.3274 35.9679H65.0561V36.3768H65.2942Z" fill="#004F99"/>
</svg>
