<svg width="99" height="46" viewBox="0 0 99 46" fill="none" xmlns="http://www.w3.org/2000/svg">
<rect x="0.517578" y="0.599152" width="97.9822" height="44.0496" rx="7.5" fill="#202020" stroke="#414141"/>
<path d="M68.1665 19.5484V9.00727C68.1665 8.09934 67.4057 7.07867 66.1727 7.07867H33.2382C31.8721 7.07867 31.1113 7.78323 31.1113 9.07454V16.0013C31.1211 16.0272 31.1258 19.5497 31.1132 19.5497H68.1653L68.1665 19.5484Z" fill="white"/>
<path d="M31.1143 20.7434C31.1227 20.7481 31.1011 24.622 31.1111 24.6132V29.7573C31.1874 32.879 34.8424 33.8137 34.849 33.8137L49.5765 38.8037L64.3524 33.8046C64.3493 33.8137 68.166 32.8698 68.166 29.6907V20.7497L68.1647 20.7478H31.1224L31.1143 20.7434Z" fill="#EF3E42"/>
<path d="M38.1039 32.9222C38.1142 32.9289 41.7231 23.0443 41.7017 23.0247H44.0371C44.0516 23.0285 47.8934 32.908 47.8589 32.9222H45.5285L44.932 31.3413H40.9689L40.4031 32.9222H38.1039ZM44.2133 29.4333L42.9683 26.1038L42.9391 26.0656L41.7391 29.4333H44.2133ZM48.852 23.0822H51.1638V32.9033H48.852V23.0822ZM52.8213 23.0822H57.6355C59.0704 23.0822 61.3578 24.293 61.3782 27.7933C61.3936 30.554 60.1869 32.9033 56.8198 32.9033H52.8213V23.0822ZM55.0204 31.1234H56.4867C58.699 31.1234 59.2152 29.6389 59.1995 28.0238C59.18 26.0829 58.7122 24.9192 56.6346 24.9192H55.0204V31.1234ZM45.3499 8.69714H47.7672V17.8149H45.3499V8.69714ZM48.4743 8.69714H55.4697V10.7426H53.1686V17.8149H50.8081V10.7426H48.4743V8.69714ZM62.5424 12.3216V14.2515H58.5122V15.8851H63.2533V17.8149H56.304V8.69714H63.2533V10.7426H58.5122V12.3216H62.5424ZM36.4486 8.71293H41.2261C43.5495 8.71293 44.5002 10.0548 44.5002 11.8362C44.5002 12.8856 43.8644 14.0996 42.5598 14.6156C42.5708 14.6115 44.6541 17.863 44.6145 17.8304H41.7341C41.7457 17.8364 38.2153 13.0435 38.2043 13.0413C38.22 13.0438 40.7937 13.0413 40.7987 13.0413C41.0813 13.0413 42.1363 12.9939 42.1463 11.8675C42.1561 10.7363 41.1978 10.6406 40.795 10.6406H38.6502V17.8304H36.4482L36.4486 8.71293Z" fill="#004F99"/>
<path d="M63.6064 36.5802C63.6064 35.9224 64.1364 35.4376 64.7635 35.4376C65.3839 35.4376 65.9142 35.9224 65.9142 36.5802C65.9142 37.2437 65.3839 37.7284 64.7635 37.7284C64.1368 37.7284 63.6064 37.2437 63.6064 36.5802ZM64.7635 37.5377C65.2787 37.5377 65.685 37.1319 65.685 36.5805C65.685 36.038 65.2787 35.6287 64.7635 35.6287C64.2423 35.6287 63.8353 36.038 63.8353 36.5805C63.8353 37.1319 64.2423 37.5377 64.7635 37.5377ZM64.522 37.2437H64.3233V35.9224H64.8234C65.1336 35.9224 65.2875 36.0376 65.2875 36.2979C65.2875 36.5344 65.1399 36.6373 64.9471 36.6617L65.3205 37.2434H65.0972L64.7509 36.6705H64.522V37.2437ZM64.7606 36.5012C64.9289 36.5012 65.0796 36.4892 65.0796 36.2859C65.0796 36.1223 64.9318 36.092 64.7939 36.092H64.5223V36.5012H64.7606Z" fill="#004F99"/>
</svg>
