<svg width="99" height="46" viewBox="0 0 99 46" fill="none" xmlns="http://www.w3.org/2000/svg">
<rect x="0.526367" y="0.549576" width="97.9822" height="44.0496" rx="7.5" fill="#202020" stroke="#414141"/>
<path d="M14.827 22.3465L14.1035 21.937C13.2435 21.4273 12.7748 21.0587 12.7748 20.4535C12.7748 19.7891 13.3208 19.3796 14.2036 19.3796C14.7906 19.3796 15.5142 19.6344 16.4925 20.1623L16.6109 20.2396V18.5195L16.5927 18.5013C15.7508 18.069 14.9499 17.8734 14.0717 17.8734C12.2241 17.8688 10.9727 18.9427 10.9727 20.5263C10.9727 21.8369 11.8146 22.5968 13.1024 23.3613L13.8441 23.8118C14.8999 24.4398 15.273 24.8857 15.273 25.5501C15.273 26.3328 14.5677 26.8789 13.5711 26.8789C12.7702 26.8789 11.9102 26.5649 10.8317 25.8823L10.8135 25.8414V27.8163L10.95 27.8936C11.7918 28.285 12.6883 28.4807 13.6667 28.4807C15.7599 28.4807 17.1478 27.2884 17.1478 25.491C17.1478 24.1986 16.5016 23.3204 14.8225 22.342L14.827 22.3465ZM27.5731 28.2531H29.3706V23.8164H33.3568V22.2328H29.3706V19.7118H33.5525V18.11H27.5685V28.2486L27.5731 28.2531ZM36.5058 23.739H40.3373V22.1554H36.5058V19.7118H40.6513V18.11H34.7265V28.2486H40.7287V26.624H36.5058V23.7299V23.739ZM66.7532 18.1009C66.7532 18.1009 65.7748 19.6435 64.4643 21.7004C64.3687 21.8551 64.2868 21.9916 64.2504 22.0917H64.2322C64.1912 21.9962 64.1139 21.8551 64.0183 21.7004C62.6122 19.4934 61.7112 18.1009 61.7112 18.1009H59.5406L63.313 23.6343V28.2486H65.1514V23.6343C65.3471 23.3431 68.9238 18.1009 68.9238 18.1009H66.7532ZM56.9968 17.7687L52.2279 28.2486H54.1846L54.9264 26.4875H59.2448L60.0093 28.2486H61.9433L57.1743 17.7687H56.9968ZM58.6214 25.0223H55.5543C55.5543 25.0223 56.3962 22.9882 56.9422 21.7368C57.0378 21.5229 57.0788 21.2499 57.0788 21.2499H57.097C57.097 21.2499 57.1561 21.5229 57.2335 21.7368C57.8023 23.0473 58.6214 25.0223 58.6214 25.0223ZM52.287 18.1009C52.287 18.1009 50.9173 22.3829 50.4896 23.7527C50.4486 23.9074 50.3713 24.185 50.3531 24.2623H50.3349C50.3349 24.2032 50.2575 23.9119 50.1983 23.7527C49.8662 22.8517 47.8912 17.7323 47.8912 17.7323H47.7365C47.7365 17.7323 45.8617 22.6605 45.4294 23.7527C45.3702 23.9301 45.2929 24.2032 45.2929 24.2623H45.2747C45.2747 24.2032 45.1973 23.9119 45.1382 23.7527C44.6877 22.3465 43.3407 18.1009 43.3407 18.1009H41.4249L45.0608 28.599H45.2383C45.2383 28.599 47.2724 23.5342 47.6637 22.5377C47.7229 22.4011 47.8002 22.0872 47.8002 22.028H47.8184C47.8184 22.0872 47.8958 22.3784 47.9549 22.5377C48.2871 23.3795 50.3804 28.599 50.3804 28.599H50.5578L54.1937 18.1009H52.2961H52.287ZM21.9805 17.7687L17.1933 28.2486H19.1501L19.9145 26.4875H24.2376L25.002 28.2486H26.936L22.158 17.7687H21.9805ZM23.605 25.0223H20.5152C20.5152 25.0223 21.3571 22.9882 21.9031 21.7368C21.9987 21.5229 22.0578 21.2499 22.0578 21.2499H22.076C22.076 21.2499 22.1352 21.5229 22.2126 21.7368C22.7586 23.0473 23.6005 25.0223 23.6005 25.0223H23.605Z" fill="white"/>
<path d="M79.1124 27.5433C79.1124 24.7265 74.9305 24.4716 74.9305 20.4672C74.9305 17.5912 77.1602 16.1669 79.39 15.9303C79.1761 15.9303 78.9577 15.9121 78.6665 15.9121C78.1204 15.9121 77.8656 15.9303 77.4151 15.953C73.2513 16.1487 71.0398 18.3785 70.9033 21.8005C70.9033 22.0144 70.8623 22.4057 70.8623 23.0109C70.8623 23.6161 70.8805 23.9893 70.9033 24.2214C71.0398 27.5433 73.1512 29.7548 77.1011 30.0461C77.7245 29.9277 79.1124 29.459 79.1124 27.5433ZM86.4433 21.7959C86.3068 18.5514 84.3137 16.3808 80.5595 15.9895C79.8951 16.126 78.5846 16.6174 78.5846 18.4922C78.5846 21.309 82.7711 21.5639 82.7711 25.5683C82.7711 28.0711 80.8735 29.8913 78.0385 30.1052C78.216 30.1052 78.4116 30.1234 78.6665 30.1234C79.2125 30.1234 79.4674 30.1052 79.9179 30.0825C84.0816 29.8868 86.2932 27.657 86.4479 24.235C86.4479 24.0211 86.4661 23.6298 86.4661 23.0246C86.4843 22.3966 86.4661 22.028 86.4479 21.7914L86.4433 21.7959Z" fill="#D6232A"/>
<path d="M82.7661 25.5729C82.7661 21.5821 78.6023 21.309 78.6023 18.4968C78.6023 16.622 79.9129 16.1305 80.5773 15.994C80.3634 15.9758 80.145 15.9531 79.9311 15.9349C79.7354 15.9349 79.5579 15.9167 79.4032 15.9167C77.1735 16.1533 74.9482 17.5776 74.9482 20.4535C74.9482 24.4398 79.1347 24.7174 79.1347 27.5114C79.1347 29.4272 77.7468 29.9186 77.1188 30.0324C77.2372 30.0506 77.3327 30.0506 77.451 30.0506C77.6877 30.0688 77.8833 30.0688 78.079 30.0688C80.8958 29.8913 82.7706 28.0757 82.7706 25.5729" fill="white"/>
<path d="M86.7388 29.3225H86.4658V29.227H87.1711V29.3225H86.8981V30.1234H86.7616V29.3225H86.7434H86.7388ZM87.2849 29.227H87.4988L87.7536 29.9095L88.0085 29.227H88.2223V30.128H88.0858V29.3453L87.7946 30.128H87.699L87.4078 29.3453V30.128H87.2713V29.227H87.2895H87.2849Z" fill="white"/>
</svg>
