<svg width="100" height="46" viewBox="0 0 100 46" fill="none" xmlns="http://www.w3.org/2000/svg">
<rect x="0.672852" y="0.505249" width="97.8848" height="44.0052" rx="7.5" fill="white" stroke="#EDEDED"/>
<path d="M14.9588 22.2803L14.236 21.8711C13.3768 21.362 12.9086 20.9937 12.9086 20.3891C12.9086 19.7254 13.4541 19.3163 14.336 19.3163C14.9225 19.3163 15.6453 19.5708 16.6227 20.0982L16.7409 20.1755V18.457L16.7227 18.4389C15.8817 18.007 15.0816 17.8115 14.2042 17.8115C12.3585 17.807 11.1083 18.8798 11.1083 20.4619C11.1083 21.7711 11.9494 22.5303 13.2359 23.294L13.9769 23.7441C15.0316 24.3715 15.4044 24.817 15.4044 25.4807C15.4044 26.2626 14.6997 26.8082 13.7041 26.8082C12.904 26.8082 12.0448 26.4945 10.9674 25.8126L10.9492 25.7716V27.7446L11.0856 27.8219C11.9266 28.2129 12.8222 28.4084 13.7996 28.4084C15.8908 28.4084 17.2773 27.2173 17.2773 25.4216C17.2773 24.1305 16.6318 23.2531 14.9543 22.2757L14.9588 22.2803ZM27.6923 28.1811H29.488V23.7487H33.4704V22.1666H29.488V19.6481H33.6659V18.0479H27.6878V28.1765L27.6923 28.1811ZM36.6163 23.6714H40.444V22.0893H36.6163V19.6481H40.7577V18.0479H34.8387V28.1765H40.835V26.5536H36.6163V23.6623V23.6714ZM66.8339 18.0388C66.8339 18.0388 65.8565 19.5799 64.5472 21.6347C64.4518 21.7893 64.3699 21.9257 64.3336 22.0257H64.3154C64.2745 21.9302 64.1972 21.7893 64.1017 21.6347C62.697 19.4299 61.7969 18.0388 61.7969 18.0388H59.6284L63.3971 23.5668V28.1765H65.2337V23.5668C65.4292 23.2759 69.0024 18.0388 69.0024 18.0388H66.8339ZM57.0871 17.7069L52.3229 28.1765H54.2777L55.0187 26.4172H59.3329L60.0966 28.1765H62.0287L57.2644 17.7069H57.0871ZM58.7101 24.9534H55.646C55.646 24.9534 56.4871 22.9213 57.0326 21.6711C57.1281 21.4574 57.169 21.1847 57.169 21.1847H57.1872C57.1872 21.1847 57.2463 21.4574 57.3235 21.6711C57.8918 22.9804 58.7101 24.9534 58.7101 24.9534ZM52.382 18.0388C52.382 18.0388 51.0136 22.3166 50.5863 23.685C50.5454 23.8396 50.4681 24.1169 50.4499 24.1942H50.4317C50.4317 24.1351 50.3544 23.8441 50.2953 23.685C49.9635 22.7849 47.9905 17.6706 47.9905 17.6706H47.8359C47.8359 17.6706 45.9629 22.594 45.5311 23.685C45.472 23.8623 45.3947 24.1351 45.3947 24.1942H45.3765C45.3765 24.1351 45.2992 23.8441 45.2401 23.685C44.7901 22.2803 43.4444 18.0388 43.4444 18.0388H41.5305L45.1628 28.5266H45.3401C45.3401 28.5266 47.3722 23.4668 47.7632 22.4712C47.8223 22.3348 47.8996 22.0212 47.8996 21.9621H47.9177C47.9177 22.0212 47.995 22.3121 48.0541 22.4712C48.386 23.3122 50.4772 28.5266 50.4772 28.5266H50.6545L54.2868 18.0388H52.3911H52.382ZM22.1052 17.7069L17.3228 28.1765H19.2776L20.0413 26.4172H24.3601L25.1238 28.1765H27.0559L22.2825 17.7069H22.1052ZM23.7282 24.9534H20.6414C20.6414 24.9534 21.4824 22.9213 22.028 21.6711C22.1234 21.4574 22.1825 21.1847 22.1825 21.1847H22.2007C22.2007 21.1847 22.2598 21.4574 22.3371 21.6711C22.8826 22.9804 23.7236 24.9534 23.7236 24.9534H23.7282Z" fill="#231F20"/>
<path d="M79.1805 27.4719C79.1805 24.6579 75.0027 24.4033 75.0027 20.4028C75.0027 17.5297 77.2302 16.1067 79.4578 15.8703C79.2441 15.8703 79.0259 15.8522 78.735 15.8522C78.1894 15.8522 77.9349 15.8703 77.4848 15.8931C73.3252 16.0886 71.1158 18.3161 70.9794 21.7348C70.9794 21.9484 70.9385 22.3394 70.9385 22.944C70.9385 23.5486 70.9567 23.9214 70.9794 24.1533C71.1158 27.4719 73.2251 29.6813 77.1711 29.9722C77.7939 29.854 79.1805 29.3858 79.1805 27.4719ZM86.5042 21.7302C86.3678 18.4889 84.3766 16.3204 80.6261 15.9294C79.9624 16.0658 78.6531 16.5568 78.6531 18.4298C78.6531 21.2438 82.8355 21.4984 82.8355 25.4989C82.8355 27.9992 80.9398 29.8176 78.1076 30.0313C78.2849 30.0313 78.4804 30.0495 78.735 30.0495C79.2805 30.0495 79.5351 30.0313 79.9851 30.0086C84.1448 29.8131 86.3542 27.5855 86.5087 24.1669C86.5087 23.9532 86.5269 23.5623 86.5269 22.9576C86.5451 22.3303 86.5269 21.9621 86.5087 21.7257L86.5042 21.7302Z" fill="#D6232A"/>
<path d="M82.8311 25.5035C82.8311 21.5166 78.6715 21.2438 78.6715 18.4343C78.6715 16.5614 79.9807 16.0704 80.6445 15.934C80.4308 15.9158 80.2126 15.8931 79.9989 15.8749C79.8035 15.8749 79.6262 15.8567 79.4716 15.8567C77.244 16.0931 75.021 17.516 75.021 20.3891C75.021 24.3715 79.2034 24.6488 79.2034 27.4401C79.2034 29.354 77.8168 29.8449 77.1895 29.9586C77.3077 29.9768 77.4031 29.9768 77.5213 29.9768C77.7577 29.995 77.9532 29.995 78.1487 29.995C80.9627 29.8177 82.8357 28.0038 82.8357 25.5035" fill="white"/>
<path d="M86.8001 29.2494H86.5273V29.1539H87.232V29.2494H86.9592V30.0495H86.8228V29.2494H86.8047H86.8001ZM87.3456 29.1539H87.5593L87.8139 29.8358L88.0685 29.1539H88.2821V30.054H88.1457V29.2721L87.8548 30.054H87.7593L87.4684 29.2721V30.054H87.332V29.1539H87.3502H87.3456Z" fill="#231F20"/>
</svg>
