<svg width="99" height="46" viewBox="0 0 99 46" fill="none" xmlns="http://www.w3.org/2000/svg">
<rect x="0.508789" y="0.5" width="97.9822" height="44.0496" rx="7.5" fill="#202020" stroke="#414141"/>
<path fill-rule="evenodd" clip-rule="evenodd" d="M42.9106 16.7842C42.599 19.5076 40.0192 21.5758 37.9874 23.0835C37.8435 23.4238 38.1789 23.6677 38.418 23.7883C41.3089 24.0322 41.9542 20.7724 44.2965 19.751C45.8744 19.1189 47.9052 18.8023 49.3858 19.849C49.2425 20.3589 48.3829 20.3589 48.5976 20.9668V21.2113C46.7811 24.6649 44.487 29.7489 39.851 29.8215C39.4696 29.7483 39.3977 29.3348 39.4209 28.945C39.541 27.9725 40.353 27.2666 41.1898 26.8294C41.3962 26.751 41.6144 26.7096 41.8347 26.7072C41.9542 27.2666 41.2618 27.7286 41.7871 28.1437C43.1016 27.6322 43.6279 26.1488 44.0326 24.9809C43.0777 25.2733 41.7156 26.3184 40.7116 25.2733C40.6164 25.0304 40.5921 24.5437 40.2578 24.5922C39.3014 25.3702 38.2032 26.1251 36.8877 25.8085C36.3857 25.6141 36.0038 25.1026 35.6218 24.7623C34.3787 25.5657 32.6828 26.3448 31.2012 25.5657C30.7711 25.2485 30.8668 24.5922 30.7954 24.1065H30.6748C29.5523 25.1026 28.1907 26.0508 26.6372 25.4677C25.9199 24.5437 26.6128 23.3511 26.9477 22.4508C28.9784 19.9944 32.3242 18.4857 35.2627 19.6541C35.2394 20.6034 34.2121 21.1612 33.4948 21.4056C33.0891 21.9661 32.6585 22.6462 32.8971 23.4006C33.5906 24.2018 34.666 23.5939 35.4071 23.2784C35.5737 22.9144 35.6694 22.4761 35.789 22.0868C36.7935 19.6304 38.9433 16.8563 41.6437 16.2969C42.1452 16.2964 42.6472 16.3448 42.9106 16.7842ZM46.112 21.2344C46.04 21.5995 45.6824 21.8197 45.5148 22.1342C44.8223 22.9133 43.9379 23.4232 42.9106 23.4232C42.6715 23.1793 42.6715 22.8143 42.7424 22.5477C43.101 21.6474 44.1288 21.1359 45.0133 20.9658C45.3714 20.9426 45.8009 20.9663 46.112 21.2344ZM37.9879 21.648C38.107 20.3826 39.0633 19.0936 40.234 18.4125C39.9706 19.6299 39.111 20.8214 37.9879 21.648ZM10.7689 18.7538C10.7689 18.778 10.7689 18.8507 10.7208 18.8507H10.6737V18.7538H10.7689ZM68.2888 20.7724C68.0978 21.2113 67.7148 21.502 67.3567 21.8197C66.9748 22.1347 66.4966 22.3043 66.0427 22.4503C66.066 21.5758 67.1647 20.9663 67.8835 20.6028C68.0248 20.6028 68.1444 20.6755 68.2888 20.7724ZM32.038 21.3319C31.2969 22.2569 30.2691 22.8896 29.2413 23.2294C28.9551 23.2778 28.5954 23.2778 28.4288 23.0587C28.4288 22.7416 28.3574 22.2806 28.6203 22.0136C29.5285 21.1365 30.9134 20.724 32.038 21.3319ZM28.2373 16.2964C29.4571 19.0936 27.1386 21.5995 25.2745 23.5934C23.458 25.2728 21.2601 26.3179 18.7507 25.8559C18.2487 25.7111 17.89 25.2965 17.4594 25.0052C16.1698 25.711 14.4728 26.4169 13.015 25.5646C12.4178 25.1016 12.2035 24.3967 12.1078 23.6671C12.0596 21.8666 13.2779 20.5285 14.2581 19.1183C12.6563 19.2153 10.9356 18.5104 9.52637 19.4097C9.55017 18.5341 9.64643 17.5369 10.506 17.026C12.7283 15.7612 15.1415 17.5127 17.46 16.6367V16.7573C15.9074 18.7043 14.1866 20.7714 14.7357 23.399C14.9034 23.7151 15.1663 24.0543 15.572 24.2002C16.2412 24.225 16.8146 24.0543 17.2447 23.5449C17.2447 20.7956 18.7745 18.3145 21.1633 16.8305C21.8097 16.5145 22.5741 16.2221 23.3623 16.4897C23.7204 16.8305 23.8394 17.2683 23.7685 17.7793C23.0999 19.8469 21.7378 21.6464 20.0408 23.2525C20.1842 23.6898 20.5904 24.1281 21.021 24.225C23.5781 24.5421 25.0597 21.7444 25.9437 19.7974C26.3504 18.9224 26.0156 17.8035 25.3227 17.1224C25.9918 16.3206 27.2577 15.2518 28.2373 16.2964ZM53.424 18.5826C53.4494 18.9477 53.3531 19.2885 53.1389 19.5556C54.1646 19.6783 55.1939 18.6558 56.1017 19.4102L56.0287 19.8485C55.0734 21.1612 53.4494 21.9403 53.5441 23.6181C54.118 24.3973 55.0966 23.8857 55.7901 23.7641C56.3884 21.5015 58.6587 19.7505 60.8085 19.3617C61.621 19.2885 62.6964 19.191 63.1265 20.0181C63.2698 20.8699 62.7446 21.6738 62.0754 22.2569C61.119 23.0102 59.996 23.4238 58.9693 24.0554C59.5173 24.5669 60.3309 24.324 61.0243 24.2745L62.9599 23.6677C64.1305 21.0885 66.6632 19.2395 69.4118 19.1431C69.7704 19.2158 70.1286 19.4102 70.3449 19.799C70.4634 20.9916 69.6747 21.9403 68.7426 22.5482C67.8349 23.1561 66.8071 23.4238 65.8994 24.0554C66.4008 24.4699 67.1647 24.0317 67.7148 23.862C70.2962 22.8896 72.3746 20.8947 74.6931 19.2395C75.0036 19.3617 75.3622 19.4102 75.5289 19.7268C75.4337 20.6028 74.5021 21.2107 74.335 22.013C75.7923 21.1359 76.9862 19.8969 78.4922 19.2153C78.8265 19.1183 79.1624 19.3854 79.3999 19.5803C79.5676 20.1635 78.827 20.4311 78.5874 20.7719C77.895 21.4778 77.1068 22.2801 77.0349 23.2773C77.2502 23.7878 77.8707 23.5934 78.2769 23.5934C80.5473 22.4503 82.4119 20.4564 84.3474 18.5826C84.6093 18.4367 84.9679 18.3635 85.3504 18.4367C85.9719 18.7533 85.2795 19.239 85.2795 19.6536C85.0409 20.8699 85.2309 22.2569 84.9679 23.4238C86.0666 24.1296 87.7636 23.9832 88.839 23.4C88.7427 24.3973 87.9789 25.5398 86.9511 25.8807C84.8717 26.1483 82.6976 25.3455 80.7144 25.9776C80.4272 25.9776 80.0939 25.9776 79.9263 25.6378C79.8776 25.3692 79.9495 25.0299 80.1881 24.8345C80.715 24.1059 81.6708 24.1534 82.4119 23.7646C82.4585 23.1567 82.7938 22.5482 82.4352 22.0136C80.2844 23.5465 78.3256 25.808 75.6489 26.0756C75.1221 26.0024 74.5968 25.808 74.3582 25.2733C74.335 24.6891 74.4773 24.1065 74.6688 23.5939C74.5735 23.4006 74.4302 23.5939 74.335 23.6187C72.9723 24.6886 71.634 26.0756 69.8175 25.9781C69.5789 25.8085 69.7699 25.5161 69.8175 25.297C70.128 24.7381 70.6057 24.1539 70.7972 23.5944C68.694 24.9082 66.4247 26.5876 63.7967 25.8817L62.8403 25.031C60.8805 25.7358 58.6587 26.6113 56.5312 25.809C56.4603 25.5414 56.244 25.2975 56.0287 25.1764C55.2886 25.0794 54.739 25.6146 54.0699 25.809C53.1865 25.8575 52.0868 26.3195 51.3224 25.6394C50.9394 25.1764 50.8908 24.422 51.0584 23.8389C51.37 23.0845 51.8953 22.5251 52.42 21.8439C51.1071 21.6495 50.7008 23.1577 49.8407 23.8389C49.0753 24.2761 48.4538 24.982 47.5936 25.0794C48.4538 23.2304 50.9394 22.1358 51.1071 19.9954C51.6318 19.2406 52.3481 18.4867 53.2812 18.414L53.424 18.5826ZM21.5225 18.778C21.3315 19.8969 20.6862 20.8947 19.7779 21.648C19.7779 20.5043 20.2323 19.3133 21.2839 18.5831C21.4506 18.511 21.4749 18.6806 21.5225 18.778ZM60.809 20.8214C60.5229 21.8423 59.4707 22.1827 58.6593 22.5719C58.7302 21.6738 59.686 21.0648 60.4504 20.7724L60.809 20.8214Z" fill="white"/>
</svg>
