<svg width="99" height="45" viewBox="0 0 99 45" fill="none" xmlns="http://www.w3.org/2000/svg">
<rect x="0.557617" y="0.5" width="97.8848" height="44.0052" rx="7.5" fill="white" stroke="#EDEDED"/>
<path fill-rule="evenodd" clip-rule="evenodd" d="M42.9173 16.7677C42.606 19.4884 40.0287 21.5546 37.999 23.0607C37.8552 23.4007 38.1903 23.6444 38.4291 23.7649C41.3171 24.0085 41.9618 20.752 44.3018 19.7316C45.8782 19.1001 47.907 18.7838 49.3861 19.8295C49.2429 20.3389 48.3842 20.3389 48.5987 20.9462V21.1904C46.784 24.6406 44.4921 29.7196 39.8607 29.7922C39.4797 29.7191 39.4078 29.3059 39.4311 28.9165C39.551 27.945 40.3622 27.2398 41.1982 26.803C41.4044 26.7246 41.6224 26.6833 41.8424 26.6809C41.9619 27.2398 41.2701 27.7013 41.7949 28.116C43.1081 27.605 43.6339 26.1231 44.0382 24.9563C43.0843 25.2484 41.7235 26.2925 40.7205 25.2484C40.6254 25.0058 40.6011 24.5195 40.2671 24.568C39.3116 25.3453 38.2146 26.0994 36.9003 25.7831C36.3988 25.5889 36.0173 25.0779 35.6357 24.7379C34.3938 25.5405 32.6996 26.3188 31.2194 25.5405C30.7898 25.2237 30.8854 24.568 30.8141 24.0827H30.6936C29.5722 25.0779 28.2119 26.0252 26.6599 25.4426C25.9433 24.5195 26.6356 23.3281 26.9701 22.4287C28.9988 19.9747 32.3413 18.4675 35.2769 19.6347C35.2536 20.5831 34.2274 21.1404 33.5108 21.3846C33.1054 21.9445 32.6753 22.6239 32.9136 23.3775C33.6064 24.178 34.6808 23.5707 35.4211 23.2555C35.5876 22.8918 35.6833 22.454 35.8027 22.065C36.8062 19.6111 38.9539 16.8397 41.6516 16.2809C42.1526 16.2803 42.6541 16.3287 42.9173 16.7677ZM46.1155 21.2135C46.0437 21.5782 45.6864 21.7982 45.5189 22.1124C44.8271 22.8908 43.9436 23.4002 42.9173 23.4002C42.6784 23.1565 42.6784 22.7918 42.7493 22.5255C43.1075 21.6261 44.1343 21.1151 45.0179 20.9451C45.3757 20.922 45.8048 20.9457 46.1155 21.2135ZM37.9995 21.6267C38.1184 20.3626 39.0738 19.0748 40.2433 18.3943C39.9801 19.6105 39.1214 20.801 37.9995 21.6267ZM10.8073 18.7354C10.8073 18.7596 10.8073 18.8322 10.7592 18.8322H10.7121V18.7354H10.8073ZM68.2705 20.752C68.0797 21.1904 67.6971 21.4809 67.3394 21.7982C66.9578 22.1129 66.4801 22.2824 66.0267 22.4282C66.0499 21.5546 67.1475 20.9457 67.8657 20.5826C68.0068 20.5826 68.1262 20.6552 68.2705 20.752ZM32.0554 21.3109C31.315 22.235 30.2882 22.8671 29.2615 23.2065C28.9756 23.2549 28.6162 23.2549 28.4498 23.036C28.4498 22.7192 28.3784 22.2587 28.6411 21.9919C29.5484 21.1157 30.9319 20.7036 32.0554 21.3109ZM28.2585 16.2803C29.4771 19.0748 27.1608 21.5782 25.2986 23.5702C23.4839 25.2479 21.2881 26.292 18.7811 25.8305C18.2796 25.6858 17.9213 25.2716 17.4912 24.9806C16.2028 25.6857 14.5075 26.3909 13.0511 25.5394C12.4545 25.0769 12.2404 24.3727 12.1448 23.6438C12.0967 21.8451 13.3137 20.5083 14.293 19.0995C12.6928 19.1964 10.9737 18.4922 9.56592 19.3906C9.5897 18.5159 9.68586 17.5197 10.5446 17.0092C12.7647 15.7456 15.1755 17.4955 17.4917 16.6203V16.7408C15.9407 18.6859 14.2216 20.751 14.7702 23.376C14.9377 23.6917 15.2003 24.0306 15.6056 24.1764C16.2741 24.2012 16.847 24.0306 17.2766 23.5217C17.2766 20.7752 18.8049 18.2965 21.1914 16.814C21.8372 16.4982 22.6008 16.2061 23.3882 16.4735C23.746 16.814 23.8649 17.2513 23.7941 17.7618C23.1261 19.8274 21.7653 21.6251 20.07 23.2297C20.2133 23.6665 20.6191 24.1043 21.0493 24.2012C23.6038 24.518 25.084 21.723 25.9671 19.7779C26.3734 18.9038 26.0389 17.786 25.3467 17.1055C26.0152 16.3045 27.2798 15.2367 28.2585 16.2803ZM53.4204 18.5643C53.4457 18.929 53.3495 19.2695 53.1355 19.5363C54.1602 19.659 55.1886 18.6375 56.0954 19.3911L56.0225 19.8289C55.0681 21.1404 53.4457 21.9187 53.5403 23.5949C54.1137 24.3732 55.0914 23.8622 55.7841 23.7407C56.3818 21.4804 58.6499 19.7311 60.7976 19.3427C61.6093 19.2695 62.6837 19.1722 63.1133 19.9984C63.2565 20.8494 62.7318 21.6525 62.0633 22.235C61.1078 22.9876 59.9859 23.4007 58.9602 24.0317C59.5077 24.5427 60.3204 24.3001 61.0132 24.2506L62.9468 23.6444C64.1163 21.0678 66.6466 19.2206 69.3924 19.1243C69.7507 19.1969 70.1085 19.3911 70.3246 19.7795C70.443 20.9709 69.655 21.9187 68.7239 22.5261C67.8171 23.1334 66.7903 23.4007 65.8834 24.0317C66.3844 24.4459 67.1475 24.008 67.6971 23.8386C70.276 22.8671 72.3523 20.8741 74.6685 19.2206C74.9787 19.3427 75.337 19.3911 75.5035 19.7074C75.4084 20.5826 74.4777 21.1899 74.3107 21.9914C75.7666 21.1151 76.9594 19.8774 78.4639 19.1964C78.7979 19.0995 79.1334 19.3664 79.3707 19.5611C79.5382 20.1436 78.7984 20.411 78.559 20.7515C77.8673 21.4567 77.0798 22.2582 77.008 23.2544C77.2231 23.7644 77.843 23.5702 78.2488 23.5702C80.5169 22.4282 82.3797 20.4363 84.3134 18.5643C84.575 18.4185 84.9333 18.3454 85.3153 18.4185C85.9363 18.7348 85.2445 19.22 85.2445 19.6342C85.0062 20.8494 85.1959 22.235 84.9333 23.4007C86.0309 24.1059 87.7262 23.9596 88.8005 23.377C88.7043 24.3732 87.9412 25.5147 86.9145 25.8552C84.8371 26.1226 82.6651 25.3205 80.6839 25.952C80.397 25.952 80.064 25.952 79.8965 25.6126C79.8479 25.3442 79.9198 25.0053 80.1581 24.81C80.6845 24.0822 81.6394 24.1296 82.3797 23.7412C82.4263 23.1339 82.7613 22.5261 82.403 21.9919C80.2543 23.5233 78.2974 25.7826 75.6234 26.0499C75.0971 25.9768 74.5723 25.7826 74.334 25.2484C74.3107 24.6648 74.4529 24.0827 74.6442 23.5707C74.5491 23.3776 74.4059 23.5707 74.3107 23.5954C72.9494 24.6643 71.6125 26.0499 69.7977 25.9526C69.5594 25.7831 69.7502 25.491 69.7977 25.2721C70.1079 24.7137 70.5852 24.1301 70.7764 23.5712C68.6753 24.8837 66.4082 26.5615 63.7828 25.8563L62.8274 25.0063C60.8695 25.7105 58.6499 26.5851 56.5245 25.7836C56.4537 25.5163 56.2376 25.2726 56.0225 25.1516C55.2832 25.0548 54.7341 25.5894 54.0656 25.7836C53.1831 25.8321 52.0844 26.2936 51.3208 25.6142C50.9382 25.1516 50.8896 24.398 51.0571 23.8154C51.3684 23.0618 51.8931 22.5029 52.4174 21.8224C51.1057 21.6282 50.6999 23.1349 49.8406 23.8154C49.0759 24.2522 48.455 24.9574 47.5957 25.0548C48.455 23.2076 50.9382 22.114 51.1057 19.9758C51.63 19.2216 52.3455 18.4685 53.2777 18.3959L53.4204 18.5643ZM21.5502 18.7596C21.3595 19.8774 20.7148 20.8741 19.8074 21.6267C19.8074 20.4841 20.2613 19.2943 21.3119 18.5648C21.4784 18.4928 21.5027 18.6622 21.5502 18.7596ZM60.7981 20.801C60.5122 21.8209 59.4611 22.1608 58.6505 22.5497C58.7213 21.6525 59.6762 21.0441 60.4398 20.752L60.7981 20.801Z" fill="#CF4044"/>
</svg>
