<svg width="100" height="45" viewBox="0 0 100 45" fill="none" xmlns="http://www.w3.org/2000/svg">
<rect x="1.44238" y="0.5" width="97.8848" height="44.0052" rx="7.5" fill="white" stroke="#EDEDED"/>
<path d="M76.0733 15.7637C76.4719 15.7637 76.7958 15.5644 76.8456 15.2987L77.2359 10.9309C77.2359 10.4991 76.721 10.142 76.0733 10.142C75.4256 10.142 74.9191 10.4991 74.9191 10.9309L75.3094 15.2987C75.3509 15.5644 75.683 15.7637 76.0733 15.7637ZM73.715 17.0674C73.9143 16.7353 73.8977 16.3616 73.6901 16.1955L70.0779 13.721C69.7043 13.5134 69.1396 13.7625 68.8241 14.3106C68.5085 14.8586 68.5583 15.4482 68.932 15.6641L72.9262 17.4826C73.1836 17.574 73.524 17.3996 73.715 17.0674ZM78.4067 17.0674C78.5977 17.3996 78.9382 17.574 79.1873 17.4826L83.1897 15.6641C83.5634 15.4482 83.6132 14.8503 83.2977 14.3106C82.9821 13.7708 82.4175 13.5134 82.0438 13.721L78.4316 16.1955C78.224 16.3616 78.2074 16.7353 78.4067 17.0674ZM75.9903 21.2775C76.3889 21.2775 76.721 21.4851 76.7625 21.7508L77.1611 26.1435C77.1611 26.5836 76.6463 26.9324 75.9903 26.9324C75.3343 26.9324 74.8194 26.5836 74.8194 26.1435L75.218 21.7508C75.2595 21.4851 75.5917 21.2775 75.9903 21.2775ZM78.4067 19.8741C78.5977 19.542 78.9382 19.3676 79.1873 19.4672L83.1897 21.2775C83.5634 21.4934 83.6132 22.0996 83.2977 22.6393C82.9821 23.1791 82.4175 23.4365 82.0438 23.2289L78.4316 20.7543C78.224 20.58 78.2074 20.2063 78.4067 19.8741ZM73.715 19.8741C73.9143 20.2063 73.8977 20.58 73.6901 20.7543L70.0779 23.2289C69.7043 23.4365 69.1396 23.1791 68.8241 22.6393C68.5085 22.0996 68.5583 21.4934 68.932 21.2858L72.9262 19.4672C73.1836 19.3759 73.524 19.542 73.715 19.8741ZM84.3356 23.1043C84.3273 23.0379 84.2941 23.0047 84.2111 22.9881C84.3107 22.9715 84.3523 22.9299 84.3523 22.8801C84.3518 22.8597 84.3471 22.8395 84.3385 22.821C84.33 22.8024 84.3177 22.7858 84.3024 22.7722C84.2524 22.7427 84.1939 22.731 84.1364 22.739L83.9371 22.7556V23.2372H84.0699V23.1126H84.1197C84.1197 23.1126 84.2111 23.0711 84.2194 23.1209C84.222 23.1643 84.2333 23.2066 84.2526 23.2455H84.3689C84.353 23.1997 84.3418 23.1524 84.3356 23.1043ZM84.1197 22.9549H84.0699V22.8137H84.1364C84.2028 22.8137 84.236 22.8386 84.236 22.8884C84.236 22.9382 84.1862 22.9549 84.1197 22.9549ZM84.1364 22.4981C84.0434 22.4972 83.9521 22.5232 83.8736 22.573C83.7951 22.6228 83.7327 22.6943 83.6939 22.7788C83.6551 22.8633 83.6416 22.9572 83.655 23.0492C83.6684 23.1412 83.7082 23.2274 83.7695 23.2973C83.8308 23.3672 83.911 23.4179 84.0005 23.4432C84.0899 23.4685 84.1848 23.4674 84.2736 23.4399C84.3625 23.4125 84.4415 23.3599 84.5011 23.2886C84.5607 23.2173 84.5984 23.1302 84.6097 23.0379C84.6192 22.9704 84.6141 22.9016 84.5947 22.8363C84.5752 22.771 84.5419 22.7106 84.4969 22.6594C84.452 22.6081 84.3965 22.5672 84.3343 22.5393C84.272 22.5115 84.2045 22.4975 84.1364 22.4981ZM84.1364 23.3617C84.035 23.3628 83.9375 23.3237 83.865 23.2528C83.7926 23.1819 83.7513 23.0852 83.7502 22.9839C83.7491 22.8826 83.7883 22.785 83.8592 22.7126C83.93 22.6402 84.0267 22.5989 84.1281 22.5978H84.1364C84.1854 22.5977 84.234 22.6077 84.279 22.6271C84.324 22.6466 84.3646 22.6752 84.3981 22.711C84.4316 22.7469 84.4573 22.7892 84.4737 22.8355C84.4901 22.8817 84.4968 22.9308 84.4934 22.9798C84.4934 23.1957 84.3439 23.37 84.1364 23.3617Z" fill="#FFB718"/>
<path d="M27.795 29.6976C28.0238 29.7493 28.2582 29.7716 28.4926 29.764C29.4973 29.764 30.1201 29.2741 30.1201 28.3939C30.1201 27.5137 29.5139 27.1317 28.5839 27.1317C28.3193 27.1224 28.0544 27.1447 27.795 27.1981V29.6976ZM26.9647 26.6418C27.4921 26.5598 28.0253 26.5209 28.559 26.5255C29.3728 26.5255 29.9707 26.7082 30.3526 27.057C30.7346 27.4057 30.9173 27.8292 30.9173 28.4022C30.9173 28.9751 30.7429 29.4402 30.4191 29.7806C30.0952 30.1211 29.2731 30.4864 28.4594 30.4864C28.2365 30.4903 28.0138 30.4708 27.795 30.4283V33.0025H26.9647V26.6418ZM32.0715 26.2432H32.8936V29.1412H32.9185C33.0573 28.8944 33.2612 28.6904 33.5081 28.5516C33.7622 28.4013 34.0516 28.3211 34.3468 28.3191C34.953 28.3191 35.9328 28.7011 35.9328 30.2788V33.0025H35.1024V30.3536C35.1024 29.6145 34.8284 28.9834 34.0561 28.9834C33.5247 28.9834 33.1012 29.3654 32.9517 29.8221C32.9091 29.9506 32.8895 30.0855 32.8936 30.2207V33.0025H32.0715V26.2432ZM39.6529 30.6276C38.7312 30.611 37.6766 30.7771 37.6766 31.6656C37.6766 32.2136 38.042 32.4711 38.4738 32.4711C38.7198 32.4796 38.962 32.4092 39.1652 32.2703C39.3684 32.1313 39.5218 31.9311 39.6031 31.6988C39.6356 31.6139 39.6524 31.5239 39.6529 31.4331V30.6276ZM39.7941 33.0025L39.7277 32.4544H39.7028C39.4453 32.7949 38.9554 33.1021 38.2994 33.1021C37.3694 33.1021 36.8878 32.4794 36.8878 31.8483C36.8878 30.7854 37.8759 30.2041 39.6529 30.2207V30.1294C39.6529 29.764 39.5533 29.1163 38.6066 29.1163C38.1865 29.117 37.774 29.2287 37.4109 29.4402L37.2199 28.917C37.6019 28.6762 38.1499 28.5267 38.7312 28.5267C40.1429 28.5267 40.4833 29.4402 40.4833 30.3121V31.9562C40.4765 32.3065 40.5015 32.6567 40.5581 33.0025H39.7941ZM41.8618 29.872C41.8618 29.3405 41.8535 28.8755 41.8202 28.452H42.551L42.5759 29.2824H42.6174C42.7209 29.0109 42.9039 28.777 43.1423 28.6111C43.3808 28.4452 43.6638 28.355 43.9543 28.3524C44.0384 28.3535 44.122 28.3647 44.2034 28.3856V29.108C44.1048 29.09 44.0047 29.0817 43.9045 29.0831C43.29 29.0831 42.8499 29.49 42.7254 30.0629C42.7049 30.1809 42.6938 30.3003 42.6921 30.42V33.0025H41.8618V29.872ZM44.9342 29.5564C44.9342 29.1329 44.8927 28.452 44.8927 28.452H45.6317L45.6649 29.1412H45.6981C45.6981 29.1412 46.379 28.261 47.143 28.261C47.7741 28.261 48.4467 29.2824 48.4467 29.2824H48.5048C48.6285 29.0512 48.8014 28.8499 49.0114 28.6928C49.2982 28.4708 49.6537 28.3563 50.0161 28.369C50.6223 28.369 51.5108 28.7675 51.5108 30.337V33.0025H50.6887V30.4117C50.6887 29.5232 50.3649 29 49.684 29C49.2024 29 48.8287 29.3488 48.6875 29.7557C48.642 29.8893 48.6195 30.0297 48.6211 30.1709V33.0025H47.7907V30.2539C47.7907 29.5232 47.4668 29 46.8275 29C46.1881 29 45.9223 29.4152 45.7895 29.8304C45.742 29.9607 45.7194 30.0987 45.723 30.2373V33.0025H44.8927V29.5564H44.9342ZM55.2392 30.6276C54.3092 30.611 53.2629 30.7771 53.2629 31.6656C53.2629 32.2136 53.6283 32.4711 54.0601 32.4711C54.3058 32.4783 54.5475 32.4074 54.7504 32.2686C54.9533 32.1299 55.107 31.9304 55.1894 31.6988C55.218 31.6129 55.2348 31.5235 55.2392 31.4331V30.6276ZM55.3804 33.0025L55.314 32.4544H55.2808C55.0316 32.7949 54.5334 33.1021 53.8774 33.1021C52.9474 33.1021 52.4658 32.4794 52.4658 31.8483C52.4658 30.7854 53.4622 30.2041 55.2392 30.2207V30.1294C55.2392 29.764 55.1313 29.1163 54.193 29.1163C53.77 29.1159 53.3546 29.2276 52.9889 29.4402L52.7979 28.917C53.1799 28.6762 53.7362 28.5267 54.3175 28.5267C55.7209 28.5267 56.0613 29.4402 56.0613 30.3121V31.9562C56.057 32.3068 56.0848 32.657 56.1444 33.0025H55.3804ZM60.7364 32.8198C60.5205 32.9361 60.0389 33.0938 59.4327 33.0938C58.0625 33.0938 57.1657 32.1389 57.1657 30.7272C57.1657 29.3156 58.129 28.261 59.6071 28.261C60.0021 28.2559 60.3934 28.3381 60.753 28.5018L60.562 29.1578C60.371 29.0416 60.0555 28.9336 59.6071 28.9336C58.5691 28.9336 58.0044 29.7225 58.0044 30.6857C58.0044 31.649 58.677 32.4212 59.5821 32.4212C59.9333 32.4229 60.28 32.3434 60.5952 32.1887L60.7364 32.8198ZM61.9238 28.452L62.9286 31.2172C63.0282 31.5244 63.1445 31.8981 63.2192 32.1721H63.2358C63.3272 31.8981 63.4185 31.541 63.5348 31.2006L64.4399 28.452H65.3201L64.0745 31.7901C63.4767 33.3928 63.0698 34.2149 62.4968 34.7214C62.0899 35.0868 61.683 35.2362 61.4754 35.2694L61.2678 34.5553C61.5363 34.4663 61.7847 34.3252 61.9986 34.1401C62.2993 33.881 62.5377 33.5574 62.6961 33.1935C62.7313 33.1292 62.7539 33.0587 62.7625 32.9859C62.756 32.9111 62.7363 32.838 62.7044 32.77L61.0104 28.452H61.9238ZM53.8608 20.6796C53.8612 20.814 53.8444 20.948 53.811 21.0782C53.6532 21.5764 53.1301 21.9999 52.4741 21.9999C51.8181 21.9999 51.4942 21.6927 51.4942 21.045C51.4942 20.0485 52.5986 19.7662 53.8608 19.7745V20.6796ZM55.7873 18.969C55.7873 17.3248 55.0732 15.88 52.6401 15.88C51.3946 15.88 50.4064 16.2204 49.8667 16.5277L50.2652 17.848C50.8807 17.4894 51.5791 17.2977 52.2914 17.2916C53.5203 17.2833 53.7196 17.9725 53.7196 18.4127V18.5123C51.0375 18.5123 49.3435 19.4174 49.3435 21.2692C49.3435 22.3985 50.2071 23.4614 51.7101 23.4614C52.6318 23.4614 53.4041 23.1043 53.8608 22.5231H53.9106C53.9106 22.5231 54.2179 23.7769 55.9035 23.2953C55.8187 22.718 55.7798 22.1349 55.7873 21.5515V18.969ZM15.522 13.5632C15.522 13.6462 17.2492 20.6962 17.5232 21.8421C17.8387 23.1791 18.42 23.669 20.0891 23.3368L21.1686 18.969C21.4426 17.8812 21.6253 17.109 21.7997 16.0378H21.8329C21.9574 17.1173 22.1318 17.8812 22.356 18.969C22.356 18.969 22.7961 20.9536 23.0203 21.9999C23.2445 23.0462 23.8673 23.6939 25.5032 23.3368L28.0691 13.5632H26.018L25.1295 17.8065C24.8887 19.0437 24.6728 20.0153 24.5067 21.1446H24.4818C24.324 20.0236 24.1331 19.0936 23.8922 17.8895L22.9705 13.5632H20.8364L19.8566 17.7566C19.5826 19.0271 19.3168 20.0568 19.1508 21.1446H19.1258C18.9515 20.1232 18.7273 18.8278 18.4781 17.5906C18.4781 17.5906 17.8969 14.5929 17.6893 13.5632H15.522ZM31.7975 20.6796C31.7979 20.814 31.7811 20.948 31.7477 21.0782C31.5899 21.5764 31.0668 21.9999 30.4108 21.9999C29.7548 21.9999 29.4226 21.6927 29.4226 21.045C29.4226 20.0485 30.5353 19.7662 31.7975 19.7745V20.6796ZM33.724 18.969C33.724 17.3248 33.0099 15.88 30.5768 15.88C29.3313 15.88 28.3431 16.2204 27.8034 16.5277L28.2019 17.848C28.8148 17.4905 29.5103 17.2987 30.2198 17.2916C31.457 17.2833 31.6563 17.9725 31.6563 18.4127V18.5123C28.9742 18.5123 27.2719 19.4174 27.2719 21.2692C27.2719 22.3985 28.1355 23.4614 29.6385 23.4614C30.5602 23.4614 31.3408 23.1043 31.7975 22.5231H31.8473C31.8473 22.5231 32.1546 23.7769 33.8402 23.2953C33.7554 22.718 33.7165 22.1349 33.724 21.5515V18.969ZM36.7549 21.2775V13.6961H34.8284V23.3534H36.7549M61.7162 13.5632V20.7294C61.7162 21.7259 61.9072 22.4234 62.2975 22.8469C62.6878 23.2704 63.2109 23.4531 63.8918 23.4531C64.5728 23.4531 65.0378 23.3451 65.3035 23.2455L65.2786 21.7093C65.0367 21.7678 64.7884 21.7957 64.5395 21.7923C63.8752 21.7923 63.651 21.3688 63.651 20.4803V17.6985H65.3035V15.9049H63.651V13.5632H61.7162ZM56.6177 16.0378V23.3534H58.6853V19.6084C58.6813 19.4276 58.6952 19.2468 58.7269 19.0687C58.8763 18.2881 59.4659 17.7816 60.3129 17.7816C60.5081 17.7819 60.7028 17.8014 60.8942 17.8397V15.9215C60.7469 15.8897 60.5963 15.8758 60.4458 15.88C59.6984 15.88 58.8514 16.3699 58.4943 17.4245H58.4113V16.0378H56.6177ZM37.8593 16.0378V23.3534H39.7941V19.077C39.7913 18.874 39.8221 18.672 39.8854 18.4791C40.0515 18.0556 40.4501 17.5491 41.0978 17.5491C41.895 17.5491 42.2769 18.2217 42.2769 19.2015V23.3534H44.3446V19.0271C44.3418 18.8275 44.3698 18.6287 44.4276 18.4376C44.5937 17.9476 45.0255 17.5491 45.6234 17.5491C46.4372 17.5491 46.8275 18.2134 46.8275 19.3593V23.3534H48.7539V18.8694C48.7539 16.7685 47.608 15.9381 46.3209 15.9381C45.8179 15.9281 45.3215 16.0544 44.8844 16.3035C44.5237 16.5181 44.2102 16.8034 43.9626 17.1422H43.9377C43.6222 16.4197 42.8914 15.9381 41.9365 15.9381C40.7075 15.9381 40.1595 16.5111 39.819 17.0093H39.7941V16.0378H37.8593Z" fill="#0971CE"/>
</svg>
