<svg width="99" height="46" viewBox="0 0 99 46" fill="none" xmlns="http://www.w3.org/2000/svg">
<rect x="0.491211" y="0.5" width="97.9822" height="44.0496" rx="7.5" fill="#202020" stroke="#414141"/>
<path d="M75.1959 15.7793C75.5949 15.7793 75.919 15.5798 75.9689 15.3138L76.3596 10.9417C76.3596 10.5094 75.8442 10.152 75.1959 10.152C74.5476 10.152 74.0405 10.5094 74.0405 10.9417L74.4312 15.3138C74.4728 15.5798 74.8052 15.7793 75.1959 15.7793ZM72.8353 17.0842C73.0348 16.7518 73.0182 16.3777 72.8104 16.2115L69.1946 13.7345C68.8206 13.5267 68.2554 13.7761 67.9395 14.3246C67.6237 14.8732 67.6735 15.4634 68.0476 15.6795L72.0456 17.4998C72.3033 17.5913 72.6441 17.4167 72.8353 17.0842ZM77.5316 17.0842C77.7228 17.4167 78.0635 17.5913 78.3129 17.4998L82.3193 15.6795C82.6933 15.4634 82.7432 14.8649 82.4274 14.3246C82.1115 13.7844 81.5463 13.5267 81.1722 13.7345L77.5565 16.2115C77.3487 16.3777 77.3321 16.7518 77.5316 17.0842ZM75.1128 21.2984C75.5118 21.2984 75.8442 21.5062 75.8858 21.7722L76.2848 26.1693C76.2848 26.6098 75.7694 26.9589 75.1128 26.9589C74.4561 26.9589 73.9408 26.6098 73.9408 26.1693L74.3398 21.7722C74.3813 21.5062 74.7138 21.2984 75.1128 21.2984ZM77.5316 19.8937C77.7228 19.5612 78.0635 19.3867 78.3129 19.4864L82.3193 21.2984C82.6933 21.5145 82.7432 22.1213 82.4274 22.6616C82.1115 23.2019 81.5463 23.4596 81.1722 23.2518L77.5565 20.7748C77.3487 20.6002 77.3321 20.2262 77.5316 19.8937ZM72.8353 19.8937C73.0348 20.2262 73.0182 20.6002 72.8104 20.7748L69.1946 23.2518C68.8206 23.4596 68.2554 23.2019 67.9395 22.6616C67.6237 22.1213 67.6735 21.5145 68.0476 21.3067L72.0456 19.4864C72.3033 19.395 72.6441 19.5612 72.8353 19.8937ZM83.4664 23.1271C83.4581 23.0606 83.4248 23.0273 83.3417 23.0107C83.4414 22.9941 83.483 22.9525 83.483 22.9026C83.4825 22.8822 83.4778 22.862 83.4693 22.8434C83.4607 22.8249 83.4484 22.8082 83.4331 22.7946C83.383 22.7651 83.3244 22.7534 83.2669 22.7613L83.0674 22.778V23.2601H83.2004V23.1354H83.2502C83.2502 23.1354 83.3417 23.0938 83.35 23.1437C83.3526 23.1871 83.3639 23.2295 83.3832 23.2684H83.4996C83.4837 23.2225 83.4726 23.1752 83.4664 23.1271ZM83.2502 22.9775H83.2004V22.8362H83.2669C83.3334 22.8362 83.3666 22.8611 83.3666 22.911C83.3666 22.9608 83.3167 22.9775 83.2502 22.9775ZM83.2669 22.5203C83.1738 22.5194 83.0825 22.5454 83.0039 22.5953C82.9253 22.6451 82.8628 22.7166 82.824 22.8012C82.7851 22.8858 82.7716 22.9798 82.785 23.0719C82.7985 23.164 82.8383 23.2503 82.8996 23.3202C82.961 23.3902 83.0413 23.4409 83.1308 23.4663C83.2204 23.4916 83.3154 23.4905 83.4043 23.463C83.4932 23.4356 83.5723 23.383 83.632 23.3115C83.6917 23.2401 83.7294 23.153 83.7407 23.0606C83.7502 22.993 83.7451 22.9242 83.7256 22.8588C83.7062 22.7934 83.6728 22.733 83.6278 22.6817C83.5828 22.6304 83.5273 22.5894 83.465 22.5615C83.4027 22.5337 83.3351 22.5196 83.2669 22.5203ZM83.2669 23.3847C83.1655 23.3859 83.0678 23.3466 82.9953 23.2757C82.9228 23.2048 82.8815 23.108 82.8804 23.0065C82.8793 22.9051 82.9185 22.8075 82.9894 22.735C83.0603 22.6625 83.1572 22.6211 83.2586 22.62H83.2669C83.316 22.6199 83.3646 22.6299 83.4097 22.6494C83.4547 22.6689 83.4953 22.6975 83.5288 22.7334C83.5624 22.7693 83.5882 22.8117 83.6046 22.8579C83.621 22.9042 83.6277 22.9534 83.6243 23.0024C83.6243 23.2185 83.4747 23.3931 83.2669 23.3847Z" fill="#FFB718"/>
<path d="M26.8701 29.7268C27.0991 29.7786 27.3337 29.8009 27.5683 29.7933C28.5741 29.7933 29.1975 29.3029 29.1975 28.4218C29.1975 27.5408 28.5907 27.1584 27.6598 27.1584C27.3948 27.1491 27.1298 27.1714 26.8701 27.2249V29.7268ZM26.0389 26.668C26.5668 26.5859 27.1006 26.547 27.6348 26.5516C28.4494 26.5516 29.0479 26.7345 29.4302 27.0836C29.8126 27.4327 29.9954 27.8566 29.9954 28.4301C29.9954 29.0037 29.8209 29.4692 29.4967 29.8099C29.1726 30.1507 28.3497 30.5165 27.5351 30.5165C27.312 30.5204 27.0891 30.5009 26.8701 30.4583V33.035H26.0389V26.668ZM31.1508 26.269H31.9737V29.1699H31.9986C32.1375 28.9228 32.3417 28.7187 32.5888 28.5798C32.8431 28.4293 33.1328 28.349 33.4283 28.347C34.0351 28.347 35.0159 28.7294 35.0159 30.3087V33.035H34.1847V30.3835C34.1847 29.6437 33.9104 29.012 33.1374 29.012C32.6054 29.012 32.1815 29.3943 32.0319 29.8515C31.9893 29.9801 31.9696 30.1151 31.9737 30.2505V33.035H31.1508V26.269ZM38.7397 30.6578C37.8171 30.6411 36.7614 30.8074 36.7614 31.6968C36.7614 32.2454 37.1272 32.503 37.5594 32.503C37.8056 32.5115 38.0481 32.4411 38.2515 32.3021C38.4548 32.163 38.6084 31.9626 38.6898 31.73C38.7223 31.6451 38.7392 31.555 38.7397 31.464V30.6578ZM38.881 33.035L38.8145 32.4864H38.7896C38.5319 32.8272 38.0415 33.1348 37.3848 33.1348C36.4539 33.1348 35.9718 32.5113 35.9718 31.8796C35.9718 30.8157 36.9609 30.2339 38.7397 30.2505V30.159C38.7397 29.7933 38.6399 29.145 37.6924 29.145C37.2718 29.1456 36.8589 29.2575 36.4954 29.4691L36.3043 28.9455C36.6866 28.7044 37.2352 28.5548 37.8171 28.5548C39.2301 28.5548 39.5709 29.4691 39.5709 30.3419V31.9877C39.5641 32.3383 39.5891 32.6889 39.6457 33.035H38.881ZM40.9507 29.9014C40.9507 29.3694 40.9424 28.9039 40.9091 28.48H41.6406L41.6655 29.3112H41.7071C41.8107 29.0395 41.9938 28.8053 42.2325 28.6392C42.4713 28.4732 42.7545 28.3829 43.0453 28.3803C43.1295 28.3815 43.2132 28.3926 43.2947 28.4135V29.1367C43.196 29.1187 43.0958 29.1103 42.9954 29.1117C42.3803 29.1117 41.9398 29.519 41.8151 30.0925C41.7947 30.2106 41.7835 30.3301 41.7819 30.45V33.035H40.9507V29.9014ZM44.0261 29.5855C44.0261 29.1616 43.9846 28.48 43.9846 28.48H44.7243L44.7576 29.1699H44.7908C44.7908 29.1699 45.4724 28.2888 46.2371 28.2888C46.8688 28.2888 47.5421 29.3112 47.5421 29.3112H47.6003C47.7241 29.0798 47.8972 28.8784 48.1073 28.7211C48.3944 28.4989 48.7503 28.3842 49.1131 28.3969C49.7199 28.3969 50.6092 28.7959 50.6092 30.3668V33.035H49.7864V30.4417C49.7864 29.5523 49.4622 29.0286 48.7806 29.0286C48.2985 29.0286 47.9245 29.3777 47.7832 29.785C47.7376 29.9188 47.7151 30.0593 47.7167 30.2006V33.035H46.8855V30.2837C46.8855 29.5523 46.5613 29.0286 45.9213 29.0286C45.2812 29.0286 45.0153 29.4442 44.8823 29.8598C44.8347 29.9902 44.8122 30.1284 44.8158 30.2671V33.035H43.9846V29.5855H44.0261ZM54.3413 30.6578C53.4104 30.6411 52.3631 30.8074 52.3631 31.6968C52.3631 32.2454 52.7288 32.503 53.161 32.503C53.407 32.5102 53.6489 32.4393 53.852 32.3004C54.0551 32.1615 54.209 31.9618 54.2915 31.73C54.3201 31.644 54.3369 31.5545 54.3413 31.464V30.6578ZM54.4826 33.035L54.4162 32.4864H54.3829C54.1335 32.8272 53.6348 33.1348 52.9782 33.1348C52.0472 33.1348 51.5651 32.5113 51.5651 31.8796C51.5651 30.8157 52.5626 30.2339 54.3413 30.2505V30.159C54.3413 29.7933 54.2333 29.145 53.294 29.145C52.8707 29.1446 52.4548 29.2564 52.0888 29.4691L51.8976 28.9455C52.28 28.7044 52.8369 28.5548 53.4187 28.5548C54.8234 28.5548 55.1642 29.4691 55.1642 30.3419V31.9877C55.1599 32.3386 55.1878 32.6892 55.2474 33.035H54.4826ZM59.8439 32.8521C59.6278 32.9685 59.1457 33.1264 58.5389 33.1264C57.1674 33.1264 56.2697 32.1706 56.2697 30.7575C56.2697 29.3445 57.2339 28.2888 58.7135 28.2888C59.1089 28.2837 59.5006 28.366 59.8605 28.5299L59.6693 29.1865C59.4782 29.0702 59.1623 28.9621 58.7135 28.9621C57.6745 28.9621 57.1092 29.7518 57.1092 30.716C57.1092 31.6801 57.7825 32.4532 58.6885 32.4532C59.04 32.4549 59.3871 32.3752 59.7026 32.2204L59.8439 32.8521ZM61.0325 28.48L62.0383 31.2479C62.138 31.5555 62.2544 31.9295 62.3292 32.2038H62.3458C62.4372 31.9295 62.5287 31.5721 62.6451 31.2313L63.5511 28.48H64.4321L63.1853 31.8215C62.5869 33.4257 62.1796 34.2486 61.606 34.7556C61.1988 35.1213 60.7915 35.2709 60.5837 35.3042L60.3759 34.5894C60.6446 34.5003 60.8932 34.359 61.1073 34.1738C61.4083 33.9144 61.647 33.5905 61.8055 33.2262C61.8408 33.1618 61.8634 33.0913 61.872 33.0184C61.8655 32.9435 61.8458 32.8703 61.8139 32.8023L60.1182 28.48H61.0325ZM52.9616 20.7C52.9619 20.8345 52.9451 20.9686 52.9117 21.0989C52.7537 21.5977 52.2301 22.0216 51.5734 22.0216C50.9168 22.0216 50.5926 21.714 50.5926 21.0657C50.5926 20.0683 51.6981 19.7856 52.9616 19.794V20.7ZM54.8899 18.9877C54.8899 17.3419 54.1751 15.8956 51.7397 15.8956C50.4929 15.8956 49.5037 16.2364 48.9635 16.544L49.3624 17.8656C49.9785 17.5067 50.6776 17.3147 51.3906 17.3087C52.6208 17.3004 52.8202 17.9903 52.8202 18.4308V18.5305C50.1355 18.5305 48.4398 19.4365 48.4398 21.2901C48.4398 22.4206 49.3043 23.4845 50.8087 23.4845C51.7314 23.4845 52.5044 23.1271 52.9616 22.5452H53.0114C53.0114 22.5452 53.319 23.8004 55.0063 23.3183C54.9214 22.7404 54.8825 22.1567 54.8899 21.5727V18.9877ZM14.585 13.5766C14.585 13.6597 16.3139 20.7166 16.5882 21.8637C16.904 23.2019 17.4859 23.6923 19.1566 23.3598L20.2371 18.9877C20.5114 17.8988 20.6943 17.1258 20.8688 16.0536H20.9021C21.0268 17.1341 21.2013 17.8988 21.4258 18.9877C21.4258 18.9877 21.8663 20.9743 22.0907 22.0216C22.3151 23.0689 22.9385 23.7172 24.576 23.3598L27.1444 13.5766H25.0914L24.202 17.824C23.9609 19.0625 23.7448 20.035 23.5786 21.1654H23.5536C23.3957 20.0433 23.2045 19.1124 22.9635 17.9071L22.0408 13.5766H19.9047L18.9238 17.7741C18.6495 19.0459 18.3836 20.0766 18.2173 21.1654H18.1924C18.0178 20.1431 17.7934 18.8464 17.544 17.6079C17.544 17.6079 16.9622 14.6073 16.7544 13.5766H14.585ZM30.8765 20.7C30.8769 20.8345 30.8601 20.9686 30.8266 21.0989C30.6687 21.5977 30.1451 22.0216 29.4884 22.0216C28.8318 22.0216 28.4993 21.714 28.4993 21.0657C28.4993 20.0683 29.6131 19.7856 30.8765 19.794V20.7ZM32.8049 18.9877C32.8049 17.3419 32.0901 15.8956 29.6546 15.8956C28.4078 15.8956 27.4187 16.2364 26.8784 16.544L27.2774 17.8656C27.8909 17.5077 28.587 17.3158 29.2972 17.3087C30.5357 17.3004 30.7352 17.9903 30.7352 18.4308V18.5305C28.0504 18.5305 26.3465 19.4365 26.3465 21.2901C26.3465 22.4206 27.2109 23.4845 28.7154 23.4845C29.638 23.4845 30.4194 23.1271 30.8765 22.5452H30.9264C30.9264 22.5452 31.2339 23.8004 32.9213 23.3183C32.8363 22.7404 32.7974 22.1567 32.8049 21.5727V18.9877ZM35.8388 21.2984V13.7096H33.9104V23.3764H35.8388M60.8247 13.5766V20.7498C60.8247 21.7473 61.0159 22.4455 61.4066 22.8694C61.7972 23.2933 62.3209 23.4762 63.0025 23.4762C63.6841 23.4762 64.1495 23.3681 64.4155 23.2684L64.3906 21.7307C64.1484 21.7892 63.8999 21.8171 63.6508 21.8138C62.9858 21.8138 62.7614 21.3899 62.7614 20.5005V17.716H64.4155V15.9206H62.7614V13.5766H60.8247ZM55.7211 16.0536V23.3764H57.7908V19.6277C57.7868 19.4467 57.8007 19.2657 57.8324 19.0874C57.982 18.3061 58.5722 17.7991 59.42 17.7991C59.6154 17.7994 59.8102 17.8189 60.0018 17.8573V15.9372C59.8544 15.9054 59.7037 15.8914 59.553 15.8956C58.8049 15.8956 57.9571 16.386 57.5997 17.4417H57.5165V16.0536H55.7211ZM36.9443 16.0536V23.3764H38.881V19.0957C38.8782 18.8926 38.9091 18.6903 38.9724 18.4973C39.1387 18.0734 39.5376 17.5663 40.186 17.5663C40.9839 17.5663 41.3663 18.2396 41.3663 19.2204V23.3764H43.436V19.0459C43.4332 18.8461 43.4612 18.647 43.5191 18.4557C43.6853 17.9653 44.1176 17.5663 44.716 17.5663C45.5306 17.5663 45.9213 18.2313 45.9213 19.3784V23.3764H47.8497V18.8879C47.8497 16.785 46.7026 15.9538 45.4142 15.9538C44.9107 15.9438 44.4138 16.0702 43.9763 16.3195C43.6153 16.5343 43.3015 16.8199 43.0536 17.159H43.0287C42.7128 16.4359 41.9814 15.9538 41.0255 15.9538C39.7953 15.9538 39.2467 16.5273 38.9059 17.0261H38.881V16.0536H36.9443Z" fill="white"/>
</svg>
