<svg width="100" height="46" viewBox="0 0 100 46" fill="none" xmlns="http://www.w3.org/2000/svg">
<rect x="1" y="0.510498" width="97.8848" height="44.0052" rx="7.5" fill="white" stroke="#EDEDED"/>
<path d="M23.6669 33.4947C22.9334 33.065 22.6399 32.8135 22.2313 32.2476C21.9902 31.8914 21.6968 31.5351 21.6025 31.4407C21.4977 31.3569 21.4139 31.1997 21.4139 31.0949C21.4139 30.9901 21.3091 30.8015 21.1833 30.6758C21.0471 30.5395 20.9528 30.4033 20.9633 30.3614C20.9842 30.3195 20.7432 29.8898 20.4393 29.4183C20.1354 28.9362 19.6534 28.1608 19.3704 27.6892C19.0875 27.2072 18.8255 26.8194 18.7731 26.8194C18.7312 26.8194 18.5531 26.5365 18.3854 26.2012C18.2177 25.8658 17.7986 25.1218 17.4423 24.5664C17.086 24.011 16.803 23.5185 16.803 23.4871C16.803 23.4556 16.6878 23.2775 16.5411 23.0888C16.3944 22.9002 16.2791 22.7116 16.2791 22.6697C16.2791 22.6278 16.1743 22.4915 16.0485 22.3658C15.9123 22.2296 15.6503 21.8942 15.4512 21.6113C15.1893 21.2236 14.9587 21.0349 14.5605 20.8568C13.6383 20.4691 13.5231 20.3852 13.324 20.0184C13.1353 19.6936 13.1353 19.6412 13.282 19.3268C13.5231 18.8343 14.0785 18.3837 14.7806 18.1322C15.1159 18.0064 15.4617 17.8807 15.5455 17.8388C16.3315 17.5244 19.9573 17.3253 21.3091 17.5349C22.1789 17.6606 22.3046 17.6816 22.357 17.713C22.3884 17.7235 22.4618 17.7445 22.5142 17.7549C22.7657 17.7969 23.6983 18.2999 23.9184 18.5094C24.2852 18.8553 24.3271 19.4631 24.0022 20.0184C23.604 20.7101 23.7193 21.2759 24.5367 22.6592C25.0711 23.5814 25.354 23.8538 25.7837 23.9062C26.3181 23.9796 26.3705 23.9481 26.7478 23.3613C27.1565 22.7326 27.387 22.1876 27.387 21.8628C27.387 21.3179 26.8526 20.6472 26.14 20.2699C25.6894 20.0394 25.4484 19.4945 25.5636 18.9601C25.616 18.7086 25.7313 18.478 25.8151 18.4361C26.5277 18.0798 27.6804 17.6921 28.1729 17.6397C29.5772 17.4825 30.1954 17.4511 31.5787 17.4511C33.706 17.4511 34.429 17.5558 35.215 17.996C35.676 18.2475 36.1895 18.8133 36.1895 19.0648C36.1895 19.3268 35.7389 20.1442 35.5712 20.1861C35.3197 20.249 35.1626 20.6786 35.194 21.2026C35.2254 21.8313 35.9904 23.3613 36.4725 23.791C36.7659 24.0425 36.9021 24.0948 37.1222 24.0425C37.6147 23.9167 37.8138 23.7071 38.212 22.9002C38.4216 22.4601 38.6416 22.1038 38.6836 22.1038C38.7883 22.1038 39.0399 21.4227 39.0922 21.014C39.1237 20.731 38.8512 20.1128 38.6836 20.1128C38.5368 20.1128 38.2539 19.3373 38.2853 19.0124C38.3063 18.6981 38.977 17.8283 39.1551 17.8912C39.197 17.9017 39.3437 17.8597 39.4695 17.7864C39.5952 17.7235 39.7734 17.6502 39.8572 17.6397C39.9411 17.6292 40.203 17.5768 40.4336 17.5244C40.9261 17.4301 43.1058 17.4301 43.6297 17.5244C43.8288 17.5663 44.1327 17.6082 44.2899 17.6397C44.7091 17.7026 45.7046 18.4885 45.7884 18.8133C45.8304 18.9601 45.8094 19.1801 45.7465 19.3059C45.6837 19.4316 45.6208 19.6098 45.5893 19.6936C45.5684 19.7774 45.1911 19.9765 44.7615 20.1337C44.3109 20.3014 43.8184 20.5738 43.5878 20.7939C43.3678 20.993 43.1477 21.1607 43.0953 21.1607C43.0429 21.1607 43.001 21.234 43.001 21.3179C43.001 21.3912 42.9381 21.5065 42.8648 21.5484C42.6656 21.6742 41.8168 23.1308 41.7854 23.3927C41.7749 23.5185 41.754 23.6547 41.754 23.6862C41.7435 23.7281 41.5758 24.0005 41.3767 24.294C41.1776 24.5874 41.0099 24.8913 41.0099 24.9751C41.0099 25.0589 40.9575 25.1637 40.9051 25.1952C40.7794 25.2685 40.4545 25.9497 40.4336 26.1907C40.4126 26.3583 39.7734 27.532 39.1656 28.4961C38.977 28.8105 38.8303 29.1249 38.8512 29.1772C38.8931 29.303 38.6207 29.8584 38.5159 29.8584C38.4216 29.8584 37.971 30.7491 37.971 30.9377C37.971 31.0845 37.4785 31.6818 36.5668 32.6563C35.3721 33.9243 34.9635 33.7986 32.9934 31.5141C32.7628 31.2521 32.5742 30.9901 32.5637 30.9377C32.5428 30.7386 32.2703 30.2671 31.5053 29.062C31.0547 28.3703 30.6041 27.6263 30.4888 27.4167C30.2269 26.9033 29.8601 26.5889 29.5457 26.5889C29.1685 26.5889 28.5712 26.9871 28.4978 27.291C28.4559 27.4377 28.3406 27.6473 28.2253 27.7626C27.9529 28.035 27.387 29.041 27.387 29.2611C27.387 29.3554 27.3241 29.4707 27.2403 29.5126C27.125 29.5859 26.2448 31.0425 25.6475 32.1638C25.4064 32.6039 24.7567 33.2117 24.2537 33.4527C24.0546 33.5575 23.887 33.6309 23.887 33.6204C23.8765 33.6204 23.7822 33.568 23.6669 33.4947ZM50.9128 33.4947C50.8289 33.4528 50.7032 33.4423 50.6403 33.4737C50.5879 33.5156 50.4622 33.4842 50.3783 33.4108C50.2945 33.348 50.2002 33.3165 50.1687 33.3375C50.1373 33.3689 49.7496 33.2536 49.3094 33.086C48.1463 32.6354 46.9621 31.9123 46.5534 31.3884C46.4381 31.2416 46.281 31.1159 46.2076 31.1159C46.0819 31.1159 44.9711 29.5755 44.7091 29.0201C44.3109 28.2132 44.0279 26.8404 43.9965 25.6982C43.9651 24.4302 44.0384 24.0948 44.5938 22.7326C44.7615 22.3029 44.9606 21.7999 45.0235 21.6322C45.0968 21.4541 45.4007 21.0559 45.6941 20.7415C45.998 20.4271 46.2495 20.1023 46.2495 20.0289C46.2495 19.9556 46.3334 19.8717 46.4381 19.8298C46.5325 19.7984 46.784 19.6202 46.9935 19.4421C47.748 18.7819 48.1463 18.4885 48.251 18.5199C48.3034 18.5304 48.5445 18.4466 48.7855 18.3208C49.76 17.8178 50.8499 17.472 51.4053 17.4825C51.5625 17.4825 51.7197 17.4406 51.7511 17.3882C51.8349 17.2519 53.4487 17.2519 53.5326 17.3882C53.564 17.4406 53.7212 17.4825 53.8784 17.4825C54.6014 17.472 56.1419 18.0588 57.1164 18.7086C57.4937 18.9601 57.829 19.1696 57.8709 19.1696C57.9652 19.1801 58.5206 19.7565 58.6569 19.9975C58.7197 20.1023 58.9608 20.4691 59.1808 20.8044C59.4114 21.1502 59.6838 21.6637 59.7886 21.9466C59.8934 22.24 60.0192 22.5439 60.0506 22.6278C60.082 22.7116 60.103 22.8583 60.0925 22.9631C60.082 23.0574 60.124 23.1622 60.1868 23.2041C60.3126 23.288 60.3231 24.2311 60.1973 24.4931C59.9877 24.9122 59.7257 25.52 59.7257 25.6143C59.7153 25.6772 59.6733 25.7191 59.6105 25.7191C59.5581 25.7191 59.3799 25.803 59.2332 25.9077C59.0865 26.0125 58.8769 26.0649 58.7826 26.023C58.6883 25.9916 58.5521 26.0125 58.4682 26.0754C58.3634 26.1697 57.2736 26.1907 54.549 26.1697L50.7765 26.1383L50.808 26.7042C50.8604 27.4272 51.2586 28.0979 51.9397 28.5695C52.2122 28.7686 52.4742 28.9048 52.5265 28.8734C52.5685 28.8419 52.7676 28.9153 52.9562 29.041C53.6793 29.4707 56.1943 29.282 56.6239 28.7581C56.6973 28.6742 56.8335 28.6009 56.9278 28.6009C57.0326 28.6009 57.3784 28.4332 57.7137 28.2341C58.0491 28.035 58.3634 27.8673 58.4054 27.8673C58.4473 27.8673 58.6673 28.0769 58.8979 28.318C59.3904 28.8524 59.6105 29.4287 59.4952 29.8374C59.4533 29.9946 59.4009 30.2147 59.3904 30.3195C59.3799 30.4347 59.2751 30.6129 59.1494 30.7072C59.0341 30.8015 58.9293 30.9273 58.9293 30.9797C58.9293 31.1159 58.4682 31.5351 58.332 31.5351C58.2691 31.5351 58.1958 31.6084 58.1539 31.6922C58.1224 31.7761 58.0281 31.8494 57.9443 31.8494C57.8709 31.8494 57.7766 31.9228 57.7347 32.0066C57.7033 32.0905 57.588 32.1638 57.4937 32.1638C57.3889 32.1638 57.2107 32.2267 57.0955 32.3105C56.8021 32.5096 55.3664 33.1069 55.3664 33.0336C55.3664 32.9917 55.314 33.0126 55.2407 33.086C55.1673 33.1593 55.0101 33.2117 54.8844 33.2117C54.7481 33.2117 54.6119 33.2641 54.5805 33.3165C54.5386 33.3794 54.4652 33.4004 54.4128 33.3584C54.3604 33.327 54.2451 33.348 54.1718 33.4108C54.0984 33.4737 53.9517 33.5051 53.8679 33.4632C53.7736 33.4318 53.6373 33.4423 53.564 33.4842C53.3858 33.5995 51.1119 33.6099 50.9128 33.4947ZM53.1239 22.9945C54.0041 23.0365 54.1823 22.8793 54.1927 22.02C54.1927 21.6637 54.1508 21.3493 54.0984 21.3179C54.046 21.276 54.0041 21.1607 54.0041 21.0454C54.0041 20.9197 53.826 20.731 53.5326 20.5424C53.1239 20.2804 52.9772 20.249 52.4322 20.2804C51.793 20.3119 51.1747 20.6053 51.1747 20.8777C51.1747 20.9511 51.0804 21.0873 50.9652 21.1921C50.8499 21.2864 50.7556 21.4227 50.7451 21.496C50.6717 22.6906 50.6717 22.7116 50.9547 22.8478C51.29 23.005 52.2331 23.1308 52.3798 23.0365C52.4427 22.9945 52.7676 22.9736 53.1239 22.9945ZM65.2902 33.5575C65.2378 33.5156 64.9129 33.4632 64.5566 33.4527C64.2003 33.4423 63.7393 33.4004 63.5402 33.3689C63.3411 33.3375 63.0581 33.2956 62.9114 33.2746C62.7647 33.2641 62.4713 33.1698 62.2407 33.0755C62.0207 32.9707 61.7797 32.8974 61.7063 32.8974C61.5282 32.8974 60.606 31.8704 60.606 31.6922C60.606 31.6084 60.6584 31.5141 60.7108 31.4827C60.7737 31.4512 60.8156 31.336 60.8156 31.2416C60.8156 31.1473 61.1509 30.7386 61.5596 30.33C62.3141 29.5859 62.5342 29.2506 62.4294 28.9781C62.3979 28.8943 62.4189 28.8 62.4818 28.7581C62.5551 28.7162 62.5761 28.4856 62.5342 28.1293C62.4922 27.815 62.5027 27.4796 62.5446 27.3748C62.6285 27.1548 62.6494 24.0529 62.5551 23.9062C62.5237 23.8538 62.5132 23.529 62.5237 23.1727C62.5446 22.4287 62.4294 22.2715 61.612 21.7999C60.9518 21.4331 60.4174 20.7101 60.6165 20.4691C60.6793 20.3852 60.7108 20.2909 60.6689 20.249C60.5746 20.1547 61.3395 19.3792 61.5282 19.3792C61.6015 19.3792 61.9788 19.2116 62.356 19.0124C62.7333 18.8133 63.0896 18.6457 63.1315 18.6457C63.1734 18.6457 63.3411 18.5933 63.5087 18.5199C63.6659 18.4571 63.8336 18.4047 63.8755 18.4151C63.9174 18.4256 64.0851 18.3837 64.2423 18.3103C64.3995 18.2475 64.5671 18.2056 64.6195 18.2056C64.7138 18.2265 66.1285 17.9331 66.3695 17.8388C66.5686 17.7654 66.7468 17.7235 67.2603 17.6502C67.7842 17.5663 68.1091 17.5139 68.5492 17.4301C68.8112 17.3777 68.9579 17.4196 69.2513 17.6397C69.4504 17.7969 69.6181 18.0169 69.6181 18.1217C69.6181 18.2265 69.6705 18.3523 69.7333 18.3837C69.8067 18.4361 69.8381 20.0184 69.8381 23.5604C69.8277 29.5755 69.8172 28.9991 69.9429 29.0725C69.9953 29.1144 70.0372 29.2506 70.0372 29.3868C70.0372 29.5231 70.184 29.7746 70.404 29.9841C71.6406 31.1578 71.5882 31.0949 71.5043 31.4827C71.3786 32.059 71.0223 32.5306 70.5193 32.7821C70.2573 32.9078 70.0163 33.0545 69.9848 33.1174C69.9429 33.1698 69.8696 33.1908 69.8172 33.1593C69.7648 33.1174 69.66 33.1279 69.5971 33.1698C69.5238 33.2222 69.3666 33.2641 69.2513 33.2851C68.172 33.4528 67.669 33.5051 66.3695 33.589C65.8246 33.6204 65.3321 33.6099 65.2902 33.5575ZM78.6826 33.5261C78.6616 33.4842 78.3472 33.4528 77.9805 33.4423C77.6137 33.4318 77.184 33.3899 77.0059 33.3375C76.8382 33.2851 76.1152 33.2536 75.4026 33.2641C74.5223 33.2746 74.0927 33.2432 74.0403 33.1593C73.9984 33.0965 73.8831 33.0126 73.7783 32.9707C73.684 32.9288 73.5687 32.8135 73.5268 32.7192C73.4849 32.6144 73.3487 32.3944 73.2229 32.2162C72.8876 31.7656 72.2379 30.3509 72.1645 29.9108C72.1331 29.7117 72.0597 29.5126 72.0178 29.4811C71.8397 29.3764 71.9235 28.6114 72.1436 28.2132C72.4475 27.6682 72.4475 27.6578 73.0657 27.5635C73.5373 27.4901 73.6211 27.5006 73.7154 27.6682C73.7678 27.7835 73.9145 27.8673 74.0298 27.8673C74.1451 27.8673 74.2604 27.9407 74.3023 28.035C74.3756 28.2236 74.69 28.5904 75.5179 29.4497C76.3457 30.288 77.6137 30.8644 77.8442 30.4871C77.8757 30.4347 77.97 30.4138 78.0433 30.4452C78.2948 30.5395 78.6302 30.1413 78.693 29.6907C78.735 29.303 78.7035 29.2192 78.3368 28.8419C77.8652 28.3599 76.6915 27.6159 76.5343 27.7102C76.4819 27.7416 76.3457 27.6787 76.2304 27.5635C76.1152 27.4482 75.8951 27.27 75.7274 27.1757C74.9625 26.6937 74.187 26.023 73.7574 25.4781C73.4954 25.1532 73.2229 24.8074 73.1496 24.7236C73.0867 24.6398 73.0343 24.535 73.0552 24.4826C73.0657 24.4407 73.0238 24.294 72.9505 24.1682C72.8771 24.0425 72.8352 23.8957 72.8457 23.8433C72.8666 23.791 72.8457 23.6757 72.8037 23.5814C72.7618 23.4871 72.7409 23.3089 72.7514 23.1832C72.7618 23.0679 72.7199 22.9317 72.6675 22.8897C72.6046 22.8583 72.5522 22.6382 72.5522 22.4182C72.5522 22.1981 72.6046 21.9781 72.6675 21.9466C72.7199 21.9047 72.7618 21.7685 72.7514 21.6532C72.7409 21.5275 72.7828 21.2864 72.8457 21.1292C72.919 20.9616 72.9714 20.8044 72.9714 20.7729C72.9714 20.7206 73.2544 20.0813 73.4954 19.5888C73.5373 19.505 73.6735 19.3792 73.7993 19.3163C73.9355 19.243 74.1556 19.0229 74.2918 18.8133C74.4385 18.6038 74.6166 18.4361 74.69 18.4361C74.7738 18.4361 74.8577 18.3627 74.8996 18.2789C74.931 18.1951 75.0253 18.1217 75.1196 18.1217C75.214 18.1217 75.4864 18.0169 75.7274 17.9017C76.1571 17.6816 76.7858 17.5034 77.2364 17.4615C77.3622 17.4511 77.4984 17.4091 77.5403 17.3672C77.6556 17.2519 79.0284 17.2624 79.1017 17.3882C79.1332 17.4406 79.2904 17.4825 79.4475 17.4825C79.7305 17.4825 80.0344 17.5244 80.726 17.6606C81.4281 17.8073 82.6018 17.6502 82.8638 17.3777C83.0209 17.231 83.3039 17.2624 83.4506 17.4406C83.5239 17.5349 83.6392 17.5873 83.7126 17.5558C83.8383 17.5139 84.4985 17.975 84.4985 18.1112C84.4985 18.1636 84.6662 18.3732 84.8653 18.5828C85.0644 18.7924 85.2216 19.002 85.2111 19.0439C85.2006 19.0858 85.253 19.2325 85.3054 19.3792C85.3683 19.5259 85.5255 19.9032 85.6407 20.2176C85.7665 20.5319 85.9237 20.8987 85.9865 21.0245C86.1961 21.4331 86.018 21.9571 85.5045 22.4496C85.0539 22.9002 85.012 22.9107 84.4147 22.9002C83.7126 22.8793 83.4715 22.7221 82.1302 21.4646C81.3548 20.7415 80.5688 20.3328 80.2335 20.4795C80.1287 20.5319 79.9925 20.5738 79.9296 20.5738C79.8772 20.5843 79.699 20.7101 79.5523 20.8777C79.2065 21.255 79.217 21.9571 79.5943 22.3343C79.9086 22.6487 80.4326 23.005 80.726 23.0993C80.8518 23.1412 81.229 23.3403 81.5643 23.5395C81.9101 23.7386 82.235 23.8748 82.2979 23.8329C82.3503 23.8014 82.4341 23.8433 82.4655 23.9272C82.497 24.0215 82.6018 24.0948 82.6751 24.0948C82.8428 24.0948 83.3353 24.3778 83.503 24.5664C83.5659 24.6398 83.8907 24.9227 84.2365 25.2161C84.8338 25.7086 85.6303 26.7146 85.6931 27.0395C85.7036 27.1233 85.7874 27.3329 85.8713 27.5006C85.9865 27.7206 86.0285 28.0874 86.018 28.7057C86.0075 29.4707 85.9551 29.7012 85.6722 30.3195C85.1587 31.3988 84.2994 32.2372 83.0314 32.8869C82.4655 33.1698 81.973 33.3794 81.9416 33.348C81.9101 33.3165 81.8158 33.348 81.732 33.4108C81.6482 33.4842 81.5224 33.5156 81.4595 33.4737C81.4072 33.4423 81.3024 33.4423 81.229 33.4842C81.0718 33.589 78.7454 33.6204 78.6826 33.5261ZM62.9848 16.466C62.9428 16.4136 62.7961 16.3717 62.6494 16.3717C62.5027 16.3717 62.3036 16.2983 62.1988 16.204C62.1045 16.1097 61.8949 15.9944 61.7482 15.9316C61.3186 15.7744 60.7108 14.454 60.9308 14.1815C60.9937 14.1082 61.0147 14.0034 60.9832 13.951C60.8784 13.7729 62.1359 12.6935 62.7647 12.4001C63.645 12.0124 63.8965 11.9076 64.0117 11.8866C64.0746 11.8761 64.1375 11.8552 64.1689 11.8447C64.2318 11.8133 64.6929 11.7294 64.9025 11.7189C64.9863 11.7085 65.112 11.6561 65.1854 11.6037C65.2587 11.5513 65.4474 11.5303 65.6255 11.5722C65.8037 11.6037 65.9608 11.5932 66.0028 11.5303C66.0866 11.3836 67.0716 11.3836 67.1659 11.5303C67.1974 11.5932 67.3231 11.6246 67.4279 11.5932C67.5327 11.5618 67.648 11.5827 67.6794 11.6246C67.7109 11.677 67.8785 11.7085 68.0462 11.7085C68.2243 11.698 68.4654 11.7923 68.6016 11.9076C68.7273 12.0228 68.916 12.1486 69.0208 12.18C69.1151 12.2219 69.1989 12.3163 69.1989 12.4106C69.1989 12.5049 69.2827 12.6935 69.3771 12.8402C69.8067 13.5004 69.3875 14.5483 68.4444 15.1876C68.1091 15.4076 67.5642 15.6906 67.2288 15.8163C66.904 15.9316 66.5582 16.0573 66.4743 16.0992C66.3905 16.1307 66.2752 16.1726 66.2123 16.1831C66.16 16.1936 66.0866 16.2145 66.0552 16.2355C66.0237 16.2459 65.8875 16.2774 65.7408 16.2983C65.5941 16.3193 65.3111 16.3612 65.112 16.3822C64.1165 16.5289 63.0372 16.5708 62.9848 16.466Z" fill="#EB1D24"/>
</svg>
