<svg width="99" height="46" viewBox="0 0 99 46" fill="none" xmlns="http://www.w3.org/2000/svg">
<rect x="0.5" y="0.599152" width="97.9822" height="44.0496" rx="7.5" fill="#202020" stroke="#414141"/>
<path d="M23.1899 33.6163C22.4557 33.1862 22.162 32.9345 21.7529 32.368C21.5116 32.0114 21.2179 31.6548 21.1235 31.5604C21.0186 31.4764 20.9347 31.3191 20.9347 31.2142C20.9347 31.1093 20.8298 30.9205 20.7039 30.7946C20.5676 30.6583 20.4732 30.5219 20.4836 30.4799C20.5046 30.438 20.2634 30.0079 19.9592 29.5359C19.655 29.0534 19.1725 28.2771 18.8892 27.8051C18.606 27.3226 18.3438 26.9345 18.2913 26.9345C18.2494 26.9345 18.0711 26.6513 17.9032 26.3156C17.7354 25.9799 17.3158 25.2352 16.9592 24.6792C16.6025 24.1233 16.3193 23.6303 16.3193 23.5988C16.3193 23.5674 16.2039 23.389 16.0571 23.2002C15.9102 23.0114 15.7948 22.8226 15.7948 22.7806C15.7948 22.7387 15.6899 22.6023 15.5641 22.4764C15.4277 22.3401 15.1655 22.0044 14.9662 21.7212C14.7039 21.3331 14.4732 21.1443 14.0746 20.966C13.1515 20.5779 13.0361 20.4939 12.8368 20.1268C12.648 19.8016 12.648 19.7492 12.7948 19.4345C13.0361 18.9415 13.592 18.4904 14.2948 18.2387C14.6305 18.1128 14.9767 17.9869 15.0606 17.945C15.8473 17.6303 19.4766 17.431 20.8298 17.6408C21.7004 17.7667 21.8263 17.7876 21.8787 17.8191C21.9102 17.8296 21.9836 17.8506 22.0361 17.8611C22.2878 17.903 23.2214 18.4065 23.4417 18.6163C23.8088 18.9625 23.8508 19.5709 23.5256 20.1268C23.127 20.8191 23.2424 21.3855 24.0606 22.7702C24.5955 23.6932 24.8787 23.966 25.3088 24.0184C25.8438 24.0918 25.8962 24.0604 26.2738 23.4729C26.6829 22.8436 26.9137 22.2981 26.9137 21.973C26.9137 21.4275 26.3787 20.7562 25.6655 20.3785C25.2144 20.1478 24.9731 19.6023 25.0885 19.0674C25.141 18.8156 25.2564 18.5848 25.3403 18.5429C26.0536 18.1862 27.2074 17.7981 27.7004 17.7457C29.106 17.5883 29.7249 17.5569 31.1095 17.5569C33.2389 17.5569 33.9626 17.6618 34.7494 18.1023C35.2109 18.3541 35.7249 18.9205 35.7249 19.1723C35.7249 19.4345 35.2738 20.2527 35.106 20.2946C34.8542 20.3576 34.6969 20.7876 34.7284 21.3121C34.7598 21.9415 35.5256 23.4729 36.0081 23.903C36.3018 24.1548 36.4382 24.2072 36.6584 24.1548C37.1514 24.0289 37.3507 23.8191 37.7493 23.0114C37.9591 22.5709 38.1794 22.2142 38.2214 22.2142C38.3263 22.2142 38.578 21.5324 38.6305 21.1233C38.6619 20.8401 38.3892 20.2212 38.2214 20.2212C38.0745 20.2212 37.7913 19.445 37.8228 19.1198C37.8438 18.8051 38.5151 17.9345 38.6934 17.9974C38.7354 18.0079 38.8822 17.966 39.0081 17.8925C39.134 17.8296 39.3123 17.7562 39.3962 17.7457C39.4801 17.7352 39.7424 17.6827 39.9731 17.6303C40.4661 17.5359 42.6479 17.5359 43.1724 17.6303C43.3717 17.6723 43.6759 17.7142 43.8333 17.7457C44.2528 17.8086 45.2493 18.5953 45.3333 18.9205C45.3752 19.0674 45.3542 19.2876 45.2913 19.4135C45.2284 19.5394 45.1654 19.7177 45.134 19.8016C45.113 19.8855 44.7354 20.0848 44.3053 20.2422C43.8542 20.41 43.3612 20.6827 43.1305 20.903C42.9102 21.1023 42.6899 21.2702 42.6375 21.2702C42.585 21.2702 42.543 21.3436 42.543 21.4275C42.543 21.5009 42.4801 21.6163 42.4067 21.6583C42.2074 21.7841 41.3577 23.2422 41.3263 23.5044C41.3158 23.6303 41.2948 23.7667 41.2948 23.7981C41.2843 23.8401 41.1165 24.1128 40.9172 24.4065C40.7179 24.7002 40.55 25.0044 40.55 25.0883C40.55 25.1722 40.4976 25.2771 40.4452 25.3086C40.3193 25.382 39.9941 26.0639 39.9731 26.3051C39.9521 26.4729 39.3123 27.6478 38.7039 28.6128C38.5151 28.9275 38.3682 29.2422 38.3892 29.2946C38.4312 29.4205 38.1584 29.9764 38.0535 29.9764C37.9591 29.9764 37.5081 30.868 37.5081 31.0569C37.5081 31.2037 37.0151 31.8016 36.1025 32.7771C34.9067 34.0464 34.4976 33.9205 32.5256 31.6338C32.2948 31.3715 32.106 31.1093 32.0955 31.0569C32.0745 30.8576 31.8018 30.3855 31.0361 29.1792C30.585 28.4869 30.134 27.7422 30.0186 27.5324C29.7564 27.0184 29.3892 26.7037 29.0745 26.7037C28.6969 26.7037 28.099 27.1023 28.0256 27.4065C27.9836 27.5534 27.8682 27.7632 27.7529 27.8785C27.4801 28.1513 26.9137 29.1583 26.9137 29.3785C26.9137 29.4729 26.8508 29.5883 26.7668 29.6303C26.6515 29.7037 25.7703 31.1617 25.1724 32.2841C24.9312 32.7247 24.2808 33.3331 23.7773 33.5743C23.578 33.6792 23.4102 33.7527 23.4102 33.7422C23.3997 33.7422 23.3053 33.6897 23.1899 33.6163ZM50.4626 33.6163C50.3787 33.5743 50.2528 33.5638 50.1899 33.5953C50.1374 33.6373 50.0116 33.6058 49.9277 33.5324C49.8437 33.4694 49.7493 33.438 49.7179 33.4589C49.6864 33.4904 49.2983 33.375 48.8577 33.2072C47.6934 32.7562 46.5081 32.0324 46.099 31.5079C45.9836 31.361 45.8263 31.2352 45.7528 31.2352C45.627 31.2352 44.5151 29.6932 44.2528 29.1373C43.8542 28.3296 43.571 26.9555 43.5396 25.8121C43.5081 24.5429 43.5815 24.2072 44.1375 22.8436C44.3053 22.4135 44.5046 21.91 44.5675 21.7422C44.6409 21.5639 44.9451 21.1653 45.2388 20.8506C45.543 20.5359 45.7948 20.2107 45.7948 20.1373C45.7948 20.0639 45.8787 19.9799 45.9836 19.938C46.078 19.9065 46.3298 19.7282 46.5395 19.5499C47.2948 18.889 47.6934 18.5953 47.7983 18.6268C47.8507 18.6373 48.092 18.5534 48.3333 18.4275C49.3088 17.924 50.3997 17.5779 50.9556 17.5883C51.113 17.5883 51.2703 17.5464 51.3018 17.4939C51.3857 17.3576 53.0011 17.3576 53.085 17.4939C53.1165 17.5464 53.2738 17.5883 53.4311 17.5883C54.1549 17.5779 55.6969 18.1653 56.6724 18.8156C57.05 19.0674 57.3857 19.2772 57.4276 19.2772C57.5221 19.2876 58.078 19.8646 58.2144 20.1058C58.2773 20.2107 58.5186 20.5779 58.7388 20.9135C58.9696 21.2597 59.2423 21.7737 59.3472 22.0569C59.4521 22.3506 59.578 22.6548 59.6095 22.7387C59.6409 22.8226 59.6619 22.9695 59.6514 23.0744C59.6409 23.1688 59.6829 23.2736 59.7458 23.3156C59.8717 23.3995 59.8822 24.3436 59.7563 24.6058C59.5465 25.0254 59.2843 25.6338 59.2843 25.7282C59.2738 25.7911 59.2318 25.8331 59.1689 25.8331C59.1165 25.8331 58.9381 25.917 58.7913 26.0219C58.6444 26.1268 58.4346 26.1792 58.3402 26.1373C58.2458 26.1058 58.1095 26.1268 58.0255 26.1897C57.9206 26.2841 56.8297 26.3051 54.1025 26.2841L50.3263 26.2527L50.3577 26.8191C50.4102 27.5429 50.8088 28.2142 51.4906 28.6862C51.7633 28.8855 52.0256 29.0219 52.078 28.9904C52.12 28.959 52.3193 29.0324 52.5081 29.1583C53.2318 29.5883 55.7493 29.3995 56.1794 28.875C56.2528 28.7911 56.3892 28.7177 56.4836 28.7177C56.5885 28.7177 56.9346 28.5499 57.2703 28.3506C57.606 28.1513 57.9207 27.9834 57.9626 27.9834C58.0046 27.9834 58.2248 28.1932 58.4556 28.4345C58.9486 28.9694 59.1689 29.5464 59.0535 29.9555C59.0116 30.1128 58.9591 30.3331 58.9486 30.438C58.9381 30.5534 58.8332 30.7317 58.7074 30.8261C58.592 30.9205 58.4871 31.0464 58.4871 31.0988C58.4871 31.2352 58.0255 31.6548 57.8892 31.6548C57.8262 31.6548 57.7528 31.7282 57.7109 31.8121C57.6794 31.896 57.585 31.9694 57.5011 31.9694C57.4276 31.9694 57.3332 32.0429 57.2913 32.1268C57.2598 32.2107 57.1444 32.2841 57.05 32.2841C56.9451 32.2841 56.7668 32.3471 56.6514 32.431C56.3577 32.6303 54.9207 33.2282 54.9207 33.1548C54.9207 33.1128 54.8682 33.1338 54.7948 33.2072C54.7214 33.2806 54.564 33.3331 54.4381 33.3331C54.3018 33.3331 54.1654 33.3855 54.1339 33.438C54.092 33.5009 54.0186 33.5219 53.9661 33.4799C53.9137 33.4485 53.7983 33.4694 53.7249 33.5324C53.6514 33.5953 53.5046 33.6268 53.4207 33.5848C53.3263 33.5534 53.1899 33.5638 53.1165 33.6058C52.9381 33.7212 50.6619 33.7317 50.4626 33.6163ZM52.6759 23.1058C53.557 23.1478 53.7353 22.9904 53.7458 22.1303C53.7458 21.7737 53.7039 21.459 53.6514 21.4275C53.599 21.3855 53.557 21.2702 53.557 21.1548C53.557 21.0289 53.3787 20.8401 53.085 20.6513C52.6759 20.389 52.529 20.3576 51.9836 20.389C51.3437 20.4205 50.7249 20.7142 50.7249 20.9869C50.7249 21.0604 50.6305 21.1967 50.5151 21.3016C50.3997 21.396 50.3053 21.5324 50.2948 21.6058C50.2214 22.8016 50.2214 22.8226 50.5046 22.959C50.8402 23.1163 51.7843 23.2422 51.9311 23.1478C51.9941 23.1058 52.3193 23.0848 52.6759 23.1058ZM64.8542 33.6792C64.8018 33.6373 64.4766 33.5848 64.1199 33.5743C63.7633 33.5638 63.3018 33.5219 63.1025 33.4904C62.9032 33.4589 62.6199 33.417 62.4731 33.396C62.3262 33.3855 62.0325 33.2911 61.8018 33.1967C61.5815 33.0918 61.3402 33.0184 61.2668 33.0184C61.0885 33.0184 60.1654 31.9904 60.1654 31.8121C60.1654 31.7282 60.2178 31.6338 60.2703 31.6023C60.3332 31.5708 60.3752 31.4555 60.3752 31.361C60.3752 31.2666 60.7109 30.8576 61.1199 30.4485C61.8752 29.7037 62.0955 29.368 61.9906 29.0953C61.9591 29.0114 61.9801 28.917 62.043 28.875C62.1165 28.8331 62.1374 28.6023 62.0955 28.2457C62.0535 27.931 62.064 27.5953 62.106 27.4904C62.1899 27.2701 62.2108 24.1653 62.1164 24.0184C62.085 23.966 62.0745 23.6408 62.085 23.2841C62.106 22.5394 61.9906 22.382 61.1724 21.91C60.5116 21.5429 59.9766 20.8191 60.1759 20.5778C60.2388 20.4939 60.2703 20.3995 60.2283 20.3576C60.1339 20.2632 60.8997 19.4869 61.0885 19.4869C61.1619 19.4869 61.5395 19.3191 61.9171 19.1198C62.2948 18.9205 62.6514 18.7527 62.6934 18.7527C62.7353 18.7527 62.9032 18.7002 63.071 18.6268C63.2283 18.5639 63.3962 18.5114 63.4381 18.5219C63.4801 18.5324 63.6479 18.4904 63.8053 18.417C63.9626 18.3541 64.1304 18.3121 64.1829 18.3121C64.2773 18.3331 65.6934 18.0394 65.9346 17.945C66.1339 17.8716 66.3122 17.8296 66.8262 17.7562C67.3507 17.6723 67.6759 17.6198 68.1164 17.5359C68.3787 17.4834 68.5255 17.5254 68.8192 17.7457C69.0185 17.903 69.1864 18.1233 69.1864 18.2282C69.1864 18.3331 69.2388 18.459 69.3017 18.4904C69.3752 18.5429 69.4066 20.1268 69.4066 23.6722C69.3962 29.6932 69.3857 29.1163 69.5115 29.1897C69.564 29.2317 69.6059 29.368 69.6059 29.5044C69.6059 29.6408 69.7528 29.8925 69.9731 30.1023C71.2108 31.2771 71.1584 31.2142 71.0745 31.6023C70.9486 32.1792 70.592 32.6513 70.0885 32.903C69.8262 33.0289 69.585 33.1757 69.5535 33.2387C69.5115 33.2911 69.4381 33.3121 69.3857 33.2806C69.3332 33.2387 69.2283 33.2492 69.1654 33.2911C69.092 33.3436 68.9346 33.3855 68.8192 33.4065C67.7388 33.5743 67.2353 33.6268 65.9346 33.7107C65.3892 33.7422 64.8962 33.7317 64.8542 33.6792ZM78.2598 33.6478C78.2388 33.6058 77.9241 33.5743 77.557 33.5638C77.1898 33.5534 76.7598 33.5114 76.5815 33.4589C76.4136 33.4065 75.6899 33.375 74.9766 33.3855C74.0954 33.396 73.6654 33.3645 73.6129 33.2806C73.571 33.2177 73.4556 33.1338 73.3507 33.0918C73.2563 33.0499 73.1409 32.9345 73.0989 32.8401C73.057 32.7352 72.9206 32.5149 72.7948 32.3366C72.4591 31.8855 71.8087 30.4694 71.7353 30.0289C71.7038 29.8296 71.6304 29.6303 71.5885 29.5988C71.4101 29.4939 71.494 28.7282 71.7143 28.3296C72.0185 27.7841 72.0185 27.7736 72.6374 27.6792C73.1094 27.6058 73.1933 27.6163 73.2878 27.7841C73.3402 27.8995 73.4871 27.9834 73.6024 27.9834C73.7178 27.9834 73.8332 28.0569 73.8752 28.1513C73.9486 28.3401 74.2633 28.7072 75.0919 29.5673C75.9206 30.4065 77.1898 30.9834 77.4206 30.6058C77.4521 30.5534 77.5465 30.5324 77.6199 30.5638C77.8717 30.6583 78.2073 30.2597 78.2703 29.8086C78.3122 29.4205 78.2808 29.3366 77.9136 28.959C77.4416 28.4764 76.2668 27.7317 76.1094 27.8261C76.057 27.8576 75.9206 27.7946 75.8052 27.6792C75.6898 27.5639 75.4696 27.3855 75.3017 27.2911C74.536 26.8086 73.7598 26.1373 73.3297 25.5918C73.0675 25.2667 72.7948 24.9205 72.7213 24.8366C72.6584 24.7527 72.6059 24.6478 72.6269 24.5953C72.6374 24.5534 72.5954 24.4065 72.522 24.2806C72.4486 24.1548 72.4066 24.0079 72.4171 23.9555C72.4381 23.903 72.4171 23.7876 72.3752 23.6932C72.3332 23.5988 72.3122 23.4205 72.3227 23.2946C72.3332 23.1792 72.2913 23.0429 72.2388 23.0009C72.1759 22.9695 72.1234 22.7492 72.1234 22.5289C72.1234 22.3086 72.1759 22.0883 72.2388 22.0569C72.2913 22.0149 72.3332 21.8785 72.3227 21.7632C72.3122 21.6373 72.3542 21.396 72.4171 21.2387C72.4906 21.0709 72.543 20.9135 72.543 20.882C72.543 20.8296 72.8262 20.1897 73.0675 19.6967C73.1094 19.6128 73.2458 19.4869 73.3717 19.424C73.508 19.3506 73.7283 19.1303 73.8647 18.9205C74.0115 18.7107 74.1899 18.5429 74.2633 18.5429C74.3472 18.5429 74.4311 18.4695 74.4731 18.3855C74.5045 18.3016 74.5989 18.2282 74.6933 18.2282C74.7878 18.2282 75.0605 18.1233 75.3017 18.0079C75.7318 17.7876 76.3612 17.6093 76.8122 17.5674C76.9381 17.5569 77.0745 17.5149 77.1164 17.473C77.2318 17.3576 78.6059 17.3681 78.6794 17.4939C78.7108 17.5464 78.8682 17.5883 79.0255 17.5883C79.3087 17.5883 79.6129 17.6303 80.3052 17.7667C81.008 17.9135 82.1829 17.7562 82.4451 17.4834C82.6024 17.3366 82.8856 17.3681 83.0325 17.5464C83.1059 17.6408 83.2213 17.6932 83.2947 17.6618C83.4206 17.6198 84.0814 18.0813 84.0814 18.2177C84.0814 18.2702 84.2493 18.4799 84.4486 18.6897C84.6479 18.8995 84.8052 19.1093 84.7947 19.1513C84.7842 19.1932 84.8367 19.3401 84.8891 19.4869C84.9521 19.6338 85.1094 20.0114 85.2248 20.3261C85.3507 20.6408 85.508 21.0079 85.571 21.1338C85.7807 21.5429 85.6024 22.0674 85.0884 22.5604C84.6374 23.0114 84.5954 23.0219 83.9975 23.0114C83.2947 22.9904 83.0535 22.8331 81.7108 21.5744C80.9346 20.8506 80.1479 20.4415 79.8122 20.5883C79.7073 20.6408 79.571 20.6827 79.508 20.6827C79.4556 20.6932 79.2773 20.8191 79.1304 20.9869C78.7842 21.3646 78.7947 22.0674 79.1724 22.445C79.4871 22.7597 80.0115 23.1163 80.3052 23.2107C80.4311 23.2527 80.8087 23.452 81.1444 23.6513C81.4905 23.8506 81.8157 23.9869 81.8787 23.945C81.9311 23.9135 82.015 23.9555 82.0465 24.0394C82.0779 24.1338 82.1828 24.2072 82.2563 24.2072C82.4241 24.2072 82.9171 24.4904 83.0849 24.6792C83.1479 24.7527 83.4731 25.0359 83.8192 25.3296C84.4171 25.8226 85.2143 26.8296 85.2773 27.1548C85.2877 27.2387 85.3717 27.4485 85.4556 27.6163C85.571 27.8366 85.6129 28.2037 85.6024 28.8226C85.5919 29.5883 85.5395 29.8191 85.2563 30.438C84.7423 31.5184 83.8821 32.3576 82.6129 33.0079C82.0465 33.2911 81.5535 33.5009 81.522 33.4694C81.4905 33.438 81.3961 33.4694 81.3122 33.5324C81.2283 33.6058 81.1024 33.6373 81.0395 33.5953C80.987 33.5638 80.8821 33.5638 80.8087 33.6058C80.6514 33.7107 78.3227 33.7422 78.2598 33.6478ZM62.5465 16.5709C62.5046 16.5184 62.3577 16.4765 62.2109 16.4765C62.064 16.4765 61.8647 16.403 61.7598 16.3086C61.6654 16.2142 61.4556 16.0988 61.3088 16.0359C60.8787 15.8786 60.2703 14.5569 60.4906 14.2842C60.5535 14.2107 60.5745 14.1058 60.543 14.0534C60.4381 13.8751 61.6969 12.7946 62.3262 12.5009C63.2074 12.1128 63.4591 12.0079 63.5745 11.987C63.6374 11.9765 63.7004 11.9555 63.7318 11.945C63.7948 11.9135 64.2563 11.8296 64.4661 11.8191C64.55 11.8086 64.6759 11.7562 64.7493 11.7037C64.8227 11.6513 65.0116 11.6303 65.1899 11.6723C65.3682 11.7037 65.5255 11.6932 65.5675 11.6303C65.6514 11.4835 66.6374 11.4835 66.7318 11.6303C66.7633 11.6932 66.8892 11.7247 66.9941 11.6932C67.099 11.6618 67.2143 11.6828 67.2458 11.7247C67.2773 11.7772 67.4451 11.8086 67.6129 11.8086C67.7913 11.7981 68.0325 11.8925 68.1689 12.0079C68.2948 12.1233 68.4836 12.2492 68.5885 12.2807C68.6829 12.3226 68.7668 12.417 68.7668 12.5114C68.7668 12.6058 68.8507 12.7946 68.9451 12.9415C69.3752 13.6023 68.9556 14.6513 68.0115 15.2911C67.6759 15.5114 67.1304 15.7946 66.7948 15.9205C66.4696 16.0359 66.1234 16.1618 66.0395 16.2037C65.9556 16.2352 65.8402 16.2772 65.7773 16.2876C65.7248 16.2981 65.6514 16.3191 65.6199 16.3401C65.5885 16.3506 65.4521 16.3821 65.3053 16.403C65.1584 16.424 64.8752 16.466 64.6759 16.4869C63.6794 16.6338 62.599 16.6758 62.5465 16.5709Z" fill="#FFFEFE"/>
</svg>
